<?xml version="1.0" encoding="UTF-8"?>
<!DOCTYPE svg PUBLIC "-//W3C//DTD SVG 1.1//EN" "http://www.w3.org/Graphics/SVG/1.1/DTD/svg11.dtd">
<!-- Creator: CorelDRAW (OEM Version) -->
<svg xmlns="http://www.w3.org/2000/svg" xml:space="preserve" width="11.5156mm" height="11.5167mm" version="1.1" style="shape-rendering:geometricPrecision; text-rendering:geometricPrecision; image-rendering:optimizeQuality; fill-rule:evenodd; clip-rule:evenodd"
viewBox="0 0 1151.56 1151.67"
 xmlns:xlink="http://www.w3.org/1999/xlink"
 xmlns:xodm="http://www.corel.com/coreldraw/odm/2003">
 <defs>
  <style type="text/css">
   <![CDATA[
    .fil0 {fill:white;fill-rule:nonzero}
   ]]>
  </style>
 </defs>
 <g id="Layer_x0020_1">
  <metadata id="CorelCorpID_0Corel-Layer"/>
  <g>
   <path class="fil0" d="M1004.91 33.92l0 0 0 0 0 0 0 33.91 0 -33.91zm-33.91 0c0,-18.72 15.19,-33.91 33.91,-33.91 18.72,0 33.91,15.19 33.91,33.91l-67.82 0zm29.8 33.98l-3.44 -67.74 -0.15 0.01 1.23 -0.07 1.18 -0.03 0.72 -0.02 1.19 -0.03 0.95 0 0.73 -0.01 0.96 0 0.74 0 0 67.82 -0.74 0 -0.5 0 -0.71 0.01 -0.49 0 -0.25 0.01 -0.74 0.02 -0.28 0.01 -0.25 0.01 -0.15 0.01zm0.15 -0.01c-18.7,1.03 -34.7,-13.29 -35.73,-31.99 -1.03,-18.7 13.29,-34.7 31.99,-35.73l3.74 67.72zm-71.6 56.74l-65.7 -16.9 0.17 -0.6 1.68 -5.65 1.89 -5.52 2.11 -5.45 2.32 -5.32 2.49 -5.16 2.7 -5.09 2.88 -4.95 3.07 -4.82 3.24 -4.67 3.41 -4.53 3.57 -4.38 3.73 -4.24 3.91 -4.09 4.02 -3.9 4.18 -3.77 4.35 -3.61 4.45 -3.42 4.58 -3.25 4.7 -3.06 4.83 -2.9 4.95 -2.72 5.07 -2.53 5.17 -2.32 5.25 -2.13 5.34 -1.93 5.46 -1.73 5.52 -1.51 5.59 -1.31 5.7 -1.09 5.74 -0.87 5.8 -0.64 5.84 -0.41 3.44 67.74 -3.18 0.23 -3.12 0.34 -3.1 0.47 -3.02 0.57 -3.01 0.71 -2.98 0.81 -2.9 0.93 -2.88 1.03 -2.83 1.15 -2.75 1.24 -2.69 1.35 -2.65 1.44 -2.59 1.56 -2.54 1.66 -2.46 1.75 -2.41 1.84 -2.29 1.91 -2.24 2.01 -2.18 2.12 -2.07 2.17 -1.99 2.26 -1.93 2.36 -1.81 2.41 -1.74 2.51 -1.63 2.56 -1.54 2.63 -1.44 2.71 -1.35 2.82 -1.24 2.84 -1.11 2.89 -1.03 3 -0.92 3.05 0.17 -0.6zm-0.17 0.6c-4.99,18.04 -23.69,28.62 -41.73,23.63 -18.04,-4.99 -28.62,-23.69 -23.63,-41.73l65.36 18.1zm-66.34 -14.35l0.81 -3.15 65.7 16.9 -0.81 3.15 -56.83 15.53 -8.87 -32.43zm65.7 16.9c-4.66,18.14 -23.16,29.06 -41.3,24.4 -18.14,-4.66 -29.06,-23.16 -24.4,-41.3l65.7 16.9zm-54.38 17.98l-2.45 -2.45 47.96 -47.96 2.45 2.45 -46.94 48.94 -1.02 -0.98zm47.96 -47.96c13.24,13.24 13.24,34.72 0,47.96 -13.24,13.24 -34.72,13.24 -47.96,0l47.96 -47.96zm28.77 136.2l50.16 -45.66 -52.97 42.12 -1.99 -2.85 -2 -2.83 -2.02 -2.82 -2.07 -2.83 -2.04 -2.78 -2.08 -2.75 -2.12 -2.8 -2.1 -2.72 -2.15 -2.74 -2.16 -2.72 -2.18 -2.71 -2.2 -2.7 -2.19 -2.65 -2.25 -2.66 -2.23 -2.63 -2.28 -2.62 -2.31 -2.65 -2.27 -2.55 -2.34 -2.58 -2.37 -2.6 -2.32 -2.5 -2.39 -2.54 -2.43 -2.55 -2.42 -2.5 -2.42 -2.48 -2.44 -2.45 -2.5 -2.48 -2.48 -2.43 -2.49 -2.4 -2.56 -2.44 -2.55 -2.39 -2.55 -2.37 45.92 -49.92 2.93 2.71 2.87 2.71 2.84 2.7 2.87 2.76 2.84 2.79 2.78 2.76 2.8 2.81 2.78 2.84 2.74 2.84 2.69 2.83 2.71 2.86 2.72 2.94 2.63 2.88 2.64 2.92 2.65 2.99 2.57 2.93 2.58 2.98 2.57 3.01 2.53 3.02 2.53 3.05 2.48 3.04 2.48 3.07 2.44 3.08 2.43 3.1 2.42 3.14 2.36 3.1 2.38 3.17 2.36 3.2 2.29 3.15 2.32 3.22 2.28 3.23 2.25 3.23 -52.97 42.12zm52.97 -42.12c10.65,15.4 6.8,36.53 -8.6,47.18 -15.4,10.65 -36.53,6.8 -47.18,-8.6l55.78 -38.58zm-326.44 -113.55l13.64 -66.44 -0.04 -0.01 11.19 2.4 11.12 2.62 11.05 2.84 10.95 3.04 10.9 3.26 10.84 3.48 10.71 3.69 10.64 3.88 10.55 4.09 10.47 4.3 10.39 4.51 10.25 4.71 10.18 4.89 10.07 5.11 9.96 5.29 9.87 5.49 9.75 5.68 9.63 5.88 9.52 6.06 9.4 6.26 9.27 6.42 9.16 6.62 9.04 6.8 8.89 6.98 8.78 7.17 8.63 7.34 8.5 7.51 8.35 7.69 8.22 7.86 8.05 8.02 7.93 8.2 7.77 8.37 -50.16 45.66 -6.85 -7.39 -6.99 -7.22 -7.13 -7.1 -7.26 -6.94 -7.37 -6.79 -7.5 -6.63 -7.61 -6.48 -7.74 -6.31 -7.85 -6.16 -7.96 -6 -8.08 -5.84 -8.19 -5.68 -8.3 -5.52 -8.4 -5.34 -8.49 -5.18 -8.59 -5 -8.69 -4.85 -8.8 -4.67 -8.87 -4.49 -8.98 -4.33 -9.07 -4.15 -9.13 -3.97 -9.21 -3.78 -9.31 -3.61 -9.4 -3.44 -9.47 -3.25 -9.5 -3.06 -9.6 -2.86 -9.69 -2.7 -9.73 -2.5 -9.8 -2.3 -9.87 -2.12 -0.04 -0.01zm0.04 0.01c-18.35,-3.74 -30.19,-21.66 -26.45,-40.01 3.74,-18.35 21.66,-30.19 40.01,-26.45l-13.56 66.46zm-101.63 -10.29l0 -67.82 0 0 3.63 0.01 3.68 0.03 3.63 0.06 3.63 0.08 3.68 0.1 3.62 0.13 3.68 0.15 3.62 0.18 3.62 0.19 3.62 0.22 3.62 0.24 3.66 0.26 3.61 0.29 3.66 0.31 3.6 0.34 3.6 0.35 3.59 0.38 3.6 0.39 3.63 0.43 3.58 0.45 3.58 0.46 3.57 0.49 3.58 0.51 3.57 0.53 3.6 0.56 3.55 0.58 3.54 0.6 3.6 0.63 3.49 0.64 3.53 0.66 3.56 0.7 3.5 0.71 -13.64 66.44 -3.12 -0.63 -3.06 -0.6 -3.11 -0.58 -3.17 -0.58 -3.08 -0.55 -3.14 -0.52 -3.15 -0.52 -3.1 -0.48 -3.15 -0.47 -3.16 -0.45 -3.17 -0.43 -3.18 -0.42 -3.18 -0.39 -3.13 -0.37 -3.2 -0.35 -3.19 -0.34 -3.2 -0.31 -3.2 -0.3 -3.16 -0.27 -3.21 -0.25 -3.16 -0.24 -3.22 -0.2 -3.22 -0.2 -3.22 -0.17 -3.22 -0.16 -3.18 -0.13 -3.24 -0.11 -3.18 -0.1 -3.23 -0.06 -3.23 -0.06 -3.2 -0.03 -3.23 -0.01 0 0zm0 0c-18.72,0 -33.91,-15.19 -33.91,-33.91 0,-18.72 15.19,-33.91 33.91,-33.91l0 67.82zm-101.63 10.29l-13.56 -66.46 -0.02 0.01 3.51 -0.71 3.57 -0.7 3.54 -0.66 3.49 -0.64 3.59 -0.63 3.56 -0.6 3.54 -0.58 3.61 -0.56 3.57 -0.53 3.56 -0.51 3.58 -0.49 3.58 -0.46 3.58 -0.45 3.63 -0.43 3.59 -0.39 3.59 -0.38 3.6 -0.35 3.6 -0.34 3.65 -0.31 3.61 -0.29 3.66 -0.26 3.61 -0.24 3.62 -0.22 3.62 -0.19 3.61 -0.18 3.67 -0.15 3.62 -0.13 3.68 -0.1 3.63 -0.08 3.63 -0.06 3.68 -0.03 3.63 -0.01 0 67.82 -3.23 0.01 -3.2 0.03 -3.23 0.06 -3.23 0.06 -3.18 0.1 -3.22 0.11 -3.17 0.13 -3.23 0.16 -3.22 0.17 -3.22 0.2 -3.21 0.2 -3.16 0.24 -3.21 0.25 -3.15 0.27 -3.2 0.3 -3.2 0.31 -3.19 0.34 -3.19 0.35 -3.13 0.37 -3.18 0.39 -3.18 0.42 -3.16 0.43 -3.16 0.45 -3.17 0.47 -3.09 0.48 -3.16 0.52 -3.14 0.52 -3.09 0.55 -3.19 0.58 -3.12 0.58 -3.07 0.6 -3.13 0.63 -0.02 0.01zm0.02 -0.01c-18.34,3.75 -36.27,-8.08 -40.02,-26.42 -3.75,-18.34 8.08,-36.27 26.42,-40.02l13.6 66.44zm-203.13 91.8l-40.74 -54.22 -0.04 0.03 6.41 -4.77 6.49 -4.67 6.53 -4.57 6.59 -4.48 6.67 -4.41 6.73 -4.29 6.76 -4.2 6.84 -4.11 6.9 -4.02 6.95 -3.92 7 -3.82 7.06 -3.73 7.1 -3.63 7.14 -3.52 7.17 -3.42 7.24 -3.34 7.3 -3.24 7.32 -3.12 7.35 -3.02 7.4 -2.94 7.46 -2.82 7.46 -2.71 7.54 -2.62 7.55 -2.5 7.55 -2.4 7.6 -2.29 7.66 -2.2 7.65 -2.07 7.69 -1.98 7.73 -1.86 7.72 -1.75 7.77 -1.64 13.56 66.46 -6.81 1.44 -6.82 1.55 -6.77 1.62 -6.75 1.74 -6.77 1.83 -6.7 1.92 -6.7 2.03 -6.71 2.12 -6.65 2.2 -6.6 2.3 -6.6 2.41 -6.56 2.48 -6.52 2.58 -6.53 2.68 -6.46 2.76 -6.42 2.84 -6.38 2.94 -6.37 3.04 -6.32 3.12 -6.26 3.19 -6.22 3.29 -6.18 3.38 -6.13 3.46 -6.08 3.54 -6.02 3.63 -6 3.72 -5.93 3.79 -5.87 3.87 -5.83 3.96 -5.77 4.03 -5.69 4.11 -5.65 4.19 -0.04 0.03zm0.04 -0.03c-14.95,11.27 -36.22,8.28 -47.49,-6.67 -11.27,-14.95 -8.28,-36.22 6.67,-47.49l40.82 54.16zm-101.15 101.16l-54.16 -40.84 -0.03 0.05 3.07 -4.07 3.12 -4.02 3.13 -3.99 3.18 -3.96 3.21 -3.95 3.25 -3.91 3.28 -3.88 3.31 -3.85 3.35 -3.82 3.38 -3.79 3.4 -3.74 3.46 -3.75 3.49 -3.7 3.49 -3.65 3.52 -3.62 3.59 -3.63 3.63 -3.59 3.62 -3.52 3.65 -3.49 3.7 -3.49 3.75 -3.46 3.74 -3.4 3.79 -3.38 3.82 -3.35 3.85 -3.31 3.88 -3.28 3.91 -3.25 3.95 -3.21 3.96 -3.18 3.99 -3.13 4.02 -3.12 4.07 -3.07 40.74 54.22 -3.57 2.71 -3.54 2.74 -3.55 2.79 -3.5 2.8 -3.47 2.83 -3.45 2.87 -3.42 2.88 -3.39 2.93 -3.38 2.95 -3.33 2.98 -3.34 3.02 -3.27 3.02 -3.26 3.07 -3.25 3.11 -3.22 3.14 -3.17 3.13 -3.13 3.17 -3.14 3.22 -3.11 3.25 -3.07 3.26 -3.02 3.27 -3.02 3.34 -2.98 3.33 -2.95 3.38 -2.93 3.39 -2.88 3.42 -2.87 3.45 -2.83 3.47 -2.8 3.5 -2.79 3.55 -2.74 3.54 -2.71 3.57 -0.03 0.05zm0.03 -0.05c-11.25,14.97 -32.51,17.99 -47.48,6.74 -14.97,-11.25 -17.99,-32.51 -6.74,-47.48l54.22 40.74zm-15.12 21.14l-56.2 -37.98 -0.18 0.27 1.11 -1.66 1.1 -1.62 1.1 -1.62 1.06 -1.54 1.11 -1.59 1.12 -1.59 1.08 -1.51 1.07 -1.51 1.09 -1.51 1.09 -1.49 1.12 -1.52 1.05 -1.42 1.03 -1.4 1.08 -1.45 1.05 -1.39 1.05 -1.4 54.16 40.84 -0.97 1.28 -0.97 1.31 -0.94 1.25 -0.99 1.34 -0.99 1.32 -0.9 1.24 -0.95 1.31 -0.93 1.29 -0.95 1.31 -0.94 1.33 -0.9 1.27 -0.89 1.29 -0.94 1.36 -0.9 1.3 -0.88 1.32 -0.87 1.3 -0.18 0.27zm0.18 -0.27c-10.33,15.61 -31.39,19.89 -47,9.56 -15.61,-10.33 -19.89,-31.39 -9.56,-47l56.56 37.44zm-7.45 11.31l-54.96 -39.76 -1.16 1.71 0.41 -0.63 0.41 -0.66 0.55 -0.85 0.41 -0.64 0.52 -0.81 0.38 -0.58 0.48 -0.74 0.49 -0.74 0.41 -0.63 0.52 -0.78 0.32 -0.48 0.48 -0.73 0.49 -0.72 0.41 -0.62 0.49 -0.73 0.42 -0.63 56.2 37.98 -0.4 0.59 -0.35 0.51 -0.41 0.62 -0.35 0.52 -0.34 0.53 -0.52 0.78 -0.32 0.48 -0.41 0.63 -0.35 0.52 -0.34 0.54 -0.46 0.7 -0.32 0.49 -0.41 0.64 -0.29 0.45 -0.41 0.66 -0.43 0.67 -1.16 1.71zm1.16 -1.71c-10.03,15.81 -31,20.5 -46.81,10.47 -15.81,-10.03 -20.5,-31 -10.47,-46.81l57.28 36.34zm-0.84 1.32l-57.22 -36.42 -1.72 3.04 0.65 -1.24 0.53 -0.95 0.09 -0.15 0.83 -1.38 1.06 -1.57 0.5 -0.7 54.96 39.76 0.02 -0.04 0.64 -0.95 0.65 -1.06 -0.09 0.15 0.35 -0.63 0.47 -0.9 -1.72 3.04zm1.72 -3.04c-8.37,16.75 -28.75,23.53 -45.5,15.16 -16.75,-8.37 -23.53,-28.75 -15.16,-45.5l60.66 30.34zm-7.7 12.55l-58.56 -34.2 0.12 -0.21 0.39 -0.66 0.51 -0.85 0.41 -0.66 0.41 -0.68 0.52 -0.85 0.41 -0.64 0.37 -0.59 0.48 -0.76 0.43 -0.68 0.43 -0.69 0.45 -0.7 0.45 -0.72 0.55 -0.87 0.42 -0.65 0.47 -0.74 0.5 -0.78 57.22 36.42 -0.5 0.78 -0.49 0.78 -0.52 0.81 -0.37 0.57 -0.43 0.68 -0.43 0.68 -0.41 0.65 -0.41 0.64 -0.32 0.52 -0.43 0.69 -0.37 0.6 -0.24 0.37 -0.33 0.54 -0.33 0.54 -0.21 0.35 -0.31 0.52 0.12 -0.21zm-0.12 0.21c-9.56,16.1 -30.37,21.41 -46.47,11.85 -16.1,-9.56 -21.41,-30.37 -11.85,-46.47l58.32 34.62zm-6.09 10.23l-58.52 -34.3 -0.04 0.07 0.43 -0.73 0.5 -0.86 0.46 -0.76 0.29 -0.49 0.45 -0.76 0.45 -0.75 0.39 -0.65 0.39 -0.65 0.45 -0.75 0.35 -0.57 0.28 -0.47 0.44 -0.74 0.38 -0.63 0.38 -0.64 0.28 -0.47 0.29 -0.49 58.56 34.2 -0.45 0.79 -0.48 0.79 -0.38 0.64 -0.38 0.63 -0.32 0.54 -0.48 0.81 -0.43 0.71 -0.33 0.55 -0.39 0.65 -0.39 0.65 -0.33 0.55 -0.33 0.56 -0.49 0.83 -0.34 0.56 -0.28 0.48 -0.37 0.63 -0.04 0.07zm0.04 -0.07c-9.43,16.18 -30.2,21.65 -46.38,12.22 -16.18,-9.43 -21.65,-30.2 -12.22,-46.38l58.6 34.16zm-0.85 1.36l-58.76 -33.86 -0.95 1.76 0.61 -1.18 0.97 -1.68 0.48 -0.76 0.24 -0.38 0.25 -0.37 -0.31 0.48 0.05 -0.09 -0.29 0.49 58.52 34.3 -0.55 0.91 -0.21 0.33 -0.55 0.86 -0.01 0.01 0.02 -0.02 0.24 -0.4 0.77 -1.32 0.43 -0.84 -0.95 1.76zm0.95 -1.76c-8.37,16.75 -28.75,23.53 -45.5,15.16 -16.75,-8.37 -23.53,-28.75 -15.16,-45.5l60.66 30.34zm-14.19 25.67l-56.32 -37.8 -1.88 3.17 0.76 -1.45 0.76 -1.46 0.82 -1.54 0.82 -1.53 0.78 -1.45 0.77 -1.44 0.81 -1.48 0.76 -1.39 0.82 -1.5 0.78 -1.41 0.83 -1.5 0.81 -1.44 0.76 -1.35 0.78 -1.38 0.8 -1.4 0.82 -1.42 58.76 33.86 -0.68 1.18 -0.68 1.22 -0.72 1.26 -0.74 1.33 -0.71 1.24 -0.67 1.22 -0.74 1.33 -0.68 1.24 -0.74 1.37 -0.71 1.3 -0.73 1.36 -0.74 1.35 -0.68 1.29 -0.68 1.28 -0.72 1.38 -0.74 1.39 -1.88 3.17zm1.88 -3.17c-8.68,16.59 -29.18,22.99 -45.77,14.31 -16.59,-8.68 -22.99,-29.18 -14.31,-45.77l60.08 31.46zm-1.09 2.31l-60.24 -31.18 -0.87 1.82 -0.05 0.1 0.06 -0.14 0.13 -0.32 0.58 -1.32 0.43 -0.9 0.55 -1.11 1.07 -1.94 1.23 -1.95 56.32 37.8 0.89 -1.41 0.75 -1.36 0.25 -0.49 0.13 -0.28 0.3 -0.68 -0.13 0.32 -0.22 0.5 -0.31 0.72 -0.87 1.82zm0.87 -1.82c-7.6,17.11 -27.65,24.82 -44.76,17.22 -17.11,-7.6 -24.82,-27.65 -17.22,-44.76l61.98 27.54zm-5.58 11.26l-60.14 -31.38 -0.49 0.99 0.3 -0.64 0.29 -0.59 0.33 -0.69 0.45 -0.9 0.18 -0.37 0.28 -0.58 0.4 -0.79 0.29 -0.58 0.29 -0.58 0.29 -0.58 0.34 -0.68 0.3 -0.59 0.34 -0.68 0.46 -0.89 0.25 -0.48 0.31 -0.61 60.24 31.18 -0.29 0.57 -0.37 0.7 -0.14 0.27 -0.24 0.48 -0.3 0.59 -0.24 0.48 -0.29 0.58 -0.29 0.58 -0.29 0.58 -0.18 0.37 -0.28 0.58 -0.4 0.79 -0.13 0.26 -0.23 0.49 -0.29 0.59 -0.26 0.54 -0.49 0.99zm0.49 -0.99c-8.11,16.87 -28.39,23.97 -45.26,15.86 -16.87,-8.11 -23.97,-28.39 -15.86,-45.26l61.12 29.4zm-0.84 1.81l-60.84 -30 0.09 -0.17 -0.4 0.83 -0.06 0.12 0.26 -0.55 -0.21 0.46 0.21 -0.49 0.4 -0.86 0.24 -0.51 0.52 -1.03 60.14 31.38 0.34 -0.67 0.06 -0.13 0.22 -0.48 0.05 -0.11 -0.39 0.86 0.08 -0.17 -0.22 0.5 -0.58 1.19 0.09 -0.17zm-0.09 0.17c-8.37,16.75 -28.75,23.53 -45.5,15.16 -16.75,-8.37 -23.53,-28.75 -15.16,-45.5l60.66 30.34zm-9.4 20.98l-62.42 -26.56 -0.18 0.43 0.69 -1.65 0.68 -1.64 0.7 -1.66 0.69 -1.64 0.73 -1.68 0.69 -1.57 0.66 -1.47 0.7 -1.6 0.75 -1.64 0.66 -1.43 0.72 -1.57 0.73 -1.55 0.71 -1.5 0.69 -1.44 0.72 -1.49 0.73 -1.49 60.84 30 -0.59 1.19 -0.58 1.21 -0.61 1.26 -0.59 1.24 -0.57 1.21 -0.56 1.21 -0.62 1.37 -0.55 1.2 -0.56 1.26 -0.62 1.41 -0.59 1.35 -0.55 1.26 -0.57 1.34 -0.58 1.36 -0.58 1.42 -0.59 1.43 -0.18 0.43zm0.18 -0.43c-7.09,17.33 -26.91,25.63 -44.24,18.54 -17.33,-7.09 -25.63,-26.91 -18.54,-44.24l62.78 25.7zm-5.11 12.49l-62.58 -26.16 -0.2 0.5 0.3 -0.75 0.3 -0.76 0.38 -0.95 0.24 -0.58 0.3 -0.77 0.38 -0.94 0.28 -0.7 0.41 -1.01 0.32 -0.76 0.28 -0.7 0.35 -0.84 0.31 -0.76 0.36 -0.87 0.35 -0.85 0.4 -0.93 0.33 -0.79 62.42 26.56 -0.33 0.75 -0.24 0.59 -0.29 0.69 -0.28 0.67 -0.31 0.76 -0.29 0.7 -0.34 0.84 -0.32 0.76 -0.21 0.53 -0.34 0.84 -0.24 0.58 -0.3 0.77 -0.38 0.94 -0.24 0.59 -0.3 0.76 -0.32 0.79 -0.2 0.5zm0.2 -0.5c-6.94,17.39 -26.68,25.85 -44.07,18.91 -17.39,-6.94 -25.85,-26.68 -18.91,-44.07l62.98 25.16zm-3.75 9.55l-62.02 -27.46 -0.74 1.82 0.16 -0.43 0.19 -0.52 0.3 -0.79 0.2 -0.52 0.2 -0.53 0.2 -0.52 0.2 -0.53 0.2 -0.52 0.3 -0.8 0.21 -0.52 0.2 -0.53 0.31 -0.78 0.32 -0.78 0.22 -0.52 0.21 -0.53 0.31 -0.75 62.58 26.16 -0.13 0.29 -0.21 0.53 -0.22 0.52 -0.1 0.28 -0.11 0.26 -0.2 0.53 -0.21 0.52 -0.1 0.26 -0.2 0.52 -0.2 0.53 -0.2 0.52 -0.2 0.53 -0.2 0.52 -0.1 0.27 -0.19 0.52 -0.24 0.63 -0.74 1.82zm0.74 -1.82c-6.57,17.53 -26.13,26.41 -43.66,19.84 -17.53,-6.57 -26.41,-26.13 -19.84,-43.66l63.5 23.82zm-2.07 5.61l-64.02 -22.44 -0.37 1.12 0.37 -1.15 0.36 -1.07 0.35 -1.03 0.49 -1.38 0.52 -1.37 0.45 -1.15 0.52 -1.28 0.64 -1.5 62.02 27.46 -0.04 0.1 -0.14 0.34 -0.19 0.49 -0.1 0.25 -0.07 0.22 -0.19 0.55 -0.14 0.43 -0.09 0.29 -0.37 1.12zm0.37 -1.12c-5.57,17.88 -24.6,27.85 -42.48,22.28 -17.88,-5.57 -27.85,-24.6 -22.28,-42.48l64.76 20.2zm-3.34 9.62l-62.98 -25.2 -0.71 1.95 0.14 -0.43 0.26 -0.77 0.16 -0.46 0.08 -0.23 0.18 -0.56 0.26 -0.77 0.16 -0.45 0.08 -0.22 0.26 -0.77 0.12 -0.33 0.19 -0.56 0.2 -0.54 0 0 0.26 -0.77 0.16 -0.44 0.13 -0.39 64.02 22.44 -0.17 0.49 -0.16 0.44 -0.04 0.11 -0.3 0.88 -0.12 0.32 -0.11 0.34 -0.2 0.55 -0.04 0.11 -0.22 0.66 -0.16 0.45 -0.04 0.11 -0.12 0.34 -0.22 0.67 -0.16 0.46 -0.04 0.13 -0.16 0.49 -0.71 1.95zm0.71 -1.95c-5.88,17.78 -25.07,27.43 -42.85,21.55 -17.78,-5.88 -27.43,-25.07 -21.55,-42.85l64.4 21.3zm-1.31 3.73l-65.06 -19.2 0.15 -0.48 0.22 -0.7 0.18 -0.57 0.21 -0.67 0.35 -1.09 0.32 -0.91 0.4 -1.14 0.45 -1.18 0.4 -1.04 62.98 25.2 -0.1 0.26 -0.03 0.06 -0.02 0.08 -0.1 0.29 -0.03 0.09 -0.15 0.47 -0.18 0.57 -0.14 0.44 0.15 -0.48zm-0.15 0.48c-5.56,17.88 -24.58,27.86 -42.46,22.3 -17.88,-5.56 -27.86,-24.58 -22.3,-42.46l64.76 20.16zm-3.21 9.87l-63.94 -22.62 0.08 -0.23 0.12 -0.36 0.15 -0.38 0.1 -0.3 0.11 -0.32 0.14 -0.43 0.15 -0.42 0.11 -0.35 0.21 -0.64 0.06 -0.19 0.15 -0.47 0.15 -0.48 0.14 -0.47 0.14 -0.41 0.14 -0.51 0.16 -0.5 0.13 -0.47 65.06 19.2 -0.21 0.71 -0.2 0.66 -0.2 0.65 -0.22 0.73 -0.2 0.65 -0.21 0.64 -0.19 0.63 -0.3 0.91 -0.15 0.44 -0.23 0.71 -0.21 0.62 -0.2 0.61 -0.25 0.7 -0.24 0.7 -0.21 0.6 -0.22 0.62 0.08 -0.23zm-0.08 0.23c-6.37,17.61 -25.82,26.72 -43.43,20.35 -17.61,-6.37 -26.72,-25.82 -20.35,-43.43l63.78 23.08zm-1 3.27l-64.58 -20.74 -0.61 2.14 0.27 -1.04 0.28 -1.02 0.36 -1.21 0.31 -1 0.35 -1.08 0.26 -0.73 0.2 -0.58 0.3 -0.86 63.94 22.62 -0.12 0.34 -0.2 0.6 -0.14 0.41 -0.01 0.02 -0.03 0.08 0.04 -0.13 0 0.02 -0.01 0.02 -0.61 2.14zm0.61 -2.14c-4.54,18.17 -22.96,29.21 -41.13,24.67 -18.17,-4.54 -29.21,-22.96 -24.67,-41.13l65.8 16.46zm-3.57 11.84l-64.72 -20.3 -0.26 0.87 0.18 -0.61 0.15 -0.55 0.32 -1.11 0.19 -0.62 0.18 -0.62 0.24 -0.78 0.19 -0.63 0.21 -0.7 0.25 -0.78 0.2 -0.63 0.13 -0.46 0.27 -0.86 0.27 -0.85 0.13 -0.39 0.21 -0.69 0.24 -0.73 64.58 20.74 -0.16 0.49 -0.17 0.55 -0.27 0.85 -0.13 0.39 -0.11 0.38 -0.25 0.78 -0.2 0.63 -0.13 0.46 -0.17 0.54 -0.19 0.63 -0.14 0.46 -0.18 0.62 -0.19 0.62 -0.04 0.13 -0.19 0.69 -0.18 0.61 -0.26 0.87zm0.26 -0.87c-5.12,18.01 -23.89,28.46 -41.9,23.34 -18.01,-5.12 -28.46,-23.89 -23.34,-41.9l65.24 18.56zm-3.2 11.65l-65.38 -18.06 -0.16 0.6 0.19 -0.72 0.19 -0.76 0.25 -0.97 0.21 -0.81 0.2 -0.76 0.22 -0.81 0.2 -0.75 0.21 -0.82 0.29 -1.05 0.21 -0.74 0.21 -0.8 0.29 -1 0.29 -0.99 0.25 -0.85 0.25 -0.83 0.3 -0.96 64.72 20.3 -0.14 0.44 -0.17 0.59 -0.19 0.59 -0.13 0.47 -0.13 0.46 -0.19 0.68 -0.21 0.74 -0.11 0.43 -0.19 0.7 -0.2 0.75 -0.18 0.71 -0.2 0.76 -0.19 0.71 -0.15 0.57 -0.19 0.76 -0.21 0.82 -0.16 0.6zm0.16 -0.6c-4.65,18.14 -23.14,29.07 -41.28,24.42 -18.14,-4.65 -29.07,-23.14 -24.42,-41.28l65.7 16.86zm-1.83 7.07l-65.78 -16.54 -0.01 0.04 0.15 -0.59 0.09 -0.36 0.16 -0.65 0.19 -0.74 0.08 -0.31 0.04 -0.14 0.15 -0.64 0.18 -0.71 0.14 -0.53 0.14 -0.53 0.07 -0.26 0.16 -0.61 0.13 -0.51 0.14 -0.51 0.14 -0.5 0.12 -0.44 65.38 18.06 -0.1 0.36 -0.08 0.3 -0.08 0.31 -0.09 0.31 -0.06 0.23 -0.15 0.6 -0.1 0.35 -0.08 0.35 -0.06 0.19 -0.07 0.3 -0.2 0.8 -0.16 0.63 -0.07 0.24 -0.08 0.35 -0.17 0.66 -0.11 0.45 -0.01 0.04zm0.01 -0.04c-4.54,18.17 -22.96,29.21 -41.13,24.67 -18.17,-4.54 -29.21,-22.96 -24.67,-41.13l65.8 16.46zm-1.7 6.78l-65.42 -17.88 -0.42 1.68 0.25 -1.11 0.29 -1.23 0.26 -1.03 0.22 -0.87 0.22 -0.86 0.18 -0.7 0.19 -0.74 0.14 -0.54 65.78 16.54 -0.22 0.88 -0.19 0.72 -0.2 0.8 -0.18 0.66 -0.16 0.67 -0.14 0.53 -0.07 0.33 -0.11 0.47 -0.42 1.68zm0.42 -1.68c-4,18.29 -22.1,29.87 -40.39,25.87 -18.29,-4 -29.87,-22.1 -25.87,-40.39l66.26 14.52zm-66.19 -14.92l0.35 -1.28 65.42 17.88 -0.35 1.28 -65.66 -16.95 0.24 -0.93zm65.42 17.88c-4.93,18.06 -23.59,28.7 -41.65,23.77 -18.06,-4.93 -28.7,-23.59 -23.77,-41.65l65.42 17.88zm-2.35 10.98l-66.08 -15.32 -0.33 1.59 0.16 -0.86 0.21 -1.08 0.18 -0.92 0.14 -0.69 0.19 -0.92 0.19 -0.92 0.2 -0.93 0.2 -0.92 0.2 -0.88 0.17 -0.73 0.21 -0.99 0.23 -0.93 0.16 -0.7 0.22 -0.95 0.23 -0.94 0.21 -0.84 65.9 16.02 -0.19 0.78 -0.15 0.66 -0.16 0.65 -0.2 0.88 -0.15 0.63 -0.13 0.57 -0.19 0.83 -0.14 0.66 -0.14 0.6 -0.12 0.59 -0.13 0.58 -0.11 0.58 -0.16 0.79 -0.12 0.56 -0.07 0.38 -0.1 0.58 -0.33 1.59zm0.33 -1.59c-3.35,18.42 -21.02,30.65 -39.44,27.3 -18.42,-3.35 -30.65,-21.02 -27.3,-39.44l66.74 12.14zm-33.37 -6.07l0 0 0 0 0 0 33.04 7.66 -33.04 -7.66zm33.37 6.07c-3.35,18.42 -21.02,30.65 -39.44,27.3 -18.42,-3.35 -30.65,-21.02 -27.3,-39.44l66.74 12.14zm-66.76 -12.22l0.35 -1.51 66.08 15.32 -0.35 1.51 -66.29 -14.34 0.21 -0.98zm66.08 15.32c-4.23,18.24 -22.46,29.61 -40.7,25.38 -18.24,-4.23 -29.61,-22.46 -25.38,-40.7l66.08 15.32zm-1.47 4.83l-67.82 0 0.46 -5.58 0.15 -0.92 0.18 -1.03 0.14 -0.78 0.14 -0.76 0.14 -0.82 0.18 -0.99 0.15 -0.79 0.15 -0.82 0.19 -0.98 0.15 -0.78 0.19 -0.99 0.16 -0.82 0.12 -0.6 0.19 -0.98 0.16 -0.77 0.15 -0.76 66.5 13.36 -0.15 0.78 -0.16 0.77 -0.11 0.56 -0.18 0.94 -0.16 0.74 -0.11 0.57 -0.15 0.78 -0.11 0.58 -0.13 0.74 -0.15 0.79 -0.1 0.57 -0.14 0.76 -0.14 0.82 -0.14 0.78 -0.1 0.55 -0.11 0.66 0.46 -5.58zm-0.46 5.58c-3.08,18.47 -20.56,30.95 -39.03,27.87 -18.47,-3.08 -30.95,-20.56 -27.87,-39.03l66.9 11.16zm-1.1 4.82l-64.7 -20.34 -1.56 10.17 0 -0.07 0 -0.16 67.82 0 0 0.16 0 0.07 -1.56 10.17zm1.56 -10.17c0,18.72 -15.19,33.91 -33.91,33.91 -18.72,0 -33.91,-15.19 -33.91,-33.91l67.82 0zm-33.91 0l0 0 0 0 0 0 32.35 10.17 -32.35 -10.17zm33.91 0c0,18.72 -15.19,33.91 -33.91,33.91 -18.72,0 -33.91,-15.19 -33.91,-33.91l67.82 0zm-66.37 -9.82l0.11 -0.35 64.7 20.34 -0.11 0.35 -65.76 -16.01 1.06 -4.33zm64.7 20.34c-5.61,17.86 -24.66,27.79 -42.52,22.18 -17.86,-5.61 -27.79,-24.66 -22.18,-42.52l64.7 20.34zm-3.89 30.95l-67.2 -9.18 -0.13 1.04 0.27 -2.49 0.27 -2.38 0.28 -2.43 0.3 -2.52 0.31 -2.43 0.32 -2.45 0.33 -2.44 0.33 -2.37 0.35 -2.44 0.37 -2.49 0.36 -2.36 0.37 -2.43 0.4 -2.44 0.38 -2.34 0.41 -2.41 0.41 -2.4 66.82 11.68 -0.37 2.12 -0.35 2.11 -0.36 2.18 -0.34 2.1 -0.33 2.13 -0.34 2.2 -0.31 2.07 -0.29 2.12 -0.31 2.21 -0.29 2.14 -0.28 2.15 -0.27 2.15 -0.26 2.08 -0.24 2.15 -0.25 2.22 -0.23 2.11 -0.13 1.04zm0.13 -1.04c-1.96,18.62 -18.66,32.14 -37.28,30.18 -18.62,-1.96 -32.14,-18.66 -30.18,-37.28l67.46 7.1zm-0.81 7.63l-67.46 -6.96 -0.05 0.46 0.05 -0.63 0.05 -0.44 0.01 -0.15 0.07 -0.86 0.09 -0.82 0.01 -0.14 0.04 -0.48 0.09 -0.79 0.05 -0.49 0.05 -0.51 0.09 -0.83 0.06 -0.48 0.05 -0.48 0.14 -1.17 0.07 -0.48 0.07 -0.52 67.2 9.18 -0.05 0.44 -0.07 0.48 0.02 -0.21 -0.05 0.48 -0.06 0.48 -0.01 0.13 -0.05 0.45 -0.05 0.49 -0.01 0.17 -0.04 0.48 -0.09 0.82 -0.01 0.14 -0.01 0.1 -0.07 0.83 -0.05 0.52 -0.03 0.33 -0.05 0.46zm0.05 -0.46c-1.66,18.65 -18.15,32.42 -36.8,30.76 -18.65,-1.66 -32.42,-18.15 -30.76,-36.8l67.56 6.04zm-1.67 22.02l-67.72 -3.64 -0.02 0.23 0.08 -1.49 0.07 -1.53 0.1 -1.66 0.09 -1.52 0.09 -1.43 0.1 -1.55 0.12 -1.67 0.11 -1.55 0.12 -1.56 0.13 -1.57 0.13 -1.57 0.14 -1.58 0.14 -1.58 0.16 -1.71 0.16 -1.58 0.16 -1.56 67.46 6.96 -0.14 1.42 -0.14 1.38 -0.12 1.25 -0.12 1.38 -0.12 1.36 -0.11 1.37 -0.11 1.35 -0.1 1.36 -0.11 1.35 -0.08 1.21 -0.08 1.33 -0.09 1.45 -0.09 1.32 -0.06 1.18 -0.07 1.31 -0.06 1.31 -0.02 0.23zm0.02 -0.23c-0.87,18.71 -16.76,33.16 -35.47,32.29 -18.71,-0.87 -33.16,-16.76 -32.29,-35.47l67.76 3.18zm-0.67 26.06l-67.82 0 0 0 0 -1.88 0.01 -1.88 0.01 -1.88 0.02 -1.96 0.03 -1.87 0.03 -1.75 0.03 -1.85 0.05 -1.94 0.05 -1.83 0.05 -1.83 0.07 -1.82 0.06 -1.79 0.08 -1.8 0.07 -1.79 0.09 -1.87 0.1 -1.73 67.72 3.64 -0.08 1.57 -0.07 1.45 -0.07 1.55 -0.06 1.58 -0.06 1.59 -0.05 1.6 -0.05 1.61 -0.05 1.63 -0.03 1.54 -0.03 1.65 -0.03 1.75 -0.03 1.67 -0.02 1.58 -0.01 1.68 -0.01 1.68 0 1.7 0 0zm0 0c0,18.72 -15.19,33.91 -33.91,33.91 -18.72,0 -33.91,-15.19 -33.91,-33.91l67.82 0zm1.03 32.1l-67.78 2.78 0.05 0.84 -0.14 -2.1 -0.13 -2.19 -0.12 -2.19 -0.11 -2.2 -0.09 -2.13 -0.09 -2.14 -0.09 -2.23 -0.08 -2.25 -0.06 -2.26 -0.05 -2.2 -0.06 -2.29 -0.03 -2.31 -0.03 -2.24 -0.02 -2.26 -0.02 -2.36 0 -2.37 67.82 0 0 2.07 0.02 2.04 0.02 2.1 0.03 2.08 0.03 1.97 0.04 1.97 0.05 2.02 0.06 1.92 0.06 1.91 0.07 1.89 0.09 1.96 0.09 1.93 0.09 1.86 0.1 1.83 0.11 1.83 0.12 1.88 0.05 0.84zm-0.05 -0.84c1.23,18.68 -12.93,34.84 -31.61,36.07 -18.68,1.23 -34.84,-12.93 -36.07,-31.61l67.68 -4.46zm0.56 8.06l-67.64 4.92 0.02 0.32 -0.03 -0.4 -0.05 -0.53 -0.07 -0.84 -0.04 -0.53 -0.01 -0.18 -0.05 -0.54 -0.07 -0.85 -0.06 -0.82 -0.03 -0.5 -0.04 -0.51 -0.03 -0.52 -0.04 -0.51 -0.06 -1.18 -0.02 -0.47 -0.03 -0.5 -0.04 -0.8 67.78 -2.78 0 0.22 0.03 0.5 0.02 0.55 0 -0.14 0.04 0.51 0.03 0.52 0.04 0.51 0.03 0.54 0.02 0.22 0.01 0.21 0.05 0.5 0.07 0.86 0.04 0.53 0.01 0.2 0.05 0.53 0.05 0.64 0.02 0.32zm-0.02 -0.32c1.53,18.66 -12.36,35.05 -31.02,36.58 -18.66,1.53 -35.05,-12.36 -36.58,-31.02l67.6 -5.56zm0.34 4.37l-67.58 5.68 -0.02 -0.15 -0.03 -0.53 -0.05 -0.54 -0.04 -0.5 -0.05 -0.54 -0.04 -0.57 -0.05 -0.58 -0.07 -0.88 -0.03 -0.52 67.64 -4.92 0.05 0.6 0.01 0.24 0.05 0.52 0.04 0.53 0.05 0.54 0.04 0.6 0.05 0.58 0.05 0.59 -0.02 -0.15zm0.02 0.15c1.48,18.67 -12.45,35.02 -31.12,36.5 -18.67,1.48 -35.02,-12.45 -36.5,-31.12l67.62 -5.38zm2.43 24.75l-67.82 0 0.31 4.58 -0.21 -1.58 -0.2 -1.53 -0.21 -1.64 -0.2 -1.65 -0.17 -1.5 -0.17 -1.5 -0.17 -1.6 -0.15 -1.5 -0.15 -1.48 -0.14 -1.46 -0.13 -1.34 -0.14 -1.45 -0.13 -1.43 -0.12 -1.42 -0.12 -1.41 -0.11 -1.31 67.58 -5.68 0.11 1.29 0.1 1.21 0.12 1.22 0.11 1.25 0.12 1.25 0.13 1.38 0.12 1.28 0.13 1.28 0.13 1.28 0.13 1.18 0.15 1.32 0.15 1.32 0.14 1.21 0.15 1.2 0.18 1.35 0.17 1.3 0.31 4.58zm-0.31 -4.58c2.52,18.55 -10.47,35.66 -29.02,38.18 -18.55,2.52 -35.66,-10.47 -38.18,-29.02l67.2 -9.16zm0.15 1.27l-67.26 8.72 1.55 6.64 -0.71 -2.31 -0.58 -2.55 -0.24 -1.37 -0.32 -2.75 -0.1 -2.17 0 -0.9 67.82 0 0 -0.38 -0.08 -1.63 -0.28 -2.49 -0.2 -1.11 -0.52 -2.29 -0.63 -2.05 1.55 6.64zm-1.55 -6.64c6.07,17.71 -3.37,37.01 -21.08,43.08 -17.71,6.07 -37.01,-3.37 -43.08,-21.08l64.16 -22zm8.24 49.63l-67.82 0 0.71 6.93 -0.51 -2.49 -0.5 -2.5 -0.49 -2.52 -0.48 -2.52 -0.47 -2.62 -0.44 -2.48 -0.45 -2.57 -0.43 -2.57 -0.43 -2.59 -0.4 -2.6 -0.41 -2.62 -0.38 -2.62 -0.37 -2.55 -0.37 -2.65 -0.36 -2.65 -0.35 -2.65 67.26 -8.72 0.31 2.37 0.32 2.35 0.33 2.33 0.35 2.39 0.34 2.32 0.35 2.28 0.36 2.28 0.37 2.25 0.37 2.25 0.39 2.23 0.4 2.28 0.39 2.12 0.42 2.18 0.41 2.16 0.44 2.14 0.43 2.13 0.71 6.93zm-0.71 -6.93c3.82,18.33 -7.94,36.31 -26.27,40.13 -18.33,3.82 -36.31,-7.94 -40.13,-26.27l66.4 -13.86zm-67.11 8.56l0 -1.63 67.82 0 0 1.63 -57.89 23.98 -9.93 -23.98zm67.82 0c0,18.72 -15.19,33.91 -33.91,33.91 -18.72,0 -33.91,-15.19 -33.91,-33.91l67.82 0zm-57.42 24.45l-0.47 -0.47 47.96 -47.96 0.47 0.47 9.24 17.16 -57.2 30.8zm47.96 -47.96c13.24,13.24 13.24,34.72 0,47.96 -13.24,13.24 -34.72,13.24 -47.96,0l47.96 -47.96zm19.28 57.19l-65.04 19.24 -0.01 -0.03 -0.82 -2.82 -0.82 -2.85 -0.8 -2.84 -0.79 -2.87 -0.77 -2.85 -0.74 -2.79 -0.74 -2.85 -0.73 -2.86 -0.71 -2.85 -0.71 -2.91 -0.67 -2.86 -0.65 -2.84 -0.64 -2.85 -0.63 -2.85 -0.61 -2.84 -0.6 -2.87 66.44 -13.64 0.52 2.47 0.53 2.5 0.55 2.51 0.56 2.49 0.59 2.52 0.59 2.5 0.59 2.45 0.63 2.51 0.63 2.5 0.66 2.51 0.68 2.57 0.67 2.51 0.69 2.49 0.7 2.5 0.72 2.51 0.74 2.52 -0.01 -0.03zm0.01 0.03c5.29,17.96 -4.98,36.83 -22.94,42.12 -17.96,5.29 -36.83,-4.98 -42.12,-22.94l65.06 -19.18zm32.32 81.9l-60.86 29.94 0.12 0.24 -1.39 -2.78 -1.39 -2.84 -1.36 -2.82 -1.33 -2.78 -1.31 -2.77 -1.34 -2.9 -1.3 -2.85 -1.26 -2.8 -1.29 -2.9 -1.25 -2.87 -1.23 -2.87 -1.22 -2.89 -1.19 -2.86 -1.18 -2.87 -1.19 -2.93 -1.15 -2.92 -1.12 -2.86 -1.13 -2.91 -1.13 -2.99 -1.08 -2.93 -1.05 -2.88 -1.07 -2.95 -1.05 -2.97 -1.02 -2.94 -1.01 -2.97 -0.99 -2.97 -0.97 -2.94 -0.98 -3.02 -0.91 -2.92 -0.94 -2.98 -0.92 -3.03 -0.88 -2.96 65.04 -19.24 0.8 2.66 0.78 2.59 0.82 2.62 0.85 2.68 0.82 2.56 0.87 2.64 0.87 2.61 0.89 2.59 0.9 2.6 0.91 2.57 0.93 2.59 0.97 2.64 0.96 2.59 0.95 2.51 0.99 2.57 1.02 2.62 1.01 2.54 1.01 2.51 1.06 2.57 1.07 2.58 1.06 2.51 1.09 2.53 1.09 2.51 1.09 2.46 1.16 2.56 1.12 2.49 1.14 2.42 1.19 2.53 1.19 2.52 1.18 2.44 1.19 2.42 1.23 2.46 0.12 0.24zm-0.12 -0.24c8.4,16.73 1.63,37.12 -15.1,45.52 -16.73,8.4 -37.12,1.63 -45.52,-15.1l60.62 -30.42zm48.28 78.53l-54.26 40.7 -0.02 -0.03 -1.97 -2.65 -1.95 -2.65 -1.92 -2.65 -1.93 -2.67 -1.92 -2.71 -1.85 -2.64 -1.91 -2.74 -1.85 -2.73 -1.85 -2.72 -1.82 -2.74 -1.78 -2.7 -1.82 -2.78 -1.77 -2.76 -1.77 -2.79 -1.72 -2.75 -1.72 -2.76 -1.73 -2.83 -1.69 -2.81 -1.64 -2.77 -1.66 -2.81 -1.67 -2.87 -1.61 -2.83 -1.59 -2.81 -1.58 -2.84 -1.58 -2.88 -1.53 -2.83 -1.55 -2.88 -1.51 -2.89 -1.48 -2.86 -1.46 -2.85 -1.47 -2.91 -1.44 -2.91 60.86 -29.94 1.24 2.51 1.27 2.51 1.3 2.55 1.32 2.54 1.31 2.49 1.33 2.5 1.37 2.53 1.36 2.48 1.4 2.5 1.41 2.51 1.43 2.49 1.41 2.45 1.46 2.47 1.5 2.51 1.49 2.47 1.47 2.41 1.54 2.48 1.54 2.47 1.55 2.43 1.57 2.44 1.54 2.38 1.64 2.46 1.6 2.42 1.63 2.4 1.63 2.39 1.63 2.34 1.71 2.44 1.66 2.35 1.69 2.35 1.72 2.37 1.73 2.35 1.73 2.33 -0.02 -0.03zm0.02 0.03c11.22,14.99 8.16,36.25 -6.83,47.47 -14.99,11.22 -36.25,8.16 -47.47,-6.83l54.3 -40.64zm-27.15 20.32l0 0 0 0 0 0 27.13 -20.35 -27.13 20.35zm27.15 -20.32c11.22,14.99 8.16,36.25 -6.83,47.47 -14.99,11.22 -36.25,8.16 -47.47,-6.83l54.3 -40.64zm-53.23 42.07l-1.05 -1.4 54.26 -40.7 1.05 1.4 -54.24 40.72 -0.02 -0.02zm54.26 -40.7c11.23,14.98 8.2,36.25 -6.78,47.48 -14.98,11.23 -36.25,8.2 -47.48,-6.78l54.26 -40.7zm101.11 100.98l-40.82 54.16 0.04 0.03 -4.05 -3.06 -4.05 -3.13 -3.97 -3.13 -3.95 -3.15 -3.97 -3.23 -3.91 -3.25 -3.84 -3.24 -3.88 -3.33 -3.81 -3.34 -3.78 -3.36 -3.78 -3.43 -3.73 -3.44 -3.68 -3.46 -3.67 -3.5 -3.64 -3.54 -3.61 -3.57 -3.58 -3.61 -3.54 -3.62 -3.49 -3.65 -3.48 -3.69 -3.47 -3.75 -3.41 -3.75 -3.38 -3.8 -3.33 -3.8 -3.32 -3.85 -3.27 -3.87 -3.27 -3.92 -3.21 -3.95 -3.16 -3.95 -3.14 -3.97 -3.13 -4.04 -3.07 -4.07 54.22 -40.74 2.71 3.57 2.73 3.52 2.78 3.55 2.82 3.51 2.83 3.47 2.85 3.44 2.89 3.41 2.92 3.39 2.97 3.38 2.98 3.34 3.01 3.31 3.01 3.27 3.08 3.25 3.11 3.25 3.12 3.2 3.14 3.17 3.19 3.15 3.2 3.12 3.23 3.08 3.28 3.08 3.29 3.04 3.3 2.99 3.36 2.98 3.37 2.96 3.38 2.89 3.46 2.92 3.45 2.87 3.45 2.81 3.51 2.81 3.55 2.79 3.53 2.73 3.59 2.72 0.04 0.03zm-0.04 -0.03c14.97,11.25 17.99,32.51 6.74,47.48 -11.25,14.97 -32.51,17.99 -47.48,6.74l40.74 -54.22zm203.13 91.79l-13.6 66.46 0.03 0 -7.78 -1.64 -7.72 -1.75 -7.72 -1.86 -7.71 -1.98 -7.65 -2.07 -7.64 -2.2 -7.61 -2.29 -7.56 -2.4 -7.56 -2.5 -7.52 -2.62 -7.47 -2.71 -7.45 -2.82 -7.41 -2.94 -7.34 -3.02 -7.33 -3.12 -7.29 -3.24 -7.24 -3.33 -7.18 -3.43 -7.14 -3.52 -7.1 -3.63 -7.06 -3.73 -7.01 -3.83 -6.94 -3.91 -6.88 -4.01 -6.85 -4.12 -6.78 -4.2 -6.72 -4.3 -6.66 -4.4 -6.59 -4.48 -6.53 -4.57 -6.49 -4.67 -6.41 -4.77 40.82 -54.16 5.65 4.19 5.69 4.11 5.77 4.03 5.83 3.96 5.88 3.88 5.92 3.78 5.98 3.72 6.03 3.62 6.1 3.55 6.12 3.47 6.17 3.37 6.22 3.29 6.26 3.19 6.32 3.12 6.36 3.03 6.4 2.95 6.41 2.84 6.47 2.76 6.52 2.68 6.53 2.58 6.55 2.48 6.61 2.41 6.6 2.3 6.64 2.2 6.7 2.12 6.71 2.03 6.72 1.92 6.75 1.83 6.75 1.74 6.78 1.62 6.82 1.55 6.8 1.44 0.03 0zm-0.03 0c18.35,3.73 30.19,21.65 26.46,40 -3.73,18.35 -21.65,30.19 -40,26.46l13.54 -66.46zm101.63 10.29l0 67.82 0 0 -3.62 -0.01 -3.68 -0.03 -3.61 -0.06 -3.62 -0.08 -3.67 -0.1 -3.63 -0.13 -3.67 -0.15 -3.61 -0.18 -3.61 -0.19 -3.66 -0.23 -3.57 -0.24 -3.61 -0.25 -3.7 -0.29 -3.61 -0.32 -3.55 -0.33 -3.65 -0.35 -3.63 -0.39 -3.56 -0.39 -3.58 -0.42 -3.63 -0.45 -3.59 -0.46 -3.57 -0.49 -3.63 -0.52 -3.56 -0.54 -3.5 -0.54 -3.61 -0.58 -3.57 -0.61 -3.54 -0.61 -3.59 -0.66 -3.49 -0.66 -3.52 -0.68 -3.56 -0.71 13.6 -66.46 3.08 0.63 3.12 0.6 3.17 0.6 3.09 0.56 3.14 0.55 3.13 0.53 3.11 0.5 3.22 0.5 3.16 0.48 3.11 0.44 3.17 0.43 3.17 0.42 3.15 0.39 3.18 0.36 3.24 0.37 3.15 0.33 3.15 0.31 3.25 0.29 3.21 0.28 3.1 0.25 3.21 0.23 3.27 0.22 3.16 0.19 3.23 0.17 3.21 0.16 3.17 0.13 3.23 0.11 3.17 0.1 3.22 0.06 3.23 0.06 3.18 0.03 3.22 0.01 0 0zm0 0c18.72,0 33.91,15.19 33.91,33.91 0,18.72 -15.19,33.91 -33.91,33.91l0 -67.82zm76.56 -60.91l65.8 16.46 0.09 -0.38 -1.58 6.11 -1.86 6.05 -2.08 5.89 -2.31 5.75 -2.55 5.66 -2.77 5.49 -2.97 5.35 -3.2 5.22 -3.4 5.05 -3.59 4.9 -3.78 4.72 -3.96 4.55 -4.14 4.38 -4.31 4.2 -4.49 4.02 -4.62 3.82 -4.83 3.66 -4.95 3.43 -5.04 3.2 -5.22 3.03 -5.35 2.81 -5.49 2.59 -5.59 2.37 -5.67 2.13 -5.79 1.89 -5.9 1.67 -6 1.43 -6.06 1.17 -6.14 0.92 -6.22 0.66 -6.28 0.4 -6.31 0.13 0 -67.82 3.45 -0.07 3.38 -0.22 3.34 -0.36 3.32 -0.5 3.26 -0.63 3.2 -0.75 3.14 -0.89 3.11 -1.03 3.07 -1.15 2.99 -1.25 2.91 -1.39 2.85 -1.49 2.78 -1.61 2.76 -1.76 2.65 -1.83 2.53 -1.92 2.5 -2.06 2.39 -2.14 2.31 -2.26 2.22 -2.34 2.12 -2.45 2.04 -2.54 1.91 -2.6 1.82 -2.71 1.7 -2.78 1.61 -2.89 1.49 -2.97 1.37 -3.02 1.25 -3.13 1.14 -3.19 0.98 -3.23 0.88 -3.37 0.09 -0.38zm-0.09 0.38c4.33,-18.21 22.63,-29.47 40.84,-25.14 18.21,4.33 29.47,22.63 25.14,40.84l-65.98 -15.7zm2.23 -18.29l67.82 0 0 0 0 1.03 -0.01 1.24 -0.03 1.03 -0.02 1.04 -0.04 1.05 -0.04 1.03 -0.06 1.24 -0.06 1.04 -0.06 1.03 -0.07 1.02 -0.08 1.04 -0.11 1.23 -0.09 1.03 -0.1 1.03 -0.14 1.23 -0.13 1.05 -0.12 1.04 -0.14 1.02 -0.13 0.99 -0.19 1.25 -0.16 1.04 -0.17 1.02 -0.17 1.01 -0.18 1.04 -0.23 1.2 -0.2 1.01 -0.21 1.04 -0.25 1.2 -0.23 1.04 -0.24 1.03 -0.24 0.99 -0.26 1.09 -65.8 -16.46 0.12 -0.49 0.14 -0.59 0.12 -0.55 0.13 -0.56 0.09 -0.4 0.11 -0.56 0.12 -0.61 0.07 -0.4 0.1 -0.58 0.11 -0.61 0.09 -0.6 0.1 -0.58 0.05 -0.39 0.09 -0.65 0.08 -0.6 0.08 -0.6 0.07 -0.59 0.04 -0.43 0.06 -0.61 0.07 -0.63 0.03 -0.41 0.04 -0.62 0.05 -0.64 0.04 -0.61 0.04 -0.62 0.02 -0.42 0.02 -0.63 0.02 -0.61 0.02 -0.64 0.01 -0.63 0.01 -0.42 0 -0.63 0 0zm0 0c0,-18.72 15.19,-33.91 33.91,-33.91 18.72,0 33.91,15.19 33.91,33.91l-67.82 0zm67.82 -125.32l0 125.32 -67.82 0 0 -125.32 0 0 67.82 0zm-67.82 0c0,-18.72 15.19,-33.91 33.91,-33.91 18.72,0 33.91,15.19 33.91,33.91l-67.82 0zm28.43 28.42l0 -67.82 0 0 2.09 0.05 1.49 0.11 2.14 0.25 2.28 0.4 2.19 0.52 1.41 0.42 1.78 0.58 2.11 0.84 1.54 0.7 1.77 0.9 1.67 0.96 1.7 1.1 1.25 0.88 1.33 1.03 1.94 1.67 1.49 1.45 0.83 0.87 1.38 1.59 1.21 1.54 0.97 1.37 1.2 1.87 0.99 1.75 0.76 1.52 0.7 1.53 0.84 2.12 0.58 1.77 0.46 1.58 0.48 2.03 0.4 2.28 0.25 2.14 0.11 1.49 0.05 2.09 -67.82 0 0.03 1.53 0.07 0.93 0.19 1.58 0.3 1.74 0.36 1.51 0.3 1.04 0.42 1.27 0.64 1.62 0.48 1.05 0.52 1.04 0.73 1.29 0.92 1.43 0.65 0.93 0.89 1.12 1.04 1.21 0.47 0.49 1.11 1.07 1.54 1.33 0.91 0.71 0.83 0.58 1.24 0.8 1.21 0.7 1.31 0.66 1.04 0.48 1.63 0.64 1.26 0.42 0.89 0.26 1.67 0.4 1.74 0.3 1.58 0.19 0.93 0.07 1.53 0.03 0 0zm0 0c-18.72,0 -33.91,-15.19 -33.91,-33.91 0,-18.72 15.19,-33.91 33.91,-33.91l0 67.82zm-0.94 -67.82l0.94 0 0 67.82 -0.94 0 -11.95 -65.65 11.95 -2.17zm0 67.82c-18.72,0 -33.91,-15.19 -33.91,-33.91 0,-18.72 15.19,-33.91 33.91,-33.91l0 67.82zm-12.88 -65.3l0.93 -0.35 23.9 63.48 -0.93 0.35 -0.6 0.22 -23.3 -63.7zm23.9 63.48c-17.52,6.59 -37.1,-2.27 -43.69,-19.79 -6.59,-17.52 2.27,-37.1 19.79,-43.69l23.9 63.48zm-117.21 20.26l0 -67.82 0 0 3.03 -0.02 3.02 -0.05 3.01 -0.08 3.02 -0.1 2.95 -0.15 3 -0.17 3.01 -0.21 2.98 -0.24 3.04 -0.27 2.93 -0.29 2.97 -0.34 2.96 -0.36 2.92 -0.4 3 -0.43 2.94 -0.45 2.96 -0.5 2.94 -0.51 2.91 -0.56 2.93 -0.58 2.87 -0.6 2.91 -0.65 2.95 -0.69 2.92 -0.71 2.82 -0.72 2.89 -0.78 2.93 -0.82 2.87 -0.82 2.81 -0.85 2.86 -0.91 2.9 -0.94 2.83 -0.95 2.83 -0.99 22.7 63.92 -3.53 1.23 -3.53 1.19 -3.5 1.14 -3.54 1.11 -3.61 1.09 -3.57 1.04 -3.53 0.98 -3.57 0.96 -3.66 0.94 -3.6 0.87 -3.55 0.83 -3.63 0.81 -3.67 0.78 -3.63 0.72 -3.65 0.68 -3.66 0.65 -3.64 0.6 -3.66 0.57 -3.62 0.53 -3.72 0.5 -3.68 0.44 -3.69 0.42 -3.75 0.37 -3.64 0.33 -3.7 0.3 -3.71 0.25 -3.7 0.23 -3.77 0.17 -3.72 0.14 -3.73 0.1 -3.72 0.05 -3.73 0.02 0 0zm0 0c-18.72,0 -33.91,-15.19 -33.91,-33.91 0,-18.72 15.19,-33.91 33.91,-33.91l0 67.82zm-116.82 -20.15l22.68 -63.92 0.11 0.04 2.82 0.99 2.83 0.96 2.85 0.94 2.87 0.9 2.84 0.87 2.88 0.84 2.89 0.81 2.89 0.78 2.89 0.75 2.85 0.7 2.91 0.68 2.92 0.65 2.92 0.61 2.94 0.59 2.93 0.55 2.94 0.53 2.96 0.49 2.96 0.47 2.91 0.42 2.97 0.39 2.98 0.37 2.98 0.33 2.99 0.3 3 0.27 3 0.24 3 0.21 3.02 0.17 2.97 0.15 3.02 0.1 3.03 0.08 3.03 0.05 3.04 0.02 0 67.82 -3.74 -0.02 -3.73 -0.05 -3.73 -0.1 -3.74 -0.14 -3.77 -0.17 -3.72 -0.23 -3.72 -0.25 -3.7 -0.3 -3.7 -0.33 -3.71 -0.38 -3.7 -0.41 -3.68 -0.45 -3.69 -0.49 -3.73 -0.54 -3.66 -0.57 -3.66 -0.61 -3.66 -0.65 -3.65 -0.69 -3.64 -0.73 -3.64 -0.77 -3.62 -0.81 -3.61 -0.84 -3.67 -0.9 -3.59 -0.93 -3.59 -0.96 -3.57 -1.01 -3.58 -1.04 -3.58 -1.09 -3.53 -1.12 -3.55 -1.16 -3.53 -1.2 -3.54 -1.25 0.11 0.04zm-0.11 -0.04c-17.62,-6.32 -26.79,-25.75 -20.47,-43.37 6.32,-17.62 25.75,-26.79 43.37,-20.47l-22.9 63.84zm-188.97 -159.68l59.16 -33.18 -0.01 -0.02 3.23 5.62 3.34 5.5 3.47 5.44 3.58 5.33 3.69 5.26 3.82 5.17 3.9 5.07 4.01 4.96 4.12 4.88 4.22 4.77 4.33 4.68 4.42 4.57 4.52 4.47 4.63 4.38 4.71 4.26 4.79 4.14 4.89 4.04 5 3.94 5.05 3.82 5.15 3.69 5.25 3.6 5.32 3.48 5.38 3.35 5.48 3.23 5.54 3.12 5.6 2.97 5.72 2.88 5.74 2.73 5.84 2.61 5.89 2.48 5.95 2.34 6.03 2.22 -22.68 63.92 -7.47 -2.74 -7.41 -2.92 -7.31 -3.08 -7.24 -3.23 -7.16 -3.41 -7.04 -3.54 -6.98 -3.71 -6.88 -3.86 -6.78 -4.01 -6.7 -4.17 -6.58 -4.3 -6.47 -4.44 -6.39 -4.59 -6.29 -4.74 -6.16 -4.86 -6.07 -5.02 -5.95 -5.14 -5.83 -5.28 -5.71 -5.4 -5.6 -5.53 -5.48 -5.67 -5.35 -5.78 -5.22 -5.91 -5.1 -6.02 -4.97 -6.16 -4.84 -6.27 -4.68 -6.37 -4.57 -6.48 -4.42 -6.61 -4.29 -6.72 -4.14 -6.82 -3.99 -6.92 -0.01 -0.02zm0.01 0.02c-9.17,-16.33 -3.37,-37.01 12.96,-46.18 16.33,-9.17 37.01,-3.37 46.18,12.96l-59.14 33.22zm-24.22 -53.28l63.7 -23.3 0.09 0.26 0.51 1.4 0.5 1.38 0.51 1.38 0.55 1.44 0.54 1.43 0.52 1.33 0.53 1.33 0.54 1.37 0.6 1.45 0.54 1.33 0.56 1.32 0.62 1.44 0.6 1.41 0.57 1.31 0.59 1.31 0.62 1.39 0.62 1.34 0.6 1.3 0.65 1.38 0.67 1.42 0.62 1.29 0.61 1.25 0.7 1.39 0.64 1.29 0.66 1.27 0.76 1.48 0.63 1.22 0.67 1.26 0.7 1.3 0.73 1.34 0.72 1.33 0.7 1.24 -59.16 33.18 -0.92 -1.66 -0.86 -1.57 -0.87 -1.58 -0.86 -1.62 -0.89 -1.66 -0.89 -1.72 -0.76 -1.48 -0.86 -1.67 -0.84 -1.69 -0.78 -1.57 -0.85 -1.73 -0.82 -1.71 -0.75 -1.58 -0.77 -1.62 -0.8 -1.72 -0.76 -1.68 -0.74 -1.63 -0.77 -1.73 -0.75 -1.73 -0.72 -1.65 -0.68 -1.62 -0.74 -1.74 -0.72 -1.75 -0.66 -1.63 -0.7 -1.71 -0.69 -1.75 -0.68 -1.77 -0.64 -1.67 -0.63 -1.68 -0.65 -1.74 -0.64 -1.74 -0.61 -1.72 0.09 0.26zm-0.09 -0.26c-6.29,-17.63 2.92,-37.04 20.55,-43.33 17.63,-6.29 37.04,2.92 43.33,20.55l-63.88 22.78zm62.51 -26.54l1.28 3.5 -63.7 23.3 -1.28 -3.5 -0.24 -0.69 63.94 -22.61zm-63.7 23.3c-6.43,-17.59 2.61,-37.07 20.2,-43.5 17.59,-6.43 37.07,2.61 43.5,20.2l-63.7 23.3zm31.85 -11.65l0 0 0 0 0 0 -32.09 10.96 32.09 -10.96zm-31.85 11.65c-6.43,-17.59 2.61,-37.07 20.2,-43.5 17.59,-6.43 37.07,2.61 43.5,20.2l-63.7 23.3zm-18.98 -113.64l67.82 0 0 0 0.02 2.91 0.05 2.94 0.07 2.91 0.1 2.88 0.14 2.95 0.16 2.88 0.19 2.88 0.23 2.93 0.25 2.87 0.28 2.86 0.32 2.92 0.33 2.84 0.38 2.9 0.39 2.84 0.44 2.83 0.46 2.89 0.48 2.83 0.53 2.87 0.55 2.86 0.56 2.8 0.6 2.8 0.63 2.8 0.68 2.84 0.69 2.83 0.71 2.76 0.76 2.82 0.77 2.75 0.82 2.81 0.84 2.79 0.84 2.68 0.91 2.79 0.92 2.77 -64.18 21.92 -1.14 -3.39 -1.11 -3.39 -1.1 -3.5 -1.02 -3.43 -1 -3.41 -0.97 -3.49 -0.92 -3.44 -0.91 -3.5 -0.85 -3.47 -0.82 -3.46 -0.79 -3.52 -0.76 -3.52 -0.72 -3.54 -0.67 -3.5 -0.63 -3.51 -0.62 -3.55 -0.56 -3.51 -0.54 -3.57 -0.49 -3.58 -0.46 -3.52 -0.43 -3.6 -0.38 -3.54 -0.36 -3.6 -0.31 -3.61 -0.27 -3.55 -0.25 -3.6 -0.2 -3.62 -0.16 -3.57 -0.14 -3.62 -0.09 -3.63 -0.05 -3.58 -0.02 -3.63 0 0zm0 0c0,-18.72 15.19,-33.91 33.91,-33.91 18.72,0 33.91,15.19 33.91,33.91l-67.82 0zm18.2 -105.48l67.82 0 -1.99 11.45 -0.99 2.82 -0.96 2.83 -0.94 2.85 -0.9 2.87 -0.87 2.84 -0.84 2.88 -0.81 2.89 -0.78 2.89 -0.75 2.89 -0.7 2.85 -0.68 2.91 -0.65 2.92 -0.61 2.92 -0.59 2.94 -0.55 2.93 -0.53 2.94 -0.49 2.96 -0.47 2.96 -0.42 2.91 -0.39 2.97 -0.37 2.98 -0.33 2.98 -0.3 2.99 -0.27 3 -0.24 3 -0.21 3 -0.17 3.02 -0.15 2.97 -0.1 3.02 -0.08 3.03 -0.05 3.03 -0.02 3.04 -67.82 0 0.02 -3.74 0.05 -3.73 0.1 -3.73 0.14 -3.74 0.17 -3.77 0.23 -3.72 0.25 -3.72 0.3 -3.7 0.33 -3.7 0.38 -3.71 0.41 -3.7 0.45 -3.68 0.49 -3.69 0.54 -3.73 0.57 -3.66 0.61 -3.66 0.65 -3.66 0.69 -3.65 0.73 -3.64 0.77 -3.64 0.81 -3.62 0.84 -3.61 0.9 -3.67 0.93 -3.59 0.96 -3.59 1.01 -3.57 1.04 -3.58 1.09 -3.58 1.12 -3.53 1.16 -3.55 1.2 -3.53 1.25 -3.54 -1.99 11.45zm1.99 -11.45c6.32,-17.62 25.75,-26.79 43.37,-20.47 17.62,6.32 26.79,25.75 20.47,43.37l-63.84 -22.9zm65.83 11.33l0 0.12 -67.82 0 0 -0.12 3.45 -14.91 64.37 14.91zm-67.82 0c0,-18.72 15.19,-33.91 33.91,-33.91 18.72,0 33.91,15.19 33.91,33.91l-67.82 0zm64.6 14.44l-0.23 0.47 -60.92 -29.82 0.23 -0.47 64.37 14.91 -3.45 14.91zm-60.92 -29.82c8.23,-16.82 28.55,-23.78 45.37,-15.55 16.82,8.23 23.78,28.55 15.55,45.37l-60.92 -29.82zm64.37 14.68l0 0.23 -67.82 0 0 -0.23 1.76 -10.79 66.06 10.79zm-67.82 0c0,-18.72 15.19,-33.91 33.91,-33.91 18.72,0 33.91,15.19 33.91,33.91l-67.82 0zm66.53 9.39l-0.47 1.4 -64.3 -21.58 0.47 -1.4 66.06 10.79 -1.76 10.79zm-64.3 -21.58c5.95,-17.75 25.19,-27.31 42.94,-21.36 17.75,5.95 27.31,25.19 21.36,42.94l-64.3 -21.58zm32.15 10.79l0 0 0 0 0 0 -33.91 0 33.91 0zm-32.15 -10.79c5.95,-17.75 25.19,-27.31 42.94,-21.36 17.75,5.95 27.31,25.19 21.36,42.94l-64.3 -21.58zm66.06 10.68l0 0.11 -67.82 0 0 -0.11 1.86 -11.08 65.96 11.08zm-67.82 0c0,-18.72 15.19,-33.91 33.91,-33.91 18.72,0 33.91,15.19 33.91,33.91l-67.82 0zm66.89 8.39l-0.93 2.69 -64.1 -22.16 0.93 -2.69 0.31 -0.87 63.79 23.03zm-64.1 -22.16c6.11,-17.7 25.43,-27.08 43.13,-20.97 17.7,6.11 27.08,25.43 20.97,43.13l-64.1 -22.16zm2.51 -6.53l63.06 24.96 -0.37 0.9 -0.09 0.22 -0.04 0.09 -0.21 0.54 -0.18 0.46 -0.1 0.26 -0.23 0.62 -0.29 0.78 -0.27 0.73 -63.48 -23.9 0.25 -0.65 0.21 -0.56 0.25 -0.68 0.38 -1.02 0.32 -0.8 0.27 -0.7 0.46 -1.15 0.43 -1 -0.37 0.9zm0.37 -0.9c7.38,-17.2 27.34,-25.16 44.54,-17.78 17.2,7.38 25.16,27.34 17.78,44.54l-62.32 -26.76zm9.93 -22.57l61.12 29.42 -0.22 0.44 -0.52 1.05 -0.53 1.09 -0.48 1 -0.51 1.11 -0.55 1.17 -0.48 1.07 -0.52 1.18 -0.5 1.14 -0.52 1.2 -0.51 1.18 -0.5 1.17 -0.5 1.21 -0.5 1.22 -0.49 1.22 -0.52 1.3 -0.51 1.26 -63.06 -24.96 0.59 -1.5 0.58 -1.44 0.61 -1.5 0.62 -1.5 0.62 -1.49 0.64 -1.53 0.63 -1.48 0.64 -1.48 0.66 -1.5 0.66 -1.46 0.7 -1.55 0.67 -1.45 0.69 -1.49 0.76 -1.58 0.71 -1.47 0.74 -1.49 -0.22 0.44zm0.22 -0.44c8.36,-16.75 28.74,-23.55 45.49,-15.19 16.75,8.36 23.55,28.74 15.19,45.49l-60.68 -30.3zm198.71 -178.32l22.68 63.92 0.03 -0.01 -6.48 2.4 -6.41 2.56 -6.37 2.72 -6.28 2.87 -6.2 3.03 -6.12 3.18 -6.06 3.33 -5.98 3.48 -5.88 3.62 -5.79 3.76 -5.7 3.9 -5.61 4.04 -5.53 4.18 -5.41 4.3 -5.3 4.42 -5.2 4.57 -5.09 4.68 -4.97 4.8 -4.86 4.93 -4.74 5.03 -4.62 5.16 -4.51 5.26 -4.36 5.36 -4.23 5.47 -4.1 5.58 -3.96 5.65 -3.82 5.78 -3.68 5.86 -3.54 5.97 -3.4 6.04 -3.23 6.11 -3.09 6.23 -61.12 -29.42 3.85 -7.73 4.03 -7.65 4.22 -7.5 4.38 -7.39 4.58 -7.28 4.74 -7.16 4.92 -7.05 5.08 -6.9 5.25 -6.77 5.4 -6.64 5.55 -6.5 5.7 -6.36 5.86 -6.23 6 -6.07 6.15 -5.94 6.29 -5.78 6.42 -5.63 6.56 -5.48 6.69 -5.32 6.79 -5.14 6.93 -5 7.06 -4.82 7.17 -4.66 7.3 -4.48 7.38 -4.3 7.5 -4.13 7.6 -3.94 7.72 -3.77 7.82 -3.57 7.87 -3.38 8.01 -3.2 8.08 -2.98 0.03 -0.01zm-0.03 0.01c17.64,-6.27 37.05,2.94 43.32,20.58 6.27,17.64 -2.94,37.05 -20.58,43.32l-22.74 -63.9zm106 -19.9l2.58 67.78 -0.32 0.01 -2.76 0.09 -2.67 0.11 -2.73 0.16 -2.77 0.17 -2.72 0.19 -2.71 0.23 -2.66 0.24 -2.71 0.29 -2.77 0.3 -2.7 0.33 -2.69 0.36 -2.69 0.38 -2.7 0.41 -2.68 0.44 -2.75 0.47 -2.67 0.48 -2.61 0.51 -2.67 0.54 -2.72 0.58 -2.66 0.59 -2.64 0.62 -2.69 0.65 -2.6 0.65 -2.63 0.71 -2.69 0.73 -2.61 0.75 -2.61 0.77 -2.66 0.82 -2.61 0.82 -2.54 0.83 -2.63 0.9 -2.6 0.9 -22.68 -63.92 3.2 -1.12 3.19 -1.08 3.3 -1.09 3.25 -1.02 3.2 -0.98 3.27 -0.97 3.29 -0.93 3.23 -0.89 3.29 -0.87 3.34 -0.85 3.25 -0.79 3.32 -0.78 3.32 -0.73 3.26 -0.7 3.33 -0.68 3.39 -0.65 3.35 -0.6 3.29 -0.57 3.34 -0.54 3.36 -0.51 3.35 -0.48 3.37 -0.44 3.38 -0.41 3.31 -0.38 3.37 -0.35 3.44 -0.32 3.37 -0.27 3.4 -0.25 3.33 -0.21 3.39 -0.18 3.45 -0.15 3.36 -0.11 -0.32 0.01zm0.32 -0.01c18.72,-0.53 34.34,14.21 34.87,32.93 0.53,18.72 -14.21,34.34 -32.93,34.87l-1.94 -67.8zm10.66 -0.13l0 67.82 0 0 -0.61 0 -0.62 0 -0.61 0 -0.61 0 -0.33 0 -0.61 0.01 -0.89 0 -0.33 0 -0.33 0.01 -0.6 0.01 -0.61 0.01 -0.59 0.01 -0.32 0 -0.3 0.01 -0.6 0.02 -0.44 0.02 -2.58 -67.78 0.74 -0.02 0.6 -0.02 0.88 -0.03 0.88 -0.02 0.61 -0.01 0.61 -0.01 0.6 -0.01 0.89 -0.01 0.89 0 0.33 0 0.61 -0.01 0.89 0 0.61 0 0.61 0 0.62 0 0.61 0 0 0zm0 0c18.72,0 33.91,15.19 33.91,33.91 0,18.72 -15.19,33.91 -33.91,33.91l0 -67.82zm10.64 0.13l-1.92 67.8 -0.29 -0.01 -0.47 -0.01 -0.62 -0.02 -0.32 -0.02 -0.33 0 -0.61 -0.01 -0.6 -0.01 -0.59 -0.01 -0.33 -0.01 -0.32 0 -0.88 0 -0.6 -0.01 -0.33 0 -0.6 0 -0.61 0 -0.61 0 -0.61 0 0 -67.82 0.61 0 0.61 0 0.61 0 0.6 0 0.89 0 0.6 0.01 0.32 0 0.88 0 0.89 0.01 0.61 0.01 0.6 0.01 0.59 0.01 0.89 0.02 0.88 0.02 0.6 0.02 0.75 0.03 -0.29 -0.01zm0.29 0.01c18.71,0.69 33.33,16.43 32.64,35.14 -0.69,18.71 -16.43,33.33 -35.14,32.64l2.5 -67.78zm105.96 19.87l-22.56 63.96 -0.05 -0.01 -2.59 -0.91 -2.61 -0.88 -2.59 -0.85 -2.63 -0.83 -2.63 -0.81 -2.62 -0.77 -2.62 -0.75 -2.63 -0.72 -2.62 -0.69 -2.69 -0.68 -2.65 -0.65 -2.65 -0.61 -2.72 -0.61 -2.6 -0.56 -2.67 -0.53 -2.73 -0.53 -2.67 -0.49 -2.68 -0.46 -2.69 -0.44 -2.69 -0.41 -2.69 -0.38 -2.7 -0.36 -2.7 -0.33 -2.7 -0.3 -2.78 -0.28 -2.71 -0.26 -2.66 -0.22 -2.71 -0.19 -2.78 -0.17 -2.73 -0.16 -2.67 -0.11 -2.75 -0.09 1.92 -67.8 3.37 0.11 3.45 0.15 3.39 0.18 3.34 0.21 3.39 0.25 3.44 0.28 3.37 0.32 3.32 0.34 3.38 0.38 3.36 0.41 3.36 0.44 3.37 0.48 3.35 0.51 3.35 0.54 3.34 0.58 3.35 0.61 3.27 0.63 3.33 0.67 3.38 0.72 3.26 0.73 3.31 0.77 3.31 0.81 3.25 0.82 3.3 0.87 3.27 0.9 3.28 0.93 3.26 0.97 3.25 0.99 3.23 1.03 3.23 1.05 3.23 1.1 3.21 1.11 -0.05 -0.01zm0.05 0.01c17.65,6.25 26.89,25.65 20.64,43.3 -6.25,17.65 -25.65,26.89 -43.3,20.64l22.66 -63.94zm64.2 30.56l-35.3 57.92 0.01 0.01 -1.53 -0.93 -1.56 -0.93 -1.52 -0.89 -1.54 -0.9 -1.55 -0.88 -1.54 -0.86 -1.55 -0.86 -1.63 -0.89 -1.56 -0.84 -1.58 -0.84 -1.58 -0.82 -1.61 -0.83 -1.59 -0.8 -1.53 -0.76 -1.64 -0.8 -1.67 -0.8 -1.61 -0.76 -1.59 -0.74 -1.65 -0.75 -1.67 -0.76 -1.58 -0.7 -1.65 -0.71 -1.64 -0.7 -1.6 -0.67 -1.69 -0.69 -1.68 -0.68 -1.7 -0.67 -1.62 -0.63 -1.63 -0.62 -1.7 -0.63 -1.64 -0.6 -1.69 -0.6 22.56 -63.96 2.09 0.74 2.14 0.78 2.06 0.77 2.13 0.8 2.12 0.83 2.04 0.81 2.04 0.82 2.03 0.83 2.1 0.87 2.06 0.88 2.05 0.89 2.08 0.92 2.01 0.9 1.99 0.91 2.07 0.96 2.01 0.96 1.95 0.94 1.98 0.96 2.07 1.02 1.99 1.02 1.95 0.99 1.98 1.04 1.98 1.04 1.96 1.06 1.89 1.03 1.97 1.08 1.94 1.1 1.93 1.1 1.94 1.12 1.92 1.13 1.88 1.13 1.89 1.13 0.01 0.01zm-0.01 -0.01c15.99,9.74 21.07,30.62 11.33,46.61 -9.74,15.99 -30.62,21.07 -46.61,11.33l35.28 -57.94zm13.7 8.71l-37.72 56.38 0.24 0.16 -0.75 -0.49 -0.77 -0.51 -0.64 -0.42 -0.69 -0.44 -0.78 -0.5 -0.77 -0.5 -0.69 -0.45 -0.7 -0.45 -0.66 -0.41 -0.78 -0.49 -0.79 -0.5 -0.65 -0.41 -0.57 -0.36 -0.88 -0.53 -0.78 -0.49 -0.61 -0.37 35.3 -57.92 0.97 0.59 0.78 0.49 0.7 0.43 1.01 0.62 0.91 0.57 0.79 0.5 0.78 0.49 0.92 0.59 0.86 0.55 0.87 0.55 0.77 0.5 0.78 0.5 0.85 0.56 0.9 0.58 0.77 0.51 0.79 0.51 0.24 0.16zm-0.24 -0.16c15.65,10.28 20.01,31.32 9.73,46.97 -10.28,15.65 -31.32,20.01 -46.97,9.73l37.24 -56.7zm46.83 37.69l-46.42 49.46 -0.32 -0.31 -1.11 -1.06 -1.07 -1.01 -1.07 -1.01 -1.09 -1.01 -1.14 -1.04 -1.15 -1.05 -1.1 -0.98 -1.15 -1.03 -1.12 -0.98 -1.11 -0.97 -1.12 -0.96 -1.2 -1.01 -1.12 -0.95 -1.15 -0.95 -1.2 -0.99 -1.16 -0.94 -1.21 -0.97 -1.17 -0.93 -1.17 -0.92 -1.22 -0.95 -1.13 -0.87 -1.25 -0.94 -1.25 -0.94 -1.15 -0.85 -1.26 -0.93 -1.21 -0.87 -1.21 -0.86 -1.27 -0.9 -1.24 -0.87 -1.23 -0.84 -1.3 -0.89 -1.24 -0.83 37.72 -56.38 1.6 1.09 1.52 1.03 1.59 1.1 1.56 1.09 1.51 1.06 1.57 1.12 1.55 1.13 1.5 1.09 1.59 1.17 1.47 1.12 1.47 1.1 1.57 1.21 1.46 1.13 1.51 1.18 1.49 1.19 1.43 1.15 1.48 1.2 1.42 1.17 1.47 1.21 1.46 1.23 1.4 1.19 1.44 1.24 1.45 1.25 1.42 1.26 1.37 1.21 1.42 1.28 1.35 1.23 1.36 1.24 1.39 1.29 1.39 1.29 1.37 1.31 1.33 1.28 -0.32 -0.31zm0.32 0.31c13.48,12.99 13.88,34.47 0.89,47.95 -12.99,13.48 -34.47,13.88 -47.95,0.89l47.06 -48.84zm11.46 11.45l-48.5 47.42 -0.88 -0.94 -0.46 -0.5 -0.46 -0.5 -0.48 -0.51 -0.48 -0.49 -0.48 -0.5 -0.57 -0.58 -0.57 -0.58 -0.49 -0.49 -0.5 -0.49 -0.59 -0.57 -0.68 -0.67 -0.6 -0.58 -0.51 -0.48 -0.6 -0.57 -0.71 -0.66 -0.64 -0.61 46.42 -49.46 0.76 0.71 0.69 0.66 0.78 0.73 0.87 0.84 0.78 0.76 0.68 0.65 0.77 0.75 0.86 0.85 0.85 0.85 0.75 0.76 0.75 0.76 0.84 0.86 0.82 0.87 0.82 0.87 0.82 0.88 0.82 0.9 -0.88 -0.94zm0.88 0.94c12.57,13.87 11.51,35.33 -2.36,47.9 -13.87,12.57 -35.33,11.51 -47.9,-2.36l50.26 -45.54zm16 17.99l-51.92 43.64 -0.48 -0.58 -0.74 -0.92 -0.75 -0.91 -0.81 -0.97 -0.82 -0.97 -0.71 -0.84 -0.83 -0.95 -0.83 -0.96 -0.79 -0.88 -0.84 -0.94 -0.78 -0.87 -0.81 -0.87 -0.86 -0.92 -0.85 -0.91 -0.86 -0.9 -0.87 -0.9 -0.83 -0.86 48.5 -47.42 1.13 1.16 1.09 1.14 1.1 1.16 1.09 1.15 1.08 1.16 1.13 1.23 1.14 1.25 1.06 1.18 1.11 1.26 1.05 1.2 1.05 1.21 1.15 1.34 1.02 1.23 1.03 1.23 1.07 1.31 1.06 1.3 -0.48 -0.58zm0.48 0.58c11.73,14.6 9.4,35.95 -5.2,47.68 -14.6,11.73 -35.95,9.4 -47.68,-5.2l52.88 -42.48zm15.12 19.57l-55.12 39.52 -0.02 -0.02 -0.77 -1.09 -0.69 -0.95 -0.75 -1.01 -0.81 -1.1 -0.79 -1.06 -0.75 -1 -0.73 -0.95 -0.76 -1 -0.77 -0.98 -0.84 -1.07 -0.74 -0.93 -0.78 -0.97 -0.85 -1.06 -0.75 -0.91 -0.79 -0.96 -0.81 -0.97 51.92 -43.64 1.03 1.23 1.03 1.24 1.05 1.29 0.95 1.18 1.02 1.25 1.02 1.31 0.94 1.19 0.99 1.28 0.98 1.26 1.01 1.33 0.97 1.3 0.91 1.22 0.89 1.2 0.95 1.29 0.99 1.37 0.89 1.23 -0.02 -0.02zm0.02 0.02c10.9,15.23 7.39,36.42 -7.84,47.32 -15.23,10.9 -36.42,7.39 -47.32,-7.84l55.16 -39.48zm10.23 124.13l0 -67.82 -31.67 46.05 -0.82 -2.11 -0.83 -2.1 -0.82 -2.04 -0.86 -2.06 -0.9 -2.11 -0.87 -2.03 -0.89 -2.01 -0.96 -2.12 -0.92 -2.02 -0.95 -1.99 -0.94 -1.98 -1.02 -2.06 -1 -2.02 -0.98 -1.91 -1.05 -2 -1.05 -2 -1.06 -1.96 -1.1 -1.99 -1.05 -1.88 -1.12 -1.94 -1.13 -1.96 -1.16 -1.94 -1.13 -1.89 -1.17 -1.88 -1.2 -1.92 -1.19 -1.86 -1.2 -1.86 -1.24 -1.85 -1.28 -1.91 -1.25 -1.83 -1.25 -1.79 -1.31 -1.84 55.12 -39.52 1.61 2.26 1.63 2.33 1.59 2.33 1.52 2.25 1.54 2.33 1.54 2.36 1.51 2.36 1.46 2.34 1.47 2.38 1.45 2.41 1.4 2.36 1.39 2.38 1.38 2.4 1.39 2.48 1.32 2.41 1.32 2.44 1.29 2.42 1.27 2.44 1.3 2.55 1.22 2.46 1.2 2.44 1.22 2.52 1.19 2.55 1.16 2.52 1.1 2.44 1.15 2.57 1.11 2.57 1.06 2.51 1.06 2.56 1.06 2.6 1.01 2.56 1 2.57 -31.67 46.05zm31.67 -46.05c6.7,17.49 -2.04,37.11 -19.53,43.81 -17.49,6.7 -37.11,-2.04 -43.81,-19.53l63.34 -24.28zm-220.48 -21.77l188.81 0 0 67.82 -188.81 0 0 0 0 -67.82zm0 67.82c-18.72,0 -33.91,-15.19 -33.91,-33.91 0,-18.72 15.19,-33.91 33.91,-33.91l0 67.82zm-185.83 185.83l-67.82 0 0 0 0.33 -13.01 0.98 -12.85 1.62 -12.67 2.23 -12.5 2.84 -12.28 3.43 -12.05 4 -11.78 4.55 -11.53 5.1 -11.25 5.61 -10.93 6.11 -10.61 6.6 -10.29 7.08 -9.95 7.53 -9.57 7.97 -9.21 8.4 -8.79 8.79 -8.4 9.21 -7.97 9.57 -7.53 9.95 -7.08 10.29 -6.6 10.61 -6.11 10.93 -5.61 11.25 -5.1 11.53 -4.55 11.78 -4 12.05 -3.43 12.28 -2.84 12.5 -2.23 12.67 -1.62 12.85 -0.98 13.01 -0.33 0 67.82 -9.57 0.25 -9.43 0.72 -9.29 1.18 -9.12 1.63 -8.96 2.08 -8.79 2.51 -8.62 2.92 -8.43 3.33 -8.21 3.72 -8.01 4.11 -7.79 4.49 -7.55 4.84 -7.29 5.18 -7.03 5.53 -6.75 5.85 -6.47 6.18 -6.18 6.47 -5.85 6.75 -5.53 7.03 -5.18 7.29 -4.84 7.55 -4.49 7.79 -4.11 8.01 -3.72 8.21 -3.33 8.43 -2.92 8.62 -2.51 8.79 -2.08 8.96 -1.63 9.12 -1.18 9.29 -0.72 9.43 -0.25 9.57 0 0zm0 0c0,18.72 -15.19,33.91 -33.91,33.91 -18.72,0 -33.91,-15.19 -33.91,-33.91l67.82 0zm-28.42 -28.43l0 67.82 0 0 -2.09 -0.05 -1.49 -0.11 -2.14 -0.25 -2.28 -0.4 -2.03 -0.48 -1.58 -0.46 -1.77 -0.58 -2.12 -0.84 -1.53 -0.7 -1.52 -0.76 -1.75 -0.99 -1.87 -1.2 -1.37 -0.97 -1.54 -1.21 -1.26 -1.09 -1.21 -1.12 -1.76 -1.84 -1.35 -1.59 -1.03 -1.33 -0.88 -1.25 -1.1 -1.7 -0.96 -1.67 -0.9 -1.77 -0.7 -1.54 -0.84 -2.11 -0.58 -1.78 -0.42 -1.41 -0.52 -2.19 -0.4 -2.28 -0.25 -2.14 -0.11 -1.49 -0.05 -2.09 67.82 0 -0.03 -1.53 -0.07 -0.93 -0.19 -1.58 -0.3 -1.74 -0.4 -1.67 -0.26 -0.89 -0.42 -1.26 -0.64 -1.63 -0.48 -1.04 -0.66 -1.31 -0.7 -1.21 -0.8 -1.24 -0.58 -0.83 -0.71 -0.91 -1.01 -1.19 -1.4 -1.46 -0.81 -0.76 -0.88 -0.75 -1.12 -0.89 -0.93 -0.65 -1.43 -0.92 -1.29 -0.73 -1.04 -0.52 -1.05 -0.48 -1.62 -0.64 -1.27 -0.42 -1.04 -0.3 -1.51 -0.36 -1.74 -0.3 -1.58 -0.19 -0.93 -0.07 -1.53 -0.03 0 0zm0 0c18.72,0 33.91,15.19 33.91,33.91 0,18.72 -15.19,33.91 -33.91,33.91l0 -67.82zm428.96 67.82l-428.96 0 0 -67.82 428.96 0 0 0 0 67.82zm0 -67.82c18.72,0 33.91,15.19 33.91,33.91 0,18.72 -15.19,33.91 -33.91,33.91l0 -67.82zm147.89 -73.22l53.6 41.56 0.1 -0.12 -4.61 5.82 -4.76 5.68 -4.87 5.5 -5.04 5.36 -5.18 5.21 -5.29 5.03 -5.42 4.85 -5.55 4.71 -5.67 4.52 -5.78 4.37 -5.91 4.18 -5.99 4 -6.12 3.84 -6.22 3.66 -6.33 3.47 -6.42 3.28 -6.48 3.1 -6.58 2.91 -6.68 2.73 -6.77 2.54 -6.83 2.33 -6.91 2.15 -6.96 1.94 -7.03 1.75 -7.12 1.55 -7.15 1.35 -7.21 1.15 -7.24 0.94 -7.33 0.74 -7.34 0.52 -7.38 0.32 -7.42 0.1 0 -67.82 5.48 -0.08 5.46 -0.24 5.4 -0.38 5.35 -0.54 5.34 -0.7 5.29 -0.83 5.25 -0.99 5.18 -1.13 5.15 -1.29 5.1 -1.42 5.05 -1.57 4.99 -1.71 4.91 -1.84 4.86 -1.99 4.82 -2.13 4.76 -2.26 4.68 -2.4 4.59 -2.53 4.54 -2.66 4.46 -2.8 4.41 -2.94 4.31 -3.06 4.24 -3.19 4.15 -3.32 4.07 -3.45 4 -3.59 3.89 -3.69 3.8 -3.81 3.7 -3.96 3.63 -4.08 3.52 -4.2 3.41 -4.32 0.1 -0.12zm-0.1 0.12c11.41,-14.85 32.71,-17.65 47.56,-6.24 14.85,11.41 17.65,32.71 6.24,47.56l-53.8 -41.32zm67.35 21.54l-60.36 -30.94 58.62 33.94 -0.67 1.04 -0.74 1.11 -0.66 1 -0.69 1.04 -0.75 1.1 -0.68 0.99 -0.7 1.02 -0.76 1.1 -0.76 1.08 -0.77 1.08 -0.78 1.08 -0.79 1.07 -0.71 0.96 -0.79 1.06 -0.87 1.15 -0.79 1.02 -53.6 -41.56 0.57 -0.74 0.47 -0.61 0.53 -0.72 0.61 -0.82 0.53 -0.73 0.52 -0.72 0.53 -0.74 0.52 -0.74 0.52 -0.74 0.56 -0.82 0.58 -0.85 0.51 -0.76 0.55 -0.82 0.58 -0.86 0.5 -0.77 0.55 -0.84 58.62 33.94zm-58.62 -33.94c10.2,-15.7 31.21,-20.17 46.91,-9.97 15.7,10.2 20.17,31.21 9.97,46.91l-56.88 -36.94zm30.48 77.62l-53.08 -42.22 0.08 -0.1 0.76 -0.97 0.72 -0.9 0.66 -0.86 0.81 -1.07 0.7 -0.92 0.69 -0.93 0.74 -1 0.67 -0.94 0.67 -0.93 0.68 -0.97 0.71 -1.03 0.69 -1.01 0.7 -1.03 0.6 -0.91 0.63 -0.96 0.77 -1.19 0.62 -0.97 0.58 -0.92 0.66 -1.07 0.63 -1.04 0.6 -0.98 0.63 -1.08 0.67 -1.13 0.58 -0.99 0.53 -0.94 0.64 -1.15 0.61 -1.09 0.56 -1.01 0.57 -1.06 0.58 -1.1 0.58 -1.11 0.54 -1.04 60.36 30.94 -0.76 1.48 -0.74 1.39 -0.74 1.4 -0.77 1.42 -0.8 1.49 -0.77 1.37 -0.74 1.33 -0.87 1.52 -0.84 1.45 -0.77 1.31 -0.81 1.36 -0.86 1.44 -0.85 1.38 -0.84 1.35 -0.92 1.48 -0.92 1.41 -0.77 1.19 -0.91 1.42 -0.98 1.45 -0.88 1.31 -0.91 1.33 -0.91 1.31 -0.94 1.35 -0.97 1.37 -0.99 1.36 -0.94 1.28 -0.99 1.35 -1.02 1.34 -0.91 1.19 -1.06 1.38 -1.04 1.32 -1 1.25 0.08 -0.1zm-0.08 0.1c-11.71,14.61 -33.06,16.96 -47.67,5.25 -14.61,-11.71 -16.96,-33.06 -5.25,-47.67l52.92 42.42zm-68.83 60.75l-35.22 -57.96 -0.03 0.01 1.84 -1.12 1.77 -1.13 1.83 -1.18 1.82 -1.21 1.72 -1.16 1.74 -1.22 1.82 -1.3 1.68 -1.21 1.66 -1.25 1.77 -1.35 1.67 -1.3 1.66 -1.33 1.68 -1.37 1.6 -1.33 1.61 -1.38 1.63 -1.43 1.59 -1.42 1.6 -1.46 1.52 -1.42 1.54 -1.47 1.56 -1.52 1.46 -1.47 1.53 -1.56 1.51 -1.57 1.46 -1.55 1.45 -1.58 1.43 -1.58 1.41 -1.61 1.4 -1.63 1.41 -1.68 1.37 -1.66 1.34 -1.67 53.08 42.22 -1.82 2.27 -1.85 2.24 -1.83 2.18 -1.9 2.21 -1.91 2.17 -1.93 2.16 -1.97 2.14 -1.98 2.11 -1.97 2.05 -1.99 2.04 -2.08 2.07 -2.04 1.98 -2.08 2.01 -2.16 2 -2.1 1.92 -2.15 1.92 -2.15 1.87 -2.19 1.88 -2.26 1.89 -2.2 1.79 -2.26 1.81 -2.29 1.78 -2.21 1.69 -2.36 1.77 -2.38 1.73 -2.28 1.62 -2.38 1.66 -2.44 1.66 -2.38 1.57 -2.39 1.56 -2.49 1.57 -2.46 1.52 -0.03 0.01zm0.03 -0.01c-15.99,9.74 -36.87,4.66 -46.61,-11.33 -9.74,-15.99 -4.66,-36.87 11.33,-46.61l35.28 57.94zm-115.57 36.93l-5.32 -67.62 0.21 -0.02 2.82 -0.23 2.81 -0.26 2.8 -0.31 2.85 -0.35 2.74 -0.38 2.79 -0.45 2.83 -0.48 2.8 -0.52 2.78 -0.55 2.74 -0.6 2.77 -0.64 2.74 -0.68 2.76 -0.73 2.69 -0.74 2.75 -0.82 2.7 -0.83 2.66 -0.88 2.71 -0.93 2.67 -0.96 2.64 -0.99 2.65 -1.04 2.62 -1.07 2.55 -1.1 2.58 -1.15 2.61 -1.21 2.55 -1.22 2.51 -1.26 2.48 -1.29 2.49 -1.34 2.49 -1.39 2.43 -1.4 2.42 -1.44 35.22 57.96 -3.3 1.98 -3.33 1.92 -3.33 1.85 -3.37 1.82 -3.42 1.77 -3.45 1.72 -3.45 1.66 -3.43 1.59 -3.5 1.57 -3.57 1.52 -3.54 1.45 -3.55 1.4 -3.58 1.35 -3.61 1.3 -3.59 1.23 -3.66 1.2 -3.66 1.13 -3.65 1.08 -3.71 1.04 -3.7 0.97 -3.72 0.92 -3.71 0.86 -3.78 0.82 -3.76 0.75 -3.74 0.7 -3.75 0.64 -3.79 0.59 -3.86 0.54 -3.77 0.47 -3.82 0.43 -3.83 0.36 -3.82 0.31 0.21 -0.02zm-0.21 0.02c-18.68,1.35 -34.93,-12.7 -36.28,-31.38 -1.35,-18.68 12.7,-34.93 31.38,-36.28l4.9 67.66zm26.32 -28.34l-67.82 0 0 0 0.06 -2.21 0.12 -1.56 0.19 -1.62 0.38 -2.29 0.34 -1.51 0.43 -1.66 0.72 -2.24 0.62 -1.63 0.69 -1.6 1.04 -2.11 0.85 -1.51 0.61 -1 0.95 -1.45 1.25 -1.71 1.36 -1.66 0.81 -0.9 1.16 -1.21 1.19 -1.15 1.66 -1.44 1.68 -1.3 0.97 -0.69 1.74 -1.14 1.78 -1.02 1.25 -0.65 1.57 -0.74 1.81 -0.76 2.17 -0.77 1.61 -0.47 1.61 -0.42 2.21 -0.44 1.59 -0.23 1.97 -0.21 5.32 67.62 1.43 -0.15 1.05 -0.15 1.69 -0.34 1.09 -0.28 1.11 -0.33 1.67 -0.59 1.33 -0.56 1.11 -0.52 0.79 -0.41 1.32 -0.76 1.32 -0.86 0.55 -0.39 1.28 -1 1.28 -1.1 0.81 -0.79 0.82 -0.85 0.47 -0.52 1.04 -1.28 0.95 -1.29 0.67 -1.03 0.35 -0.56 0.59 -1.07 0.82 -1.65 0.49 -1.14 0.44 -1.15 0.56 -1.76 0.31 -1.16 0.22 -1.01 0.3 -1.79 0.13 -1.1 0.08 -1.04 0.04 -1.69 0 0zm0 0c0,18.72 -15.19,33.91 -33.91,33.91 -18.72,0 -33.91,-15.19 -33.91,-33.91l67.82 0zm-67.82 288.69l0 -288.69 67.82 0 0 288.69 0 0 -67.82 0zm67.82 0c0,18.72 -15.19,33.91 -33.91,33.91 -18.72,0 -33.91,-15.19 -33.91,-33.91l67.82 0zm23.1 55.73l-47.96 47.96 0.07 0.07 -2.55 -2.6 -2.5 -2.67 -2.44 -2.75 -2.3 -2.73 -2.28 -2.82 -2.19 -2.87 -2.15 -2.95 -2.04 -2.99 -1.93 -2.95 -1.93 -3.11 -1.81 -3.12 -1.71 -3.11 -1.64 -3.16 -1.58 -3.22 -1.52 -3.32 -1.39 -3.26 -1.32 -3.31 -1.25 -3.39 -1.14 -3.33 -1.09 -3.44 -1 -3.44 -0.91 -3.47 -0.82 -3.5 -0.73 -3.45 -0.67 -3.59 -0.57 -3.59 -0.47 -3.5 -0.4 -3.64 -0.31 -3.64 -0.21 -3.53 -0.14 -3.65 -0.04 -3.66 67.82 0 0.02 1.98 0.08 1.95 0.13 2.07 0.15 1.92 0.22 1.9 0.27 2 0.29 1.87 0.35 1.85 0.41 1.95 0.44 1.86 0.49 1.85 0.52 1.84 0.57 1.8 0.64 1.85 0.65 1.77 0.72 1.77 0.75 1.78 0.76 1.66 0.84 1.72 0.88 1.7 0.95 1.71 0.95 1.64 0.97 1.57 1.09 1.67 1.08 1.57 1.11 1.53 1.17 1.53 1.22 1.52 1.3 1.53 1.28 1.45 1.34 1.43 1.39 1.42 0.07 0.07zm-0.07 -0.07c13.28,13.2 13.34,34.68 0.14,47.96 -13.2,13.28 -34.68,13.34 -47.96,0.14l47.82 -48.1zm55.67 23.05l0 67.82 0 0 -3.66 -0.04 -3.66 -0.14 -3.52 -0.21 -3.64 -0.31 -3.62 -0.4 -3.5 -0.47 -3.59 -0.57 -3.54 -0.66 -3.51 -0.73 -3.49 -0.84 -3.46 -0.9 -3.45 -1 -3.37 -1.06 -3.39 -1.17 -3.33 -1.23 -3.36 -1.33 -3.3 -1.42 -3.22 -1.48 -3.21 -1.56 -3.17 -1.65 -3.13 -1.72 -3.08 -1.79 -3.07 -1.89 -3.02 -1.97 -2.94 -2.02 -2.93 -2.12 -2.83 -2.16 -2.79 -2.23 -2.8 -2.35 -2.74 -2.42 -2.65 -2.47 -2.59 -2.53 47.96 -47.96 1.43 1.39 1.45 1.35 1.44 1.28 1.46 1.23 1.55 1.23 1.57 1.2 1.55 1.12 1.6 1.1 1.58 1.03 1.61 0.99 1.66 0.97 1.67 0.92 1.69 0.87 1.71 0.84 1.76 0.8 1.72 0.74 1.72 0.69 1.81 0.67 1.79 0.61 1.85 0.58 1.83 0.54 1.84 0.48 1.87 0.44 1.87 0.39 1.9 0.36 1.87 0.29 2 0.27 1.9 0.22 1.92 0.15 2.06 0.13 1.94 0.08 1.98 0.02 0 0zm0 0c18.72,0 33.91,15.19 33.91,33.91 0,18.72 -15.19,33.91 -33.91,33.91l0 -67.82zm0.93 67.82l-0.93 0 0 -67.82 0.93 0 0.26 67.82 -0.26 0zm0 -67.82c18.72,0 33.91,15.19 33.91,33.91 0,18.72 -15.19,33.91 -33.91,33.91l0 -67.82zm77.77 -81.62l67.82 0 0 0 -0.19 7.56 -0.55 7.47 -0.92 7.41 -1.28 7.29 -1.61 7.15 -1.95 7.02 -2.26 6.88 -2.59 6.74 -2.9 6.61 -3.19 6.38 -3.46 6.21 -3.77 6.04 -4.02 5.84 -4.3 5.65 -4.55 5.41 -4.77 5.17 -5.01 4.95 -5.25 4.72 -5.5 4.48 -5.66 4.18 -5.89 3.94 -6.09 3.64 -6.26 3.36 -6.47 3.06 -6.66 2.76 -6.8 2.41 -6.9 2.07 -7.08 1.75 -7.21 1.38 -7.3 1.02 -7.45 0.64 -7.49 0.25 -0.52 -67.82 3.97 -0.13 3.87 -0.34 3.86 -0.54 3.77 -0.72 3.7 -0.91 3.68 -1.11 3.58 -1.27 3.48 -1.44 3.41 -1.62 3.36 -1.8 3.27 -1.96 3.17 -2.12 3.1 -2.28 2.94 -2.4 2.87 -2.58 2.75 -2.71 2.63 -2.85 2.49 -2.97 2.34 -3.07 2.22 -3.22 2.05 -3.3 1.92 -3.45 1.77 -3.54 1.58 -3.57 1.41 -3.7 1.26 -3.8 1.07 -3.86 0.89 -3.95 0.7 -3.99 0.5 -4.05 0.31 -4.17 0.11 -4.2 0 0zm0 0c0,-18.72 15.19,-33.91 33.91,-33.91 18.72,0 33.91,15.19 33.91,33.91l-67.82 0zm67.82 -510.65l0 510.65 -67.82 0 0 -510.65 33.91 -33.91 33.91 33.91zm-67.82 0c0,-18.72 15.19,-33.91 33.91,-33.91 18.72,0 33.91,15.19 33.91,33.91l-67.82 0zm32.74 -33.91l1.17 0 0 67.82 -1.17 0 -33.78 -36.89 33.78 -30.93zm0 67.82c-18.72,0 -33.91,-15.19 -33.91,-33.91 0,-18.72 15.19,-33.91 33.91,-33.91l0 67.82zm0.94 -79.84l0 67.82 33.86 -31.92 -0.05 0.76 -0.06 1.01 -0.08 0.98 -0.03 0.53 -0.07 0.99 -0.07 0.99 -0.06 0.75 -0.06 0.75 -0.06 0.75 -0.08 1 -0.07 0.74 -0.04 0.5 -0.08 1 -0.07 0.74 -0.06 0.75 -0.08 0.77 -67.56 -5.96 0.06 -0.71 0.06 -0.75 0.07 -0.74 0.04 -0.5 0.08 -1 0.07 -0.74 0.04 -0.5 0.06 -0.75 0.06 -0.75 0.06 -0.75 0.05 -0.51 0.03 -0.53 0.07 -0.99 0.04 -0.52 0.02 -0.53 0.05 -0.76 33.86 -31.92zm-33.86 31.92c1.09,-18.7 17.15,-32.96 35.85,-31.87 18.7,1.09 32.96,17.15 31.87,35.85l-67.72 -3.98zm34.09 35.9l-0.23 0 0 -67.82 0.23 0 33.91 33.91 -33.91 33.91zm0 -67.82c18.72,0 33.91,15.19 33.91,33.91 0,18.72 -15.19,33.91 -33.91,33.91l0 -67.82zm33.91 -298.79l0 332.7 -67.82 0 0 -332.7 0 0 67.82 0zm-67.82 0c0,-18.72 15.19,-33.91 33.91,-33.91 18.72,0 33.91,15.19 33.91,33.91l-67.82 0zm-23.08 -55.59l47.94 -47.98 -0.05 -0.05 2.54 2.59 2.47 2.64 2.44 2.74 2.36 2.79 2.24 2.79 2.2 2.87 2.12 2.93 2.05 2.97 1.97 3.02 1.88 3.04 1.8 3.09 1.73 3.12 1.64 3.17 1.57 3.18 1.51 3.29 1.43 3.33 1.3 3.27 1.24 3.31 1.19 3.47 1.07 3.43 0.98 3.39 0.91 3.46 0.83 3.49 0.73 3.45 0.67 3.6 0.57 3.59 0.47 3.5 0.4 3.62 0.31 3.64 0.21 3.52 0.14 3.66 0.04 3.66 -67.82 0 -0.02 -1.98 -0.08 -1.94 -0.13 -2.06 -0.15 -1.92 -0.22 -1.9 -0.27 -2 -0.29 -1.87 -0.35 -1.84 -0.41 -1.93 -0.43 -1.87 -0.49 -1.84 -0.54 -1.89 -0.57 -1.79 -0.59 -1.71 -0.68 -1.81 -0.72 -1.81 -0.73 -1.71 -0.77 -1.67 -0.85 -1.74 -0.88 -1.69 -0.93 -1.68 -0.96 -1.65 -1.02 -1.64 -1.03 -1.6 -1.09 -1.57 -1.12 -1.55 -1.18 -1.53 -1.24 -1.55 -1.24 -1.47 -1.28 -1.44 -1.37 -1.46 -1.4 -1.43 -0.05 -0.05zm0.05 0.05c-13.27,-13.21 -13.33,-34.69 -0.12,-47.96 13.21,-13.27 34.69,-13.33 47.96,-0.12l-47.84 48.08zm-51.94 -22.97l3.98 -67.72 -0.29 -0.01 3.38 0.21 3.38 0.28 3.39 0.37 3.36 0.44 3.35 0.53 3.27 0.59 3.28 0.66 3.32 0.75 3.21 0.81 3.23 0.88 3.26 0.98 3.18 1.04 3.15 1.11 3.13 1.18 3.07 1.23 3.09 1.33 3.11 1.43 2.97 1.45 2.94 1.51 2.96 1.61 2.9 1.66 2.85 1.73 2.79 1.77 2.83 1.89 2.77 1.95 2.68 1.97 2.68 2.08 2.64 2.14 2.54 2.16 2.5 2.23 2.51 2.33 2.42 2.37 -47.94 47.98 -1.32 -1.29 -1.29 -1.21 -1.4 -1.23 -1.4 -1.2 -1.4 -1.14 -1.4 -1.08 -1.48 -1.09 -1.45 -1.03 -1.47 -0.97 -1.55 -0.99 -1.55 -0.93 -1.56 -0.9 -1.56 -0.85 -1.62 -0.83 -1.65 -0.81 -1.55 -0.71 -1.63 -0.69 -1.69 -0.69 -1.69 -0.64 -1.69 -0.59 -1.72 -0.56 -1.66 -0.5 -1.75 -0.48 -1.79 -0.45 -1.7 -0.39 -1.8 -0.36 -1.83 -0.33 -1.77 -0.27 -1.78 -0.24 -1.79 -0.19 -1.82 -0.16 -1.84 -0.11 -0.29 -0.01zm0.29 0.01c-18.7,-0.93 -33.1,-16.87 -32.17,-35.57 0.93,-18.7 16.87,-33.1 35.57,-32.17l-3.4 67.74zm-38.05 -33.98l67.82 0 -33.91 -33.91 0.75 0 0.97 0 0.74 0.01 0.97 0 1.21 0.03 0.73 0.02 1.19 0.04 1.27 0.06 -3.98 67.72 -0.15 -0.02 -0.23 0 -0.71 -0.02 -0.25 -0.01 -0.51 0 -0.74 -0.01 -0.51 0 -0.75 0 -33.91 -33.91zm33.91 33.91c-18.72,0 -33.91,-15.19 -33.91,-33.91 0,-18.72 15.19,-33.91 33.91,-33.91l0 67.82zm33.91 -34.38l0 0.47 -67.82 0 0 -0.47 33.91 -33.91 33.91 33.91zm-67.82 0c0,-18.72 15.19,-33.91 33.91,-33.91 18.72,0 33.91,15.19 33.91,33.91l-67.82 0z"/>
  </g>
 </g>
</svg>
