<?xml version="1.0" encoding="UTF-8"?>
<!DOCTYPE svg PUBLIC "-//W3C//DTD SVG 1.1//EN" "http://www.w3.org/Graphics/SVG/1.1/DTD/svg11.dtd">
<!-- Creator: CorelDRAW (OEM Version) -->
<svg xmlns="http://www.w3.org/2000/svg" xml:space="preserve" width="86.6987mm" height="86.6987mm" version="1.1" style="shape-rendering:geometricPrecision; text-rendering:geometricPrecision; image-rendering:optimizeQuality; fill-rule:evenodd; clip-rule:evenodd"
viewBox="0 0 1090.56 1090.56"
 xmlns:xlink="http://www.w3.org/1999/xlink"
 xmlns:xodm="http://www.corel.com/coreldraw/odm/2003">
 <defs>
  <style type="text/css">
   <![CDATA[
    .fil0 {fill:#181821}
    .fil1 {fill:white;fill-rule:nonzero}
   ]]>
  </style>
 </defs>
 <g id="Layer_x0020_1">
  <metadata id="CorelCorpID_0Corel-Layer"/>
  <g id="_2191414244352">
   <circle class="fil0" cx="545.28" cy="545.28" r="545.28"/>
   <g>
    <path class="fil1" d="M789.21 237.23l0 0 0 0 0 0 0 19.28 0 -19.28zm-19.28 0c0,-10.65 8.63,-19.28 19.28,-19.28 10.65,0 19.28,8.63 19.28,19.28l-38.55 0zm16.93 19.32l-1.95 -38.5 -0.14 0.01 0.35 -0.02 0.32 -0.02 0.32 -0.01 0.32 -0.01 0.32 -0.01 0.26 -0.01 0.32 -0.01 0.27 -0 0.26 -0.01 0.32 -0 0.21 -0 0.21 -0 0.27 -0 0.27 0 0.21 0 0.21 0 0 38.55 -0.21 0 -0.21 0 -0.15 0 -0.15 0 -0.21 0 -0.21 0 -0.09 0 -0.15 0 -0.15 0 -0.09 0 -0.15 0 -0.09 0 -0.1 0 -0.09 0 -0.1 0.01 -0.08 0 -0.14 0.01zm0.14 -0.01c-10.63,0.62 -19.74,-7.5 -20.36,-18.13 -0.62,-10.63 7.5,-19.74 18.13,-20.36l2.23 38.49zm-40.76 32.28l-37.32 -9.65 0.09 -0.32 0.96 -3.2 1.08 -3.15 1.2 -3.09 1.31 -3.02 1.42 -2.96 1.53 -2.88 1.64 -2.81 1.74 -2.73 1.84 -2.66 1.94 -2.57 2.03 -2.49 2.13 -2.42 2.21 -2.32 2.29 -2.23 2.38 -2.14 2.46 -2.04 2.53 -1.95 2.61 -1.85 2.68 -1.75 2.75 -1.65 2.81 -1.54 2.87 -1.43 2.93 -1.32 2.99 -1.21 3.05 -1.1 3.1 -0.98 3.14 -0.86 3.18 -0.74 3.23 -0.62 3.27 -0.49 3.3 -0.36 3.32 -0.24 1.95 38.5 -1.8 0.13 -1.78 0.2 -1.75 0.26 -1.73 0.33 -1.71 0.4 -1.68 0.46 -1.66 0.52 -1.63 0.59 -1.6 0.65 -1.57 0.71 -1.54 0.77 -1.51 0.83 -1.47 0.88 -1.44 0.94 -1.4 0.99 -1.36 1.04 -1.32 1.1 -1.28 1.14 -1.23 1.2 -1.18 1.24 -1.13 1.28 -1.09 1.34 -1.04 1.38 -0.98 1.42 -0.93 1.46 -0.88 1.5 -0.82 1.54 -0.76 1.58 -0.7 1.62 -0.64 1.66 -0.58 1.69 -0.52 1.74 0.09 -0.32zm-0.09 0.32c-2.84,10.26 -13.46,16.27 -23.72,13.43 -10.26,-2.84 -16.27,-13.46 -13.43,-23.72l37.15 10.29zm-37.7 -8.17l0.46 -1.79 37.32 9.65 -0.46 1.79 -32.29 8.81 -5.03 -18.45zm37.32 9.65c-2.66,10.31 -13.18,16.5 -23.48,13.84 -10.31,-2.66 -16.5,-13.18 -13.84,-23.48l37.32 9.65zm-30.9 10.2l-1.39 -1.39 27.26 -27.26 1.39 1.39 -26.68 27.81 -0.58 -0.55zm27.26 -27.26c7.53,7.53 7.53,19.73 0,27.26 -7.53,7.53 -19.73,7.53 -27.26,0l27.26 -27.26zm16.36 77.42l28.5 -25.95 -30.1 23.94 -1.13 -1.62 -1.14 -1.61 -1.15 -1.61 -1.16 -1.59 -1.17 -1.59 -1.18 -1.57 -1.2 -1.57 -1.21 -1.56 -1.21 -1.55 -1.23 -1.55 -1.24 -1.54 -1.25 -1.53 -1.26 -1.52 -1.27 -1.51 -1.28 -1.5 -1.29 -1.49 -1.3 -1.48 -1.31 -1.48 -1.32 -1.46 -1.34 -1.46 -1.34 -1.45 -1.35 -1.44 -1.37 -1.43 -1.38 -1.43 -1.38 -1.41 -1.39 -1.4 -1.4 -1.39 -1.42 -1.39 -1.43 -1.38 -1.44 -1.37 -1.45 -1.36 -1.46 -1.35 26.11 -28.37 1.65 1.53 1.64 1.54 1.63 1.55 1.62 1.56 1.6 1.57 1.6 1.59 1.58 1.59 1.57 1.61 1.56 1.61 1.55 1.62 1.54 1.64 1.52 1.64 1.51 1.65 1.5 1.67 1.49 1.68 1.48 1.68 1.47 1.7 1.45 1.7 1.44 1.72 1.43 1.72 1.42 1.73 1.41 1.74 1.39 1.75 1.38 1.77 1.37 1.77 1.35 1.78 1.35 1.8 1.33 1.8 1.32 1.81 1.3 1.82 1.29 1.83 1.29 1.84 -30.1 23.94zm30.1 -23.94c6.06,8.75 3.87,20.76 -4.89,26.82 -8.75,6.06 -20.76,3.87 -26.82,-4.89l31.71 -21.93zm-185.56 -64.55l7.75 -37.76 -0.02 -0 6.36 1.36 6.32 1.49 6.28 1.61 6.24 1.73 6.19 1.85 6.15 1.97 6.1 2.09 6.05 2.21 6 2.33 5.95 2.45 5.89 2.56 5.84 2.67 5.78 2.79 5.73 2.9 5.66 3.01 5.61 3.12 5.54 3.23 5.48 3.34 5.41 3.45 5.34 3.55 5.28 3.66 5.2 3.76 5.13 3.87 5.06 3.97 4.98 4.07 4.91 4.17 4.83 4.27 4.75 4.37 4.67 4.47 4.58 4.56 4.5 4.66 4.42 4.75 -28.5 25.95 -3.9 -4.2 -3.98 -4.11 -4.05 -4.03 -4.12 -3.94 -4.19 -3.86 -4.26 -3.77 -4.33 -3.68 -4.4 -3.59 -4.46 -3.5 -4.53 -3.41 -4.59 -3.32 -4.65 -3.23 -4.71 -3.13 -4.77 -3.04 -4.83 -2.94 -4.89 -2.85 -4.94 -2.75 -5 -2.65 -5.05 -2.56 -5.1 -2.46 -5.15 -2.36 -5.2 -2.26 -5.24 -2.16 -5.29 -2.05 -5.34 -1.95 -5.38 -1.85 -5.42 -1.74 -5.46 -1.64 -5.5 -1.53 -5.54 -1.42 -5.57 -1.31 -5.61 -1.2 -0.02 -0zm0.02 0c-10.43,-2.13 -17.16,-12.31 -15.03,-22.74 2.13,-10.43 12.31,-17.16 22.74,-15.03l-7.71 37.77zm-57.77 -5.85l0 -38.55 0 0 2.08 0.01 2.07 0.02 2.08 0.03 2.07 0.05 2.07 0.06 2.07 0.07 2.07 0.09 2.07 0.1 2.06 0.11 2.07 0.12 2.07 0.14 2.06 0.15 2.05 0.16 2.06 0.17 2.06 0.19 2.05 0.2 2.05 0.21 2.05 0.23 2.05 0.24 2.04 0.25 2.04 0.27 2.04 0.28 2.03 0.29 2.03 0.3 2.03 0.32 2.02 0.33 2.02 0.34 2.02 0.35 2.01 0.37 2.01 0.38 2.01 0.39 2 0.4 -7.75 37.76 -1.76 -0.36 -1.76 -0.34 -1.77 -0.33 -1.77 -0.32 -1.77 -0.31 -1.78 -0.3 -1.78 -0.29 -1.78 -0.28 -1.79 -0.27 -1.79 -0.26 -1.79 -0.25 -1.8 -0.23 -1.8 -0.22 -1.8 -0.21 -1.8 -0.2 -1.81 -0.19 -1.82 -0.18 -1.81 -0.17 -1.81 -0.15 -1.83 -0.14 -1.82 -0.13 -1.82 -0.12 -1.82 -0.11 -1.83 -0.1 -1.83 -0.09 -1.82 -0.08 -1.82 -0.06 -1.83 -0.05 -1.83 -0.04 -1.83 -0.03 -1.83 -0.02 -1.83 -0.01 0 0zm0 0c-10.65,0 -19.28,-8.63 -19.28,-19.28 0,-10.65 8.63,-19.28 19.28,-19.28l0 38.55zm-57.77 5.85l-7.7 -37.77 -0.01 0 2 -0.4 2.01 -0.39 2.01 -0.38 2.01 -0.37 2.02 -0.35 2.02 -0.34 2.03 -0.33 2.03 -0.32 2.03 -0.3 2.03 -0.29 2.04 -0.28 2.04 -0.27 2.04 -0.25 2.04 -0.24 2.05 -0.23 2.05 -0.21 2.04 -0.2 2.06 -0.19 2.06 -0.17 2.05 -0.16 2.06 -0.15 2.07 -0.14 2.07 -0.12 2.06 -0.11 2.06 -0.1 2.07 -0.09 2.07 -0.07 2.07 -0.06 2.08 -0.05 2.07 -0.03 2.07 -0.02 2.08 -0.01 0 38.55 -1.83 0.01 -1.83 0.02 -1.83 0.03 -1.82 0.04 -1.83 0.05 -1.82 0.06 -1.82 0.08 -1.83 0.09 -1.82 0.1 -1.82 0.11 -1.82 0.12 -1.82 0.13 -1.83 0.14 -1.81 0.15 -1.81 0.17 -1.82 0.18 -1.81 0.19 -1.8 0.2 -1.8 0.21 -1.8 0.22 -1.8 0.23 -1.8 0.25 -1.79 0.26 -1.8 0.27 -1.79 0.28 -1.78 0.29 -1.78 0.3 -1.78 0.31 -1.78 0.32 -1.77 0.33 -1.77 0.34 -1.77 0.36 -0.01 0zm0.01 -0c-10.43,2.13 -20.62,-4.59 -22.75,-15.02 -2.13,-10.43 4.59,-20.62 15.02,-22.75l7.73 37.77zm-115.46 52.18l-23.16 -30.82 -0.02 0.02 3.65 -2.71 3.68 -2.65 3.72 -2.6 3.75 -2.55 3.79 -2.5 3.82 -2.44 3.85 -2.39 3.88 -2.34 3.92 -2.28 3.95 -2.23 3.98 -2.17 4.01 -2.12 4.03 -2.06 4.06 -2.01 4.09 -1.95 4.11 -1.89 4.14 -1.84 4.16 -1.78 4.18 -1.72 4.21 -1.66 4.23 -1.6 4.25 -1.54 4.27 -1.48 4.29 -1.43 4.31 -1.37 4.33 -1.3 4.34 -1.25 4.36 -1.18 4.37 -1.12 4.39 -1.06 4.4 -1 4.41 -0.93 7.7 37.77 -3.88 0.82 -3.86 0.87 -3.85 0.93 -3.85 0.99 -3.83 1.04 -3.82 1.09 -3.81 1.15 -3.79 1.2 -3.78 1.26 -3.77 1.31 -3.75 1.36 -3.73 1.42 -3.72 1.47 -3.69 1.52 -3.67 1.57 -3.65 1.62 -3.64 1.67 -3.61 1.72 -3.59 1.77 -3.56 1.82 -3.54 1.87 -3.51 1.92 -3.49 1.97 -3.46 2.01 -3.43 2.06 -3.4 2.11 -3.37 2.15 -3.34 2.2 -3.31 2.25 -3.28 2.29 -3.24 2.34 -3.21 2.38 -0.02 0.02zm0.02 -0.02c-8.5,6.41 -20.59,4.71 -27,-3.79 -6.41,-8.5 -4.71,-20.59 3.79,-27l23.2 30.79zm-57.5 57.5l-30.78 -23.22 -0.02 0.03 1.75 -2.31 1.76 -2.29 1.79 -2.27 1.81 -2.26 1.82 -2.24 1.85 -2.22 1.86 -2.21 1.88 -2.19 1.9 -2.17 1.92 -2.15 1.94 -2.14 1.95 -2.11 1.98 -2.1 2 -2.09 2.01 -2.07 2.03 -2.05 2.05 -2.03 2.07 -2.01 2.09 -1.99 2.1 -1.98 2.12 -1.96 2.14 -1.94 2.15 -1.92 2.17 -1.9 2.19 -1.88 2.21 -1.87 2.22 -1.85 2.24 -1.82 2.26 -1.81 2.27 -1.79 2.29 -1.76 2.3 -1.75 23.16 30.82 -2.03 1.54 -2.02 1.56 -2 1.58 -1.99 1.59 -1.98 1.61 -1.96 1.63 -1.94 1.64 -1.93 1.66 -1.92 1.68 -1.9 1.69 -1.88 1.71 -1.87 1.73 -1.85 1.74 -1.84 1.76 -1.82 1.77 -1.81 1.79 -1.79 1.81 -1.77 1.82 -1.76 1.84 -1.74 1.85 -1.73 1.88 -1.71 1.88 -1.69 1.9 -1.68 1.91 -1.66 1.93 -1.65 1.95 -1.63 1.96 -1.61 1.98 -1.59 1.99 -1.58 2 -1.56 2.02 -1.54 2.03 -0.02 0.03zm0.02 -0.03c-6.39,8.51 -18.48,10.23 -26.99,3.83 -8.51,-6.39 -10.23,-18.48 -3.83,-26.99l30.82 23.16zm-8.62 12.05l-31.89 -21.65 -0.13 0.19 0.31 -0.47 0.31 -0.46 0.31 -0.47 0.32 -0.47 0.31 -0.45 0.31 -0.45 0.32 -0.46 0.31 -0.45 0.31 -0.45 0.3 -0.43 0.31 -0.45 0.32 -0.46 0.31 -0.44 0.3 -0.41 0.31 -0.44 0.31 -0.44 0.3 -0.42 0.32 -0.44 0.3 -0.42 0.31 -0.42 0.31 -0.42 0.31 -0.43 0.31 -0.41 0.31 -0.41 0.6 -0.81 0.61 -0.81 0.59 -0.79 0.6 -0.79 30.78 23.22 -0.55 0.73 -0.56 0.74 -0.54 0.73 -0.55 0.74 -0.27 0.37 -0.27 0.37 -0.26 0.36 -0.27 0.37 -0.27 0.37 -0.27 0.37 -0.26 0.36 -0.27 0.37 -0.26 0.36 -0.26 0.36 -0.28 0.39 -0.26 0.37 -0.25 0.36 -0.26 0.37 -0.27 0.39 -0.26 0.37 -0.26 0.37 -0.25 0.36 -0.26 0.38 -0.26 0.38 -0.25 0.37 -0.25 0.37 -0.25 0.38 -0.25 0.38 -0.13 0.19zm0.13 -0.19c-5.87,8.88 -17.83,11.31 -26.71,5.44 -8.88,-5.87 -11.31,-17.83 -5.44,-26.71l32.15 21.27zm-4.39 6.64l-30.93 -23.01 -0.82 1.2 0.25 -0.39 0.26 -0.41 0.27 -0.41 0.25 -0.39 0.27 -0.42 0.25 -0.39 0.25 -0.39 0.26 -0.4 0.24 -0.37 0.25 -0.38 0.28 -0.42 0.26 -0.39 0.25 -0.38 0.25 -0.38 0.26 -0.39 0.26 -0.38 31.89 21.65 -0.22 0.32 -0.21 0.31 -0.22 0.33 -0.22 0.33 -0.21 0.31 -0.2 0.3 -0.22 0.33 -0.23 0.35 -0.21 0.32 -0.22 0.34 -0.22 0.34 -0.2 0.31 -0.22 0.34 -0.21 0.32 -0.21 0.33 -0.22 0.35 -0.82 1.2zm0.82 -1.2c-5.69,9 -17.6,11.67 -26.6,5.98 -9,-5.69 -11.67,-17.6 -5.98,-26.6l32.58 20.61zm-0.51 0.8l-32.49 -20.75 -1.01 1.79 0.18 -0.35 0.03 -0.06 0.22 -0.42 0.18 -0.32 0.08 -0.15 0.36 -0.6 0.13 -0.21 0.08 -0.12 0.26 -0.39 0.28 -0.41 0.25 -0.35 0.2 -0.27 30.93 23.01 0.06 -0.08 0.12 -0.17 0.16 -0.23 0.14 -0.22 0.02 -0.03 0.08 -0.13 0.31 -0.51 0.03 -0.06 0.13 -0.23 0.17 -0.32 -0.02 0.04 0.13 -0.25 -1.01 1.79zm1.01 -1.79c-4.74,9.53 -16.31,13.41 -25.84,8.67 -9.53,-4.74 -13.41,-16.31 -8.67,-25.84l34.51 17.17zm-4.41 7.19l-33.26 -19.49 0.05 -0.08 0.24 -0.4 0.25 -0.42 0.26 -0.43 0.24 -0.39 0.24 -0.39 0.26 -0.42 0.24 -0.37 0.26 -0.41 0.26 -0.41 0.25 -0.4 0.26 -0.41 0.27 -0.42 0.26 -0.4 0.27 -0.43 0.28 -0.44 0.28 -0.43 32.49 20.75 -0.29 0.45 -0.27 0.42 -0.26 0.41 -0.26 0.41 -0.24 0.38 -0.24 0.37 -0.23 0.37 -0.21 0.33 -0.2 0.33 -0.22 0.34 -0.18 0.29 -0.19 0.31 -0.18 0.29 -0.15 0.26 -0.15 0.26 -0.16 0.27 0.05 -0.08zm-0.05 0.08c-5.43,9.16 -17.25,12.18 -26.41,6.76 -9.16,-5.43 -12.18,-17.25 -6.76,-26.41l33.17 19.65zm-3.57 5.99l-33.07 -19.82 -0.14 0.23 0.26 -0.45 0.25 -0.43 0.24 -0.41 0.24 -0.4 0.24 -0.41 0.25 -0.42 0.22 -0.36 0.22 -0.37 0.23 -0.38 0.21 -0.35 0.22 -0.37 0.2 -0.33 0.2 -0.33 0.18 -0.31 0.19 -0.32 0.19 -0.33 33.26 19.49 -0.23 0.4 -0.24 0.4 -0.25 0.41 -0.23 0.39 -0.24 0.39 -0.22 0.36 -0.23 0.38 -0.21 0.35 -0.22 0.36 -0.23 0.37 -0.19 0.32 -0.2 0.34 -0.21 0.35 -0.21 0.35 -0.19 0.33 -0.19 0.32 -0.14 0.23zm0.14 -0.23c-5.34,9.21 -17.14,12.34 -26.35,7 -9.21,-5.34 -12.34,-17.14 -7,-26.35l33.34 19.35zm-0.5 0.81l-33.4 -19.25 -0.52 0.97 0.23 -0.45 0.3 -0.54 0.16 -0.27 0.21 -0.34 0.18 -0.3 0.18 -0.28 0.15 -0.23 0.01 -0.01 -0.09 0.14 -0.09 0.16 33.07 19.82 -0.24 0.4 -0.24 0.37 -0.14 0.21 0.01 -0.01 0.04 -0.07 0.06 -0.09 0.14 -0.24 0.1 -0.17 0.24 -0.44 0.18 -0.34 -0.52 0.97zm0.52 -0.97c-4.78,9.51 -16.36,13.35 -25.88,8.57 -9.51,-4.78 -13.35,-16.36 -8.57,-25.88l34.45 17.31zm-8.01 14.5l-32.09 -21.36 -1.03 1.74 0.45 -0.85 0.45 -0.84 0.44 -0.84 0.45 -0.85 0.45 -0.83 0.45 -0.83 0.46 -0.85 0.45 -0.82 0.45 -0.82 0.46 -0.83 0.45 -0.81 0.45 -0.8 0.45 -0.8 0.44 -0.78 0.23 -0.41 0.23 -0.41 0.23 -0.4 0.22 -0.38 33.4 19.25 -0.2 0.35 -0.2 0.34 -0.19 0.34 -0.19 0.34 -0.41 0.72 -0.4 0.72 -0.41 0.73 -0.41 0.73 -0.4 0.72 -0.41 0.74 -0.41 0.75 -0.4 0.73 -0.41 0.76 -0.41 0.76 -0.4 0.75 -0.41 0.77 -0.41 0.77 -0.4 0.77 -1.03 1.74zm1.03 -1.74c-4.94,9.43 -16.59,13.07 -26.02,8.14 -9.43,-4.94 -13.07,-16.59 -8.14,-26.02l34.15 17.88zm-0.63 1.33l-34.22 -17.75 -0.58 1.23 0.02 -0.04 0 0 0 -0 0.04 -0.09 0.08 -0.19 0.06 -0.15 0.08 -0.19 0.13 -0.28 0.13 -0.28 0.16 -0.34 0.19 -0.39 0.23 -0.44 0.18 -0.34 0.24 -0.43 0.31 -0.53 0.02 -0.04 0.22 -0.35 0.22 -0.34 32.09 21.36 0.17 -0.26 0.17 -0.27 -0.02 0.04 0.27 -0.45 0.15 -0.27 0.09 -0.17 0.14 -0.27 0.1 -0.21 0.08 -0.16 0.05 -0.11 0.05 -0.1 0.01 -0.01 -0.01 0.03 0.01 -0.01 -0.04 0.09 -0.08 0.18 -0.08 0.18 -0.06 0.14 -0.58 1.23zm0.58 -1.23c-4.22,9.77 -15.57,14.27 -25.34,10.05 -9.77,-4.22 -14.27,-15.57 -10.05,-25.34l35.39 15.29zm-3.09 6.25l-34.51 -17.17 -0.11 0.22 0.18 -0.38 0.17 -0.36 0.17 -0.36 0.17 -0.36 0.17 -0.36 0.18 -0.37 0.18 -0.37 0.18 -0.36 0.18 -0.36 0.19 -0.37 0.19 -0.37 0.18 -0.36 0.18 -0.36 0.18 -0.36 0.19 -0.37 0.19 -0.37 34.22 17.75 -0.15 0.3 -0.15 0.3 -0.16 0.31 -0.15 0.31 -0.16 0.3 -0.15 0.29 -0.15 0.29 -0.15 0.3 -0.15 0.3 -0.14 0.29 -0.14 0.29 -0.15 0.3 -0.15 0.31 -0.15 0.31 -0.15 0.31 -0.14 0.3 -0.11 0.22zm0.11 -0.22c-4.62,9.59 -16.14,13.61 -25.73,8.99 -9.59,-4.62 -13.61,-16.14 -8.99,-25.73l34.72 16.74zm-0.47 1l-34.59 -17.02 0.04 -0.08 -0.1 0.2 -0.08 0.17 -0 0 0.07 -0.16 0.01 -0.03 0.12 -0.26 0.18 -0.38 0.2 -0.41 34.51 17.17 0.1 -0.2 0.08 -0.17 0.02 -0.04 -0.09 0.19 -0.03 0.07 -0.1 0.22 -0.18 0.38 -0.2 0.41 0.04 -0.08zm-0.04 0.08c-4.74,9.53 -16.31,13.41 -25.84,8.67 -9.53,-4.74 -13.41,-16.31 -8.67,-25.84l34.51 17.17zm-5.38 12l-35.44 -15.17 -0.12 0.29 0.19 -0.47 0.2 -0.48 0.2 -0.47 0.19 -0.46 0.2 -0.48 0.2 -0.46 0.2 -0.48 0.19 -0.44 0.2 -0.46 0.2 -0.47 0.2 -0.46 0.2 -0.45 0.2 -0.45 0.2 -0.45 0.19 -0.44 0.2 -0.44 0.2 -0.44 0.2 -0.44 0.2 -0.43 0.21 -0.45 0.2 -0.43 0.2 -0.43 0.21 -0.44 0.19 -0.41 0.21 -0.45 0.21 -0.43 0.19 -0.41 0.2 -0.42 0.21 -0.43 0.21 -0.43 0.2 -0.4 0.21 -0.42 34.59 17.02 -0.17 0.34 -0.18 0.36 -0.16 0.34 -0.16 0.34 -0.17 0.35 -0.17 0.36 -0.16 0.34 -0.16 0.33 -0.17 0.37 -0.16 0.35 -0.17 0.36 -0.17 0.36 -0.16 0.34 -0.17 0.37 -0.16 0.36 -0.16 0.36 -0.17 0.38 -0.17 0.38 -0.16 0.37 -0.16 0.37 -0.16 0.37 -0.16 0.38 -0.16 0.37 -0.16 0.38 -0.17 0.41 -0.16 0.37 -0.16 0.39 -0.16 0.38 -0.17 0.41 -0.17 0.4 -0.16 0.39 -0.17 0.41 -0.12 0.29zm0.12 -0.29c-4.03,9.85 -15.28,14.57 -25.14,10.55 -9.85,-4.03 -14.57,-15.28 -10.55,-25.14l35.68 14.59zm-2.9 7.08l-35.59 -14.82 -0.1 0.24 0.17 -0.43 0.17 -0.44 0.18 -0.46 0.17 -0.44 0.18 -0.46 0.18 -0.46 0.18 -0.44 0.19 -0.47 0.19 -0.46 0.19 -0.47 0.2 -0.48 0.2 -0.48 0.2 -0.48 0.19 -0.46 0.21 -0.5 0.21 -0.49 35.44 15.17 -0.16 0.38 -0.16 0.37 -0.17 0.41 -0.16 0.39 -0.16 0.39 -0.16 0.39 -0.16 0.4 -0.17 0.42 -0.16 0.4 -0.18 0.44 -0.17 0.41 -0.17 0.41 -0.17 0.44 -0.17 0.41 -0.17 0.44 -0.18 0.44 -0.1 0.24zm0.1 -0.24c-3.96,9.88 -15.18,14.68 -25.06,10.73 -9.88,-3.96 -14.68,-15.18 -10.73,-25.06l35.79 14.33zm-2.14 5.44l-35.23 -15.66 -0.43 1.05 0.12 -0.31 0.11 -0.3 0.1 -0.28 0.12 -0.32 0.14 -0.36 0.11 -0.3 0.11 -0.3 0.14 -0.38 0.14 -0.35 0.13 -0.33 0.13 -0.34 0.14 -0.35 0.15 -0.36 0.15 -0.36 0.15 -0.36 0.16 -0.38 35.59 14.82 -0.09 0.21 -0.1 0.23 -0.1 0.23 -0.09 0.23 -0.1 0.25 -0.1 0.25 -0.1 0.27 -0.1 0.25 -0.08 0.22 -0.11 0.3 -0.11 0.3 -0.09 0.23 -0.1 0.28 -0.12 0.32 -0.11 0.3 -0.11 0.28 -0.43 1.05zm0.43 -1.05c-3.75,9.96 -14.86,15 -24.83,11.26 -9.96,-3.75 -15,-14.86 -11.26,-24.83l36.08 13.57zm-1.17 3.15l-36.4 -12.7 -0.19 0.57 0.09 -0.29 0.11 -0.33 0.09 -0.28 0.1 -0.31 0.12 -0.36 0.11 -0.33 0.12 -0.34 0.11 -0.31 0.14 -0.39 0.14 -0.37 0.12 -0.32 0.16 -0.42 0.15 -0.37 0.14 -0.34 0.14 -0.34 0.07 -0.15 0.06 -0.15 0.11 -0.24 35.23 15.66 0.01 -0.02 -0.03 0.08 -0.03 0.08 0.05 -0.11 -0.05 0.12 -0.04 0.09 -0.02 0.05 -0.06 0.15 -0.04 0.09 -0.03 0.07 -0.05 0.15 -0.04 0.11 -0.04 0.12 -0.03 0.08 -0.04 0.12 -0.05 0.14 -0.03 0.09 -0.04 0.12 -0.19 0.57zm0.19 -0.57c-3.19,10.16 -14.01,15.8 -24.16,12.62 -10.16,-3.19 -15.8,-14.01 -12.62,-24.16l36.78 11.55zm-1.89 5.45l-35.78 -14.36 -0.4 1.1 0.1 -0.29 0.1 -0.29 0.1 -0.3 0.1 -0.28 0.11 -0.31 0.1 -0.28 0.08 -0.23 0.09 -0.27 0.1 -0.28 0.11 -0.31 0.09 -0.25 0.08 -0.22 0.09 -0.26 0.09 -0.25 0.09 -0.25 0.09 -0.25 36.4 12.7 -0.09 0.24 -0.09 0.25 -0.09 0.25 -0.08 0.23 -0.1 0.28 -0.09 0.25 -0.07 0.19 -0.08 0.22 -0.08 0.24 -0.1 0.28 -0.08 0.23 -0.07 0.2 -0.08 0.23 -0.07 0.22 -0.08 0.23 -0.08 0.23 -0.4 1.1zm0.4 -1.1c-3.36,10.1 -14.27,15.57 -24.37,12.21 -10.1,-3.36 -15.57,-14.27 -12.21,-24.37l36.58 12.16zm-0.74 2.12l-36.96 -10.96 0.06 -0.19 0.05 -0.15 0.04 -0.14 0.08 -0.27 0.07 -0.21 0.07 -0.23 0.08 -0.25 0.08 -0.23 0.08 -0.25 0.1 -0.29 0.1 -0.29 0.09 -0.25 0.11 -0.32 0.14 -0.38 0.12 -0.32 0.11 -0.29 0.14 -0.35 35.78 14.36 -0.01 0.02 -0.03 0.07 -0.02 0.04 0.01 -0.02 -0.01 0.02 -0.03 0.1 -0.02 0.05 -0.02 0.05 -0.03 0.08 -0.03 0.1 -0.03 0.08 -0.03 0.1 -0.04 0.12 -0.02 0.05 -0.06 0.18 -0.05 0.17 0.06 -0.19zm-0.06 0.19c-3.13,10.17 -13.92,15.88 -24.1,12.75 -10.17,-3.13 -15.88,-13.92 -12.75,-24.1l36.84 11.35zm-1.85 5.68l-36.33 -12.88 0.05 -0.15 0.06 -0.17 0.06 -0.18 0.08 -0.23 0.07 -0.2 0.06 -0.19 0.07 -0.22 0.07 -0.22 0.08 -0.25 0.08 -0.23 0.08 -0.25 0.09 -0.3 0.08 -0.26 0.07 -0.24 0.08 -0.28 0.08 -0.27 0.09 -0.3 36.96 10.96 -0.11 0.37 -0.12 0.39 -0.11 0.38 -0.12 0.41 -0.12 0.38 -0.11 0.34 -0.12 0.38 -0.12 0.38 -0.12 0.36 -0.12 0.38 -0.13 0.38 -0.14 0.4 -0.13 0.37 -0.12 0.34 -0.13 0.38 -0.14 0.38 0.05 -0.15zm-0.05 0.15c-3.64,10 -14.7,15.16 -24.7,11.52 -10,-3.64 -15.16,-14.7 -11.52,-24.7l36.23 13.18zm-0.55 1.82l-36.71 -11.78 -0.34 1.19 0.08 -0.32 0.1 -0.37 0.07 -0.25 0.08 -0.27 0.1 -0.34 0.08 -0.25 0.08 -0.25 0.1 -0.32 0.09 -0.29 0.08 -0.23 0.07 -0.22 0.09 -0.27 0.07 -0.2 0.07 -0.21 0.09 -0.27 0.07 -0.2 36.33 12.88 -0.05 0.15 -0.03 0.07 -0.05 0.13 -0.04 0.13 -0.02 0.06 -0.03 0.1 -0.03 0.09 -0.01 0.02 0 -0.01 -0.02 0.06 -0.02 0.05 0.01 -0.04 -0.01 0.03 -0.01 0.05 0.02 -0.07 0.01 -0.03 -0.34 1.19zm0.34 -1.19c-2.6,10.32 -13.07,16.59 -23.4,13.99 -10.32,-2.6 -16.59,-13.07 -13.99,-23.4l37.39 9.41zm-2.02 6.68l-36.8 -11.49 -0.13 0.45 0.12 -0.42 0.11 -0.39 0.12 -0.39 0.12 -0.4 0.12 -0.41 0.11 -0.37 0.13 -0.41 0.12 -0.38 0.11 -0.37 0.13 -0.42 0.11 -0.36 0.12 -0.39 0.12 -0.36 0.12 -0.37 0.13 -0.4 0.12 -0.36 36.71 11.78 -0.11 0.34 -0.1 0.3 -0.11 0.33 -0.11 0.34 -0.1 0.31 -0.11 0.34 -0.09 0.29 -0.1 0.33 -0.1 0.32 -0.09 0.3 -0.1 0.33 -0.09 0.3 -0.09 0.3 -0.09 0.31 -0.09 0.31 -0.08 0.28 -0.13 0.45zm0.13 -0.45c-2.92,10.24 -13.59,16.16 -23.83,13.24 -10.24,-2.92 -16.16,-13.59 -13.24,-23.83l37.07 10.59zm-1.81 6.6l-37.16 -10.26 -0.08 0.31 0.12 -0.45 0.11 -0.44 0.11 -0.42 0.12 -0.46 0.13 -0.5 0.12 -0.45 0.12 -0.44 0.14 -0.51 0.14 -0.5 0.13 -0.48 0.13 -0.48 0.14 -0.51 0.15 -0.51 0.14 -0.47 0.09 -0.29 0.09 -0.29 0.07 -0.23 0.08 -0.27 36.8 11.49 -0.04 0.13 -0.05 0.17 -0.04 0.12 -0.04 0.12 -0.1 0.34 -0.09 0.32 -0.09 0.33 -0.1 0.36 -0.1 0.37 -0.09 0.34 -0.09 0.35 -0.11 0.42 -0.11 0.41 -0.1 0.37 -0.1 0.4 -0.12 0.45 -0.11 0.43 -0.11 0.42 -0.08 0.31zm0.08 -0.31c-2.66,10.31 -13.17,16.51 -23.48,13.85 -10.31,-2.66 -16.51,-13.17 -13.85,-23.48l37.33 9.63zm-1.03 3.97l-37.4 -9.35 0 -0.01 0.08 -0.32 0.07 -0.26 0.07 -0.29 0.08 -0.3 0.07 -0.27 0.08 -0.31 0.08 -0.31 0.07 -0.25 0.06 -0.25 0.08 -0.33 0.07 -0.27 0.07 -0.28 0.08 -0.31 0.07 -0.25 0.07 -0.26 0.08 -0.3 37.16 10.26 -0.04 0.15 -0.05 0.2 -0.06 0.22 -0.04 0.16 -0.05 0.2 -0.06 0.22 -0.04 0.17 -0.06 0.25 -0.07 0.27 -0.06 0.22 -0.06 0.23 -0.07 0.27 -0.07 0.26 -0.07 0.28 -0.08 0.32 -0.07 0.27 0 -0.01zm-0 0.01c-2.58,10.33 -13.05,16.6 -23.38,14.02 -10.33,-2.58 -16.6,-13.05 -14.02,-23.38l37.4 9.36zm-0.95 3.81l-37.21 -10.09 -0.21 0.86 0.07 -0.32 0.07 -0.32 0.08 -0.34 0.08 -0.35 0.07 -0.28 0.06 -0.23 0.07 -0.26 0.06 -0.24 0.06 -0.24 0.07 -0.27 0.07 -0.25 0.05 -0.2 0.04 -0.16 0.04 -0.15 0.04 -0.16 0.04 -0.16 37.4 9.35 -0.06 0.24 -0.06 0.24 -0.07 0.26 -0.07 0.26 -0.06 0.22 -0.05 0.17 -0.04 0.16 -0.05 0.19 -0.05 0.19 -0.05 0.18 -0.05 0.21 -0.04 0.16 -0.02 0.1 -0.03 0.11 -0.03 0.12 -0.03 0.13 -0.21 0.86zm0.21 -0.86c-2.31,10.39 -12.61,16.94 -23,14.64 -10.39,-2.31 -16.94,-12.61 -14.64,-23l37.63 8.36zm-37.62 -8.5l0.2 -0.73 37.21 10.09 -0.2 0.73 -37.33 -9.6 0.13 -0.49zm37.21 10.09c-2.78,10.27 -13.37,16.34 -23.65,13.56 -10.27,-2.78 -16.34,-13.37 -13.56,-23.65l37.21 10.09zm-1.34 6.23l-37.58 -8.61 -0.18 0.85 0.1 -0.53 0.1 -0.5 0.1 -0.53 0.1 -0.5 0.1 -0.5 0.11 -0.53 0.11 -0.51 0.11 -0.49 0.11 -0.49 0.12 -0.51 0.12 -0.52 0.11 -0.49 0.12 -0.49 0.12 -0.5 0.12 -0.48 0.12 -0.49 37.46 9.1 -0.1 0.42 -0.1 0.43 -0.1 0.41 -0.09 0.4 -0.09 0.4 -0.08 0.37 -0.08 0.37 -0.09 0.39 -0.08 0.38 -0.08 0.35 -0.07 0.33 -0.07 0.34 -0.07 0.34 -0.06 0.31 -0.06 0.33 -0.06 0.3 -0.18 0.85zm0.18 -0.85c-1.91,10.47 -11.95,17.42 -22.42,15.51 -10.47,-1.91 -17.42,-11.95 -15.51,-22.42l37.93 6.91zm-18.96 -3.46l0 0 0 0 0 0 18.79 4.31 -18.79 -4.31zm18.96 3.46c-1.91,10.47 -11.95,17.42 -22.42,15.51 -10.47,-1.91 -17.42,-11.95 -15.51,-22.42l37.93 6.91zm-37.95 -6.9l0.2 -0.86 37.58 8.61 -0.2 0.86 -37.69 -8.08 0.12 -0.54zm37.58 8.61c-2.38,10.38 -12.72,16.86 -23.09,14.48 -10.37,-2.38 -16.86,-12.72 -14.48,-23.09l37.58 8.61zm-0.84 2.79l-38.55 0 0.26 -3.17 0.08 -0.5 0.09 -0.53 0.09 -0.5 0.08 -0.47 0.09 -0.5 0.09 -0.5 0.09 -0.48 0.09 -0.48 0.1 -0.51 0.09 -0.47 0.09 -0.45 0.09 -0.48 0.09 -0.48 0.09 -0.45 0.09 -0.45 0.09 -0.45 37.81 7.54 -0.08 0.43 -0.09 0.43 -0.08 0.42 -0.08 0.4 -0.08 0.41 -0.08 0.44 -0.08 0.41 -0.07 0.38 -0.08 0.42 -0.08 0.41 -0.07 0.39 -0.07 0.39 -0.07 0.42 -0.07 0.39 -0.06 0.36 -0.07 0.39 0.26 -3.17zm-0.26 3.17c-1.75,10.5 -11.69,17.59 -22.19,15.84 -10.5,-1.75 -17.59,-11.69 -15.84,-22.19l38.02 6.35zm-0.68 2.91l-36.66 -11.91 -0.94 5.95 0 -0.01 0 -0.03 0 -0.04 0 -0.05 38.55 0 0 0.05 0 0.04 0 0.03 0 0.01 -0.94 5.95zm0.94 -5.95c0,10.65 -8.63,19.28 -19.28,19.28 -10.65,0 -19.28,-8.63 -19.28,-19.28l38.55 0zm-19.28 0l0 0 0 0 0 0 18.33 5.95 -18.33 -5.95zm19.28 0c0,10.65 -8.63,19.28 -19.28,19.28 -10.65,0 -19.28,-8.63 -19.28,-19.28l38.55 0zm-37.67 -5.76l0.06 -0.2 36.66 11.91 -0.06 0.2 -37.32 -9.28 0.66 -2.63zm36.66 11.91c-3.29,10.12 -14.16,15.67 -24.29,12.38 -10.12,-3.29 -15.67,-14.16 -12.38,-24.29l36.66 11.91zm-2.15 17.39l-38.2 -5.17 -0.07 0.57 0.07 -0.69 0.08 -0.71 0.08 -0.71 0.08 -0.67 0.08 -0.71 0.08 -0.71 0.08 -0.67 0.09 -0.71 0.09 -0.69 0.09 -0.69 0.09 -0.71 0.09 -0.69 0.09 -0.69 0.09 -0.71 0.1 -0.69 0.1 -0.68 0.1 -0.69 0.1 -0.69 0.1 -0.69 0.1 -0.69 0.11 -0.7 0.1 -0.67 0.11 -0.69 0.11 -0.7 0.11 -0.68 0.11 -0.68 0.11 -0.67 0.11 -0.68 0.12 -0.7 0.11 -0.67 0.12 -0.68 0.12 -0.68 37.98 6.64 -0.1 0.6 -0.1 0.61 -0.11 0.62 -0.1 0.58 -0.1 0.61 -0.1 0.62 -0.1 0.61 -0.1 0.61 -0.09 0.59 -0.09 0.61 -0.1 0.63 -0.09 0.59 -0.09 0.61 -0.09 0.61 -0.09 0.61 -0.09 0.61 -0.09 0.61 -0.08 0.61 -0.08 0.6 -0.08 0.61 -0.08 0.61 -0.08 0.6 -0.08 0.61 -0.08 0.62 -0.07 0.6 -0.08 0.63 -0.07 0.6 -0.07 0.6 -0.07 0.63 -0.07 0.6 -0.06 0.6 -0.07 0.62 -0.07 0.57zm0.07 -0.57c-1.11,10.59 -10.6,18.27 -21.18,17.16 -10.59,-1.11 -18.27,-10.6 -17.16,-21.18l38.34 4.02zm-0.46 4.34l-38.35 -3.94 -0.02 0.24 0.03 -0.3 0.02 -0.23 0.03 -0.32 0.03 -0.32 0.03 -0.27 0.04 -0.36 0.03 -0.32 0.03 -0.27 0.03 -0.32 0.04 -0.36 0.04 -0.36 0.04 -0.36 0.04 -0.31 0.04 -0.37 0.05 -0.4 0.05 -0.35 38.2 5.17 -0.03 0.19 -0.02 0.14 -0.02 0.18 -0.03 0.24 -0.02 0.19 -0.02 0.19 -0.02 0.19 -0.02 0.23 -0.03 0.27 -0.02 0.23 -0.02 0.19 -0.03 0.27 -0.02 0.23 -0.02 0.23 -0.03 0.32 -0.02 0.25 -0.02 0.24zm0.02 -0.24c-0.96,10.6 -10.33,18.42 -20.93,17.46 -10.6,-0.96 -18.42,-10.33 -17.46,-20.93l38.39 3.47zm-0.94 12.49l-38.5 -2.05 -0.01 0.12 0.02 -0.44 0.02 -0.43 0.02 -0.43 0.02 -0.46 0.02 -0.43 0.03 -0.43 0.03 -0.43 0.03 -0.43 0.03 -0.47 0.03 -0.44 0.03 -0.43 0.03 -0.47 0.03 -0.44 0.03 -0.44 0.03 -0.44 0.03 -0.44 0.04 -0.47 0.04 -0.44 0.03 -0.44 0.04 -0.47 0.04 -0.44 0.04 -0.44 0.04 -0.44 0.04 -0.45 0.04 -0.47 0.04 -0.45 0.04 -0.45 0.04 -0.45 0.04 -0.45 0.05 -0.48 0.05 -0.45 0.05 -0.45 38.35 3.94 -0.04 0.39 -0.04 0.4 -0.04 0.37 -0.04 0.39 -0.04 0.4 -0.04 0.39 -0.04 0.39 -0.03 0.36 -0.03 0.39 -0.03 0.39 -0.03 0.39 -0.03 0.39 -0.03 0.36 -0.03 0.39 -0.03 0.39 -0.03 0.36 -0.03 0.38 -0.03 0.39 -0.03 0.39 -0.03 0.38 -0.02 0.35 -0.02 0.38 -0.03 0.38 -0.02 0.35 -0.02 0.38 -0.02 0.38 -0.02 0.38 -0.02 0.38 -0.02 0.34 -0.02 0.37 -0.02 0.37 -0.02 0.36 -0.01 0.12zm0.01 -0.12c-0.5,10.63 -9.52,18.85 -20.16,18.35 -10.63,-0.5 -18.85,-9.52 -18.35,-20.16l38.51 1.8zm-0.38 14.82l-38.55 0 0 0 0 -0.53 0 -0.56 0 -0.53 0 -0.53 0 -0.53 0 -0.53 0.01 -0.55 0.01 -0.53 0.01 -0.53 0.01 -0.53 0.01 -0.52 0.01 -0.55 0.01 -0.52 0.01 -0.52 0.01 -0.54 0.01 -0.52 0.01 -0.52 0.01 -0.52 0.02 -0.51 0.02 -0.54 0.02 -0.51 0.02 -0.51 0.02 -0.54 0.02 -0.51 0.02 -0.48 0.02 -0.53 0.02 -0.53 0.02 -0.48 0.02 -0.53 0.03 -0.53 0.02 -0.47 0.03 -0.51 38.5 2.05 -0.02 0.42 -0.02 0.47 -0.02 0.42 -0.02 0.42 -0.02 0.47 -0.02 0.42 -0.02 0.43 -0.02 0.48 -0.02 0.45 -0.02 0.43 -0.02 0.46 -0.02 0.46 -0.01 0.44 -0.01 0.46 -0.01 0.46 -0.01 0.47 -0.01 0.47 -0.01 0.45 -0.01 0.47 -0.01 0.47 -0.01 0.45 -0.01 0.47 -0.01 0.48 -0.01 0.48 -0.01 0.48 -0.01 0.46 -0 0.48 -0 0.48 -0 0.48 -0 0.48 -0 0.46 0 0.49 0 0zm0 0c0,10.65 -8.63,19.28 -19.28,19.28 -10.65,0 -19.28,-8.63 -19.28,-19.28l38.55 0zm0.58 18.23l-38.52 1.62 0.03 0.46 -0.04 -0.6 -0.04 -0.61 -0.04 -0.63 -0.03 -0.59 -0.04 -0.62 -0.03 -0.62 -0.03 -0.6 -0.03 -0.62 -0.03 -0.64 -0.03 -0.62 -0.03 -0.6 -0.03 -0.63 -0.02 -0.63 -0.02 -0.61 -0.02 -0.63 -0.02 -0.65 -0.02 -0.62 -0.02 -0.64 -0.02 -0.64 -0.02 -0.64 -0.01 -0.65 -0.01 -0.63 -0.01 -0.65 -0.01 -0.67 -0.01 -0.65 -0.01 -0.64 -0.01 -0.64 -0.01 -0.66 -0.01 -0.68 -0 -0.65 -0 -0.67 0 -0.67 38.55 0 0 0.59 0 0.59 0 0.61 0 0.56 0.01 0.58 0.01 0.6 0.01 0.59 0.01 0.57 0.01 0.55 0.01 0.57 0.01 0.58 0.01 0.56 0.01 0.56 0.01 0.55 0.02 0.55 0.02 0.57 0.02 0.53 0.02 0.54 0.02 0.56 0.02 0.54 0.02 0.54 0.02 0.56 0.02 0.54 0.02 0.51 0.03 0.53 0.03 0.55 0.03 0.53 0.03 0.53 0.03 0.55 0.03 0.5 0.03 0.52 0.03 0.53 0.03 0.46zm-0.03 -0.46c0.7,10.62 -7.34,19.8 -17.96,20.5 -10.62,0.7 -19.8,-7.34 -20.5,-17.96l38.47 -2.54zm0.32 4.52l-38.44 2.92 0.01 0.13 -0.03 -0.31 -0.02 -0.3 -0.03 -0.29 -0.03 -0.34 -0.02 -0.29 -0.03 -0.34 -0.03 -0.37 -0.02 -0.33 -0.02 -0.33 -0.02 -0.33 -0.03 -0.37 -0.02 -0.37 -0.02 -0.37 -0.02 -0.37 -0.02 -0.37 -0.02 -0.4 38.52 -1.62 0.01 0.17 0.01 0.21 0.01 0.21 0.01 0.21 0.01 0.21 0.02 0.22 0.02 0.26 0.02 0.26 0.02 0.26 0.02 0.22 0.02 0.26 0.03 0.3 0.02 0.26 0.03 0.3 0.02 0.3 0.02 0.28 0.01 0.13zm-0.01 -0.13c0.88,10.61 -7.01,19.92 -17.62,20.8 -10.61,0.88 -19.92,-7.01 -20.8,-17.62l38.42 -3.19zm0.2 2.5l-38.42 3.24 -0.01 -0.16 -0.01 -0.11 -0.02 -0.22 -0.01 -0.15 -0.01 -0.07 -0.01 -0.15 -0.01 -0.15 -0.01 -0.15 -0.01 -0.16 -0.01 -0.15 -0.01 -0.15 -0.01 -0.17 -0.01 -0.16 -0.02 -0.24 -0.01 -0.16 -0.01 -0.09 -0.02 -0.21 38.44 -2.92 0.01 0.11 0.02 0.22 0.01 0.15 0.01 0.08 0.01 0.15 0.01 0.14 0.01 0.15 0.01 0.16 0.01 0.15 0.01 0.16 0.01 0.16 0.01 0.16 0.02 0.25 0.01 0.16 0.01 0.1 0.02 0.21 -0.01 -0.16zm0.01 0.16c0.8,10.61 -7.15,19.87 -17.76,20.68 -10.61,0.8 -19.87,-7.15 -20.68,-17.76l38.44 -2.91zm1.38 13.99l-38.55 0 0.18 2.61 -0.06 -0.47 -0.06 -0.43 -0.06 -0.46 -0.06 -0.49 -0.05 -0.43 -0.05 -0.43 -0.06 -0.46 -0.05 -0.43 -0.05 -0.45 -0.05 -0.46 -0.05 -0.42 -0.05 -0.42 -0.05 -0.45 -0.05 -0.45 -0.04 -0.39 -0.05 -0.45 -0.08 -0.84 -0.08 -0.84 -0.08 -0.82 -0.08 -0.81 -0.07 -0.81 -0.07 -0.79 -0.07 -0.78 -0.07 -0.76 38.42 -3.24 0.06 0.71 0.06 0.71 0.06 0.72 0.06 0.71 0.07 0.72 0.07 0.73 0.07 0.72 0.07 0.73 0.04 0.34 0.04 0.4 0.04 0.34 0.04 0.34 0.04 0.38 0.04 0.38 0.04 0.34 0.04 0.35 0.05 0.38 0.04 0.35 0.05 0.38 0.05 0.38 0.04 0.32 0.05 0.36 0.05 0.39 0.05 0.35 0.18 2.61zm-0.18 -2.61c1.44,10.55 -5.95,20.27 -16.49,21.7 -10.55,1.44 -20.27,-5.95 -21.7,-16.49l38.2 -5.21zm0.08 0.71l-38.23 4.98 0.82 3.57 -0.24 -0.76 -0.17 -0.63 -0.15 -0.64 -0.14 -0.71 -0.1 -0.61 -0.05 -0.35 -0.08 -0.68 -0.06 -0.69 -0.02 -0.4 -0.02 -0.56 -0.01 -0.4 -0 -0.24 38.55 0 -0 -0.09 -0 -0.25 -0.02 -0.41 -0.01 -0.25 -0.05 -0.62 -0.07 -0.6 -0.04 -0.28 -0.09 -0.53 -0.13 -0.63 -0.13 -0.57 -0.15 -0.55 -0.21 -0.69 0.82 3.57zm-0.82 -3.57c3.35,10.11 -2.13,21.01 -12.24,24.36 -10.11,3.35 -21.01,-2.13 -24.36,-12.24l36.6 -12.12zm4.63 28.02l-38.55 0 0.41 3.95 -0.15 -0.71 -0.14 -0.71 -0.15 -0.72 -0.14 -0.71 -0.14 -0.71 -0.14 -0.73 -0.14 -0.73 -0.13 -0.71 -0.13 -0.7 -0.13 -0.74 -0.13 -0.74 -0.13 -0.72 -0.13 -0.72 -0.12 -0.72 -0.12 -0.73 -0.12 -0.75 -0.12 -0.73 -0.12 -0.72 -0.12 -0.75 -0.11 -0.74 -0.12 -0.74 -0.11 -0.75 -0.11 -0.72 -0.11 -0.74 -0.11 -0.76 -0.1 -0.73 -0.11 -0.75 -0.1 -0.75 -0.1 -0.75 -0.1 -0.77 -0.1 -0.74 -0.1 -0.75 38.23 -4.98 0.09 0.68 0.09 0.69 0.09 0.65 0.09 0.67 0.09 0.67 0.09 0.67 0.1 0.68 0.09 0.65 0.1 0.66 0.1 0.67 0.1 0.64 0.1 0.66 0.1 0.65 0.1 0.64 0.11 0.67 0.1 0.65 0.1 0.63 0.11 0.64 0.11 0.64 0.11 0.64 0.11 0.63 0.11 0.62 0.11 0.61 0.12 0.65 0.12 0.63 0.11 0.6 0.12 0.6 0.12 0.62 0.12 0.62 0.12 0.6 0.12 0.61 0.12 0.6 0.41 3.95zm-0.41 -3.95c2.18,10.42 -4.49,20.64 -14.91,22.82 -10.42,2.18 -20.64,-4.49 -22.82,-14.91l37.73 -7.9zm-38.14 4.88l0 -0.93 38.55 0 0 0.93 -32.91 13.63 -5.65 -13.63zm38.55 0c0,10.65 -8.63,19.28 -19.28,19.28 -10.65,0 -19.28,-8.63 -19.28,-19.28l38.55 0zm-32.64 13.9l-0.27 -0.27 27.26 -27.26 0.27 0.27 5.25 9.76 -32.51 17.5zm27.26 -27.26c7.53,7.53 7.53,19.73 0,27.26 -7.53,7.53 -19.73,7.53 -27.26,0l27.26 -27.26zm10.96 32.51l-36.97 10.93 -0 -0.01 -0.24 -0.81 -0.23 -0.81 -0.23 -0.8 -0.23 -0.8 -0.23 -0.82 -0.23 -0.81 -0.22 -0.8 -0.22 -0.8 -0.22 -0.8 -0.22 -0.82 -0.21 -0.81 -0.21 -0.8 -0.21 -0.82 -0.21 -0.82 -0.21 -0.81 -0.2 -0.79 -0.21 -0.83 -0.2 -0.82 -0.2 -0.81 -0.2 -0.82 -0.19 -0.81 -0.19 -0.81 -0.19 -0.82 -0.19 -0.82 -0.18 -0.82 -0.18 -0.8 -0.18 -0.81 -0.18 -0.82 -0.18 -0.82 -0.17 -0.81 -0.17 -0.82 -0.17 -0.81 37.77 -7.74 0.14 0.7 0.15 0.7 0.15 0.71 0.15 0.7 0.15 0.7 0.16 0.72 0.16 0.72 0.16 0.7 0.16 0.7 0.16 0.71 0.17 0.72 0.17 0.72 0.17 0.7 0.18 0.72 0.17 0.71 0.18 0.7 0.18 0.73 0.18 0.72 0.18 0.7 0.18 0.7 0.19 0.72 0.19 0.72 0.19 0.7 0.2 0.72 0.2 0.72 0.2 0.72 0.2 0.71 0.2 0.7 0.21 0.72 0.21 0.72 0.21 0.71 0.21 0.71 -0 -0.01zm0 0.01c3.01,10.21 -2.82,20.93 -13.03,23.94 -10.21,3.01 -20.93,-2.82 -23.94,-13.03l36.97 -10.91zm18.38 46.57l-34.59 17.02 0.07 0.14 -0.79 -1.59 -0.78 -1.59 -0.77 -1.59 -0.77 -1.61 -0.75 -1.61 -0.75 -1.61 -0.74 -1.62 -0.73 -1.61 -0.72 -1.63 -0.71 -1.63 -0.7 -1.62 -0.7 -1.64 -0.68 -1.64 -0.67 -1.64 -0.66 -1.65 -0.66 -1.65 -0.65 -1.66 -0.64 -1.66 -0.63 -1.66 -0.62 -1.67 -0.61 -1.67 -0.6 -1.67 -0.59 -1.68 -0.58 -1.68 -0.57 -1.68 -0.56 -1.68 -0.56 -1.69 -0.54 -1.69 -0.54 -1.69 -0.53 -1.69 -0.52 -1.7 -0.51 -1.7 36.97 -10.93 0.45 1.49 0.46 1.49 0.46 1.49 0.47 1.49 0.48 1.49 0.49 1.49 0.5 1.48 0.5 1.48 0.51 1.48 0.52 1.48 0.53 1.48 0.54 1.47 0.54 1.46 0.55 1.46 0.56 1.46 0.57 1.46 0.58 1.45 0.59 1.45 0.59 1.45 0.6 1.44 0.61 1.43 0.62 1.44 0.62 1.43 0.63 1.42 0.64 1.43 0.65 1.42 0.66 1.42 0.66 1.41 0.67 1.4 0.68 1.41 0.69 1.4 0.69 1.39 0.07 0.14zm-0.07 -0.14c4.77,9.51 0.93,21.1 -8.58,25.87 -9.51,4.77 -21.1,0.93 -25.87,-8.58l34.45 -17.3zm27.47 44.67l-30.88 23.08 0.01 0.02 -1.12 -1.5 -1.11 -1.51 -1.1 -1.52 -1.09 -1.52 -1.08 -1.52 -1.08 -1.54 -1.07 -1.54 -1.06 -1.54 -1.04 -1.54 -1.04 -1.55 -1.03 -1.56 -1.02 -1.56 -1.01 -1.57 -1 -1.57 -0.99 -1.58 -0.98 -1.58 -0.97 -1.58 -0.96 -1.59 -0.95 -1.6 -0.94 -1.6 -0.93 -1.6 -0.92 -1.61 -0.91 -1.61 -0.9 -1.62 -0.89 -1.62 -0.88 -1.63 -0.87 -1.63 -0.86 -1.63 -0.85 -1.63 -0.84 -1.64 -0.83 -1.64 -0.82 -1.65 34.59 -17.02 0.71 1.43 0.72 1.43 0.73 1.44 0.74 1.43 0.75 1.43 0.76 1.43 0.77 1.42 0.78 1.42 0.79 1.42 0.8 1.42 0.81 1.41 0.82 1.41 0.83 1.41 0.84 1.4 0.85 1.4 0.86 1.4 0.86 1.39 0.87 1.39 0.88 1.39 0.89 1.38 0.9 1.38 0.9 1.37 0.92 1.37 0.93 1.37 0.93 1.36 0.94 1.36 0.95 1.35 0.96 1.35 0.97 1.35 0.97 1.33 0.98 1.33 0.99 1.33 0.01 0.02zm-0.01 -0.02c6.38,8.52 4.65,20.6 -3.88,26.98 -8.52,6.38 -20.6,4.65 -26.98,-3.88l30.86 -23.11zm-15.43 11.55l0 0 0 0 0 0 15.44 -11.54 -15.44 11.54zm15.43 -11.55c6.38,8.52 4.65,20.6 -3.88,26.98 -8.52,6.38 -20.6,4.65 -26.98,-3.88l30.86 -23.11zm-30.27 23.89l-0.59 -0.8 30.88 -23.08 0.59 0.8 -30.85 23.12 -0.03 -0.04zm30.88 -23.08c6.37,8.53 4.63,20.61 -3.9,26.98 -8.53,6.37 -20.61,4.63 -26.98,-3.9l30.88 -23.08zm57.45 57.37l-23.2 30.79 0.02 0.02 -2.3 -1.74 -2.29 -1.77 -2.27 -1.78 -2.25 -1.8 -2.24 -1.82 -2.22 -1.84 -2.21 -1.86 -2.18 -1.88 -2.17 -1.9 -2.15 -1.92 -2.14 -1.94 -2.12 -1.96 -2.1 -1.97 -2.09 -1.99 -2.07 -2.01 -2.05 -2.03 -2.03 -2.05 -2.01 -2.06 -2 -2.08 -1.98 -2.1 -1.95 -2.11 -1.94 -2.13 -1.92 -2.16 -1.9 -2.17 -1.88 -2.19 -1.87 -2.21 -1.85 -2.22 -1.83 -2.24 -1.81 -2.26 -1.79 -2.27 -1.77 -2.29 -1.75 -2.31 30.82 -23.16 1.54 2.03 1.56 2.02 1.57 2 1.59 1.99 1.61 1.97 1.63 1.96 1.64 1.94 1.66 1.93 1.68 1.91 1.69 1.89 1.71 1.88 1.73 1.87 1.74 1.85 1.76 1.83 1.78 1.82 1.79 1.81 1.81 1.79 1.82 1.77 1.84 1.76 1.86 1.74 1.87 1.72 1.88 1.71 1.9 1.69 1.92 1.68 1.93 1.66 1.94 1.64 1.96 1.63 1.97 1.61 1.99 1.59 2.01 1.58 2.02 1.56 2.04 1.54 0.02 0.02zm-0.02 -0.02c8.51,6.4 10.22,18.48 3.83,26.99 -6.4,8.51 -18.48,10.22 -26.99,3.83l23.16 -30.82zm115.47 52.18l-7.73 37.77 0.02 0 -4.41 -0.93 -4.4 -1 -4.39 -1.06 -4.37 -1.12 -4.36 -1.18 -4.34 -1.25 -4.33 -1.3 -4.31 -1.37 -4.29 -1.43 -4.27 -1.48 -4.25 -1.54 -4.23 -1.6 -4.21 -1.66 -4.18 -1.72 -4.16 -1.78 -4.14 -1.84 -4.11 -1.89 -4.09 -1.95 -4.06 -2.01 -4.04 -2.06 -4 -2.12 -3.98 -2.17 -3.95 -2.23 -3.92 -2.28 -3.89 -2.34 -3.85 -2.39 -3.82 -2.44 -3.79 -2.5 -3.76 -2.55 -3.72 -2.6 -3.68 -2.65 -3.65 -2.71 23.2 -30.79 3.21 2.38 3.24 2.34 3.28 2.29 3.31 2.25 3.34 2.2 3.37 2.16 3.4 2.11 3.43 2.06 3.46 2.02 3.49 1.97 3.51 1.92 3.54 1.87 3.56 1.82 3.59 1.77 3.61 1.72 3.64 1.67 3.65 1.62 3.67 1.57 3.69 1.52 3.72 1.47 3.73 1.42 3.75 1.36 3.77 1.31 3.78 1.26 3.79 1.2 3.81 1.15 3.82 1.09 3.83 1.04 3.85 0.99 3.85 0.93 3.86 0.87 3.88 0.82 0.02 0zm-0.02 -0c10.43,2.13 17.16,12.31 15.04,22.74 -2.13,10.43 -12.31,17.16 -22.74,15.04l7.7 -37.77zm57.77 5.85l0 38.55 0 0 -2.07 -0.01 -2.07 -0.02 -2.07 -0.03 -2.07 -0.05 -2.06 -0.06 -2.07 -0.07 -2.07 -0.09 -2.06 -0.1 -2.06 -0.11 -2.07 -0.12 -2.06 -0.14 -2.06 -0.15 -2.06 -0.16 -2.06 -0.18 -2.05 -0.19 -2.06 -0.2 -2.05 -0.22 -2.05 -0.23 -2.05 -0.24 -2.04 -0.25 -2.05 -0.27 -2.04 -0.28 -2.03 -0.29 -2.04 -0.3 -2.03 -0.32 -2.02 -0.33 -2.02 -0.34 -2.02 -0.35 -2.01 -0.36 -2.02 -0.38 -2.01 -0.39 -2.01 -0.4 7.73 -37.77 1.77 0.36 1.77 0.34 1.77 0.33 1.78 0.32 1.78 0.31 1.78 0.3 1.79 0.29 1.79 0.28 1.79 0.27 1.8 0.26 1.8 0.25 1.79 0.23 1.81 0.22 1.81 0.21 1.81 0.2 1.81 0.19 1.81 0.18 1.81 0.17 1.82 0.16 1.81 0.14 1.82 0.13 1.82 0.12 1.82 0.11 1.82 0.1 1.82 0.09 1.82 0.08 1.82 0.06 1.83 0.05 1.82 0.04 1.82 0.03 1.83 0.02 1.82 0.01 0 0zm0 0c10.65,0 19.28,8.63 19.28,19.28 0,10.65 -8.63,19.28 -19.28,19.28l0 -38.55zm43.52 -34.62l37.4 9.35 0.05 -0.22 -0.91 3.48 -1.05 3.42 -1.18 3.35 -1.32 3.28 -1.45 3.2 -1.57 3.13 -1.7 3.05 -1.81 2.96 -1.93 2.87 -2.04 2.78 -2.15 2.69 -2.26 2.59 -2.35 2.49 -2.45 2.39 -2.55 2.28 -2.64 2.18 -2.72 2.06 -2.81 1.95 -2.89 1.83 -2.96 1.72 -3.04 1.6 -3.11 1.47 -3.17 1.34 -3.24 1.21 -3.3 1.08 -3.35 0.94 -3.4 0.81 -3.45 0.67 -3.49 0.52 -3.53 0.38 -3.57 0.23 -3.59 0.08 0 -38.55 1.96 -0.04 1.93 -0.12 1.9 -0.2 1.88 -0.28 1.85 -0.36 1.82 -0.43 1.79 -0.51 1.76 -0.58 1.73 -0.65 1.7 -0.72 1.66 -0.79 1.62 -0.85 1.59 -0.92 1.55 -0.98 1.5 -1.05 1.46 -1.1 1.41 -1.16 1.36 -1.22 1.31 -1.28 1.26 -1.33 1.21 -1.38 1.15 -1.44 1.09 -1.49 1.04 -1.54 0.97 -1.59 0.91 -1.63 0.84 -1.68 0.78 -1.73 0.71 -1.77 0.64 -1.82 0.57 -1.86 0.49 -1.9 0.05 -0.22zm-0.05 0.22c2.46,-10.36 12.86,-16.75 23.21,-14.29 10.36,2.46 16.75,12.86 14.29,23.21l-37.5 -8.92zm1.27 -10.4l38.55 0 0 0 -0 0.63 -0.01 0.6 -0.01 0.6 -0.02 0.65 -0.02 0.6 -0.02 0.6 -0.03 0.63 -0.03 0.6 -0.04 0.63 -0.05 0.62 -0.05 0.6 -0.05 0.6 -0.06 0.63 -0.06 0.62 -0.06 0.6 -0.07 0.63 -0.08 0.62 -0.08 0.6 -0.08 0.6 -0.09 0.62 -0.1 0.62 -0.1 0.62 -0.1 0.59 -0.11 0.59 -0.12 0.62 -0.12 0.62 -0.12 0.59 -0.12 0.59 -0.13 0.61 -0.14 0.61 -0.14 0.61 -0.15 0.59 -37.4 -9.35 0.08 -0.31 0.07 -0.29 0.07 -0.29 0.06 -0.29 0.07 -0.32 0.07 -0.32 0.06 -0.3 0.06 -0.3 0.06 -0.32 0.06 -0.33 0.05 -0.3 0.05 -0.31 0.04 -0.31 0.05 -0.33 0.04 -0.33 0.04 -0.31 0.04 -0.31 0.04 -0.34 0.03 -0.31 0.03 -0.31 0.03 -0.34 0.03 -0.34 0.02 -0.32 0.02 -0.32 0.02 -0.34 0.02 -0.32 0.01 -0.34 0.01 -0.34 0.01 -0.29 0.01 -0.34 0.01 -0.34 0 -0.32 0 0zm0 0c0,-10.65 8.63,-19.28 19.28,-19.28 10.65,0 19.28,8.63 19.28,19.28l-38.55 0zm38.55 -71.24l0 71.24 -38.55 0 0 -71.24 0 0 38.55 0zm-38.55 0c0,-10.65 8.63,-19.28 19.28,-19.28 10.65,0 19.28,8.63 19.28,19.28l-38.55 0zm16.16 16.16l0 -38.55 0 0 1.15 0.03 1.09 0.08 1.1 0.14 1.19 0.21 1.04 0.24 1.05 0.3 1.05 0.35 1.04 0.41 1.05 0.47 0.94 0.48 0.94 0.54 0.92 0.59 0.82 0.58 0.85 0.66 0.85 0.74 0.81 0.78 0.73 0.78 0.62 0.72 0.67 0.84 0.69 0.96 0.57 0.9 0.54 0.94 0.48 0.93 0.45 0.98 0.42 1.06 0.35 1.05 0.3 1.05 0.24 1.04 0.21 1.19 0.14 1.1 0.08 1.09 0.03 1.15 -38.55 0 0.02 0.82 0.06 0.77 0.1 0.79 0.16 0.88 0.17 0.73 0.21 0.76 0.26 0.76 0.31 0.78 0.32 0.71 0.34 0.67 0.39 0.68 0.41 0.65 0.51 0.72 0.48 0.61 0.43 0.49 0.53 0.56 0.6 0.57 0.63 0.54 0.61 0.48 0.57 0.41 0.67 0.43 0.69 0.39 0.67 0.34 0.77 0.35 0.75 0.29 0.76 0.26 0.76 0.21 0.73 0.17 0.88 0.16 0.79 0.1 0.77 0.06 0.82 0.02 0 0zm0 0c-10.65,0 -19.28,-8.63 -19.28,-19.28 0,-10.65 8.63,-19.28 19.28,-19.28l0 38.55zm-0.53 -38.55l0.53 0 0 38.55 -0.53 0 -6.76 -37.33 6.76 -1.22zm0 38.55c-10.65,0 -19.28,-8.63 -19.28,-19.28 0,-10.65 8.63,-19.28 19.28,-19.28l0 38.55zm-7.29 -37.13l0.53 -0.2 13.52 36.1 -0.53 0.2 -0.31 0.11 -13.21 -36.22zm13.52 36.1c-9.97,3.73 -21.08,-1.32 -24.81,-11.29 -3.73,-9.97 1.32,-21.08 11.29,-24.81l13.52 36.1zm-66.59 11.51l0 -38.55 0 0 1.72 -0.01 1.72 -0.03 1.71 -0.05 1.7 -0.06 1.71 -0.08 1.71 -0.1 1.7 -0.12 1.69 -0.13 1.69 -0.15 1.7 -0.17 1.69 -0.19 1.68 -0.21 1.68 -0.22 1.68 -0.24 1.68 -0.26 1.67 -0.28 1.67 -0.3 1.67 -0.31 1.67 -0.33 1.66 -0.35 1.65 -0.36 1.65 -0.39 1.65 -0.4 1.65 -0.42 1.64 -0.44 1.63 -0.46 1.64 -0.47 1.62 -0.49 1.62 -0.51 1.62 -0.53 1.62 -0.55 1.62 -0.56 12.9 36.33 -2 0.7 -2 0.68 -2.02 0.66 -2.02 0.63 -2.03 0.61 -2.02 0.59 -2.03 0.57 -2.04 0.54 -2.04 0.52 -2.04 0.5 -2.05 0.48 -2.07 0.46 -2.06 0.43 -2.06 0.41 -2.07 0.39 -2.08 0.37 -2.08 0.35 -2.08 0.32 -2.09 0.3 -2.09 0.28 -2.09 0.26 -2.1 0.23 -2.09 0.21 -2.1 0.19 -2.11 0.17 -2.11 0.14 -2.1 0.12 -2.11 0.1 -2.12 0.08 -2.12 0.06 -2.12 0.03 -2.12 0.01 0 0zm0 0c-10.65,0 -19.28,-8.63 -19.28,-19.28 0,-10.65 8.63,-19.28 19.28,-19.28l0 38.55zm-66.41 -11.46l12.89 -36.33 0.06 0.02 1.61 0.57 1.61 0.55 1.62 0.53 1.62 0.51 1.63 0.49 1.64 0.48 1.63 0.46 1.64 0.44 1.65 0.42 1.65 0.4 1.65 0.39 1.66 0.37 1.66 0.35 1.66 0.33 1.67 0.31 1.67 0.3 1.67 0.28 1.68 0.26 1.68 0.24 1.69 0.23 1.68 0.21 1.69 0.19 1.7 0.17 1.69 0.15 1.7 0.13 1.71 0.12 1.7 0.1 1.72 0.08 1.72 0.06 1.71 0.05 1.72 0.03 1.73 0.01 0 38.55 -2.13 -0.01 -2.13 -0.03 -2.13 -0.06 -2.12 -0.08 -2.11 -0.1 -2.12 -0.12 -2.11 -0.15 -2.11 -0.17 -2.11 -0.19 -2.1 -0.21 -2.1 -0.23 -2.11 -0.26 -2.09 -0.28 -2.09 -0.3 -2.09 -0.32 -2.08 -0.35 -2.08 -0.37 -2.08 -0.39 -2.08 -0.42 -2.07 -0.44 -2.06 -0.46 -2.06 -0.48 -2.05 -0.5 -2.05 -0.53 -2.04 -0.55 -2.04 -0.57 -2.03 -0.59 -2.03 -0.62 -2.03 -0.64 -2.02 -0.66 -2.01 -0.68 -2 -0.71 0.06 0.02zm-0.06 -0.02c-10.02,-3.59 -15.23,-14.63 -11.64,-24.65 3.59,-10.02 14.63,-15.23 24.65,-11.64l-13.01 36.29zm-107.42 -90.77l33.62 -18.86 -0.01 -0.01 1.84 3.19 1.9 3.14 1.97 3.09 2.03 3.04 2.1 2.98 2.16 2.93 2.22 2.88 2.28 2.83 2.34 2.77 2.4 2.72 2.46 2.66 2.51 2.6 2.57 2.54 2.62 2.48 2.68 2.42 2.73 2.36 2.78 2.3 2.83 2.24 2.88 2.17 2.93 2.11 2.97 2.04 3.02 1.97 3.07 1.91 3.11 1.84 3.15 1.77 3.2 1.7 3.23 1.63 3.27 1.55 3.31 1.48 3.35 1.41 3.39 1.33 3.42 1.26 -12.89 36.33 -4.25 -1.56 -4.2 -1.66 -4.16 -1.75 -4.11 -1.84 -4.07 -1.93 -4.01 -2.02 -3.96 -2.11 -3.91 -2.2 -3.86 -2.28 -3.8 -2.36 -3.75 -2.45 -3.69 -2.53 -3.63 -2.61 -3.57 -2.69 -3.51 -2.77 -3.44 -2.85 -3.38 -2.92 -3.32 -3 -3.25 -3.07 -3.18 -3.14 -3.11 -3.22 -3.04 -3.29 -2.97 -3.36 -2.9 -3.43 -2.82 -3.49 -2.75 -3.56 -2.67 -3.63 -2.6 -3.7 -2.51 -3.75 -2.43 -3.81 -2.35 -3.88 -2.27 -3.93 -0.01 -0.01zm0.01 0.01c-5.21,-9.28 -1.91,-21.03 7.37,-26.24 9.28,-5.21 21.03,-1.91 26.24,7.37l-33.61 18.88zm-13.76 -30.27l36.19 -13.27 0.06 0.16 0.28 0.79 0.29 0.8 0.29 0.79 0.3 0.78 0.3 0.79 0.31 0.79 0.31 0.79 0.31 0.78 0.32 0.77 0.33 0.79 0.33 0.78 0.33 0.77 0.34 0.78 0.34 0.78 0.34 0.77 0.35 0.77 0.35 0.76 0.35 0.76 0.36 0.76 0.36 0.76 0.37 0.77 0.37 0.75 0.37 0.74 0.38 0.75 0.38 0.75 0.38 0.75 0.39 0.75 0.39 0.74 0.39 0.73 0.4 0.73 0.41 0.74 0.41 0.73 -33.62 18.86 -0.51 -0.91 -0.5 -0.91 -0.5 -0.92 -0.5 -0.93 -0.49 -0.92 -0.48 -0.92 -0.48 -0.93 -0.47 -0.93 -0.47 -0.93 -0.47 -0.95 -0.46 -0.94 -0.45 -0.93 -0.45 -0.94 -0.45 -0.95 -0.44 -0.95 -0.44 -0.96 -0.43 -0.95 -0.43 -0.96 -0.42 -0.95 -0.41 -0.96 -0.41 -0.97 -0.4 -0.96 -0.39 -0.96 -0.4 -0.98 -0.39 -0.97 -0.38 -0.97 -0.38 -0.97 -0.37 -0.97 -0.37 -0.98 -0.36 -0.97 -0.36 -0.98 -0.35 -0.99 0.06 0.16zm-0.06 -0.16c-3.57,-10.03 1.66,-21.05 11.68,-24.63 10.03,-3.57 21.05,1.66 24.63,11.68l-36.31 12.95zm35.52 -15.1l0.73 1.99 -36.19 13.27 -0.73 -1.99 -0.14 -0.41 36.34 -12.87zm-36.19 13.27c-3.66,-9.99 1.47,-21.07 11.46,-24.73 9.99,-3.66 21.07,1.47 24.73,11.46l-36.19 13.27zm18.1 -6.64l0 0 0 0 0 0 -18.24 6.23 18.24 -6.23zm-18.1 6.64c-3.66,-9.99 1.47,-21.07 11.46,-24.73 9.99,-3.66 21.07,1.47 24.73,11.46l-36.19 13.27zm-10.8 -64.61l38.55 0 0 0 0.01 1.66 0.03 1.66 0.04 1.65 0.06 1.66 0.08 1.65 0.09 1.65 0.11 1.65 0.13 1.64 0.14 1.64 0.16 1.64 0.18 1.64 0.19 1.63 0.21 1.63 0.23 1.63 0.24 1.62 0.26 1.62 0.28 1.62 0.29 1.61 0.31 1.61 0.33 1.61 0.34 1.6 0.36 1.6 0.38 1.6 0.39 1.6 0.41 1.59 0.43 1.59 0.44 1.59 0.46 1.58 0.48 1.57 0.49 1.57 0.51 1.57 0.52 1.56 -36.48 12.46 -0.65 -1.94 -0.63 -1.94 -0.61 -1.95 -0.59 -1.95 -0.57 -1.96 -0.55 -1.96 -0.53 -1.97 -0.51 -1.98 -0.49 -1.98 -0.47 -1.98 -0.45 -1.99 -0.43 -2 -0.41 -2 -0.39 -2 -0.36 -2.01 -0.34 -2.01 -0.33 -2.02 -0.3 -2.02 -0.28 -2.02 -0.26 -2.03 -0.24 -2.03 -0.22 -2.03 -0.2 -2.03 -0.18 -2.04 -0.16 -2.04 -0.14 -2.04 -0.12 -2.04 -0.09 -2.05 -0.07 -2.05 -0.05 -2.06 -0.03 -2.05 -0.01 -2.05 0 0zm0 0c0,-10.65 8.63,-19.28 19.28,-19.28 10.65,0 19.28,8.63 19.28,19.28l-38.55 0zm10.35 -59.96l38.55 0 -1.13 6.51 -0.57 1.61 -0.55 1.61 -0.53 1.62 -0.51 1.62 -0.5 1.63 -0.48 1.63 -0.46 1.64 -0.44 1.65 -0.42 1.64 -0.4 1.65 -0.39 1.65 -0.37 1.65 -0.35 1.67 -0.33 1.66 -0.31 1.66 -0.3 1.67 -0.28 1.67 -0.26 1.68 -0.24 1.68 -0.23 1.69 -0.21 1.68 -0.19 1.69 -0.17 1.7 -0.15 1.69 -0.13 1.7 -0.12 1.71 -0.1 1.7 -0.08 1.72 -0.06 1.72 -0.05 1.71 -0.03 1.72 -0.01 1.73 -38.55 0 0.01 -2.13 0.03 -2.13 0.06 -2.13 0.08 -2.12 0.1 -2.11 0.12 -2.12 0.15 -2.11 0.17 -2.11 0.19 -2.11 0.21 -2.1 0.23 -2.1 0.26 -2.11 0.28 -2.09 0.3 -2.09 0.32 -2.09 0.35 -2.08 0.37 -2.08 0.39 -2.08 0.42 -2.07 0.44 -2.06 0.46 -2.07 0.48 -2.06 0.5 -2.05 0.53 -2.05 0.55 -2.04 0.57 -2.04 0.6 -2.04 0.62 -2.03 0.64 -2.02 0.66 -2.02 0.68 -2.01 0.71 -2.01 -1.13 6.51zm1.13 -6.51c3.59,-10.02 14.63,-15.23 24.65,-11.64 10.02,3.59 15.23,14.63 11.64,24.65l-36.29 -13.01zm37.42 6.44l0 0.07 -38.55 0 0 -0.07 2.02 -8.59 36.53 8.59zm-38.55 0c0,-10.65 8.63,-19.28 19.28,-19.28 10.65,0 19.28,8.63 19.28,19.28l-38.55 0zm36.66 8.32l-0.13 0.27 -34.51 -17.17 0.13 -0.27 36.53 8.59 -2.02 8.59zm-34.51 -17.17c4.74,-9.53 16.31,-13.41 25.84,-8.67 9.53,4.74 13.41,16.31 8.67,25.84l-34.51 -17.17zm36.53 8.46l0 0.13 -38.55 0 0 -0.13 0.99 -6.1 37.56 6.1zm-38.55 0c0,-10.65 8.63,-19.28 19.28,-19.28 10.65,0 19.28,8.63 19.28,19.28l-38.55 0zm37.83 5.3l-0.27 0.8 -36.57 -12.19 0.27 -0.8 37.56 6.1 -0.99 6.1zm-36.57 -12.19c3.37,-10.1 14.28,-15.56 24.38,-12.19 10.1,3.37 15.56,14.28 12.19,24.38l-36.57 -12.19zm18.29 6.1l0 0 0 0 0 0 -19.28 0 19.28 0zm-18.29 -6.1c3.37,-10.1 14.28,-15.56 24.38,-12.19 10.1,3.37 15.56,14.28 12.19,24.38l-36.57 -12.19zm37.56 6.03l0 0.07 -38.55 0 0 -0.07 1.07 -6.34 37.48 6.34zm-38.55 0c0,-10.65 8.63,-19.28 19.28,-19.28 10.65,0 19.28,8.63 19.28,19.28l-38.55 0zm38.01 4.81l-0.53 1.52 -36.41 -12.68 0.53 -1.52 0.15 -0.42 36.26 13.1zm-36.41 -12.68c3.5,-10.05 14.49,-15.36 24.54,-11.87 10.05,3.5 15.36,14.49 11.87,24.54l-36.41 -12.68zm1.41 -3.68l35.84 14.21 -0.2 0.5 -0.03 0.08 -0 0.01 -0.01 0.02 -0.06 0.15 -0.02 0.04 -0.04 0.1 -0.05 0.13 -0.04 0.12 -0.05 0.12 -0.05 0.12 -0.07 0.2 -0.06 0.16 -0.08 0.22 -0.06 0.16 -0.07 0.2 -0.09 0.24 -36.1 -13.52 0.06 -0.16 0.07 -0.19 0.08 -0.22 0.06 -0.16 0.08 -0.21 0.06 -0.17 0.09 -0.24 0.09 -0.24 0.09 -0.24 0.09 -0.22 0.1 -0.25 0.12 -0.31 0.08 -0.2 0.13 -0.33 0.14 -0.34 0.12 -0.27 -0.2 0.5zm0.2 -0.5c4.2,-9.78 15.53,-14.31 25.31,-10.12 9.78,4.2 14.31,15.53 10.12,25.31l-35.43 -15.2zm5.65 -12.83l34.74 16.72 -0.13 0.26 -0.15 0.3 -0.14 0.29 -0.15 0.32 -0.14 0.29 -0.14 0.29 -0.15 0.31 -0.14 0.3 -0.16 0.35 -0.14 0.31 -0.14 0.3 -0.15 0.32 -0.14 0.31 -0.15 0.33 -0.15 0.33 -0.14 0.32 -0.14 0.33 -0.15 0.34 -0.15 0.34 -0.14 0.33 -0.13 0.31 -0.15 0.35 -0.15 0.35 -0.14 0.34 -0.15 0.36 -0.15 0.35 -0.13 0.33 -0.14 0.35 -0.15 0.37 -0.14 0.35 -0.14 0.35 -0.15 0.37 -0.14 0.36 -35.84 -14.21 0.17 -0.43 0.16 -0.41 0.17 -0.42 0.17 -0.43 0.16 -0.41 0.17 -0.42 0.18 -0.45 0.17 -0.42 0.17 -0.41 0.18 -0.43 0.18 -0.42 0.18 -0.42 0.19 -0.45 0.18 -0.43 0.18 -0.41 0.18 -0.42 0.18 -0.42 0.19 -0.44 0.19 -0.42 0.19 -0.42 0.2 -0.43 0.19 -0.42 0.2 -0.44 0.2 -0.43 0.18 -0.39 0.21 -0.44 0.2 -0.43 0.21 -0.44 0.21 -0.44 0.2 -0.41 0.21 -0.43 0.21 -0.42 -0.13 0.26zm0.13 -0.26c4.76,-9.52 16.34,-13.38 25.86,-8.62 9.52,4.76 13.38,16.34 8.62,25.86l-34.48 -17.25zm112.95 -101.35l12.89 36.33 0.02 -0.01 -3.69 1.36 -3.65 1.45 -3.61 1.54 -3.57 1.63 -3.53 1.72 -3.49 1.81 -3.44 1.89 -3.4 1.98 -3.34 2.06 -3.29 2.14 -3.24 2.22 -3.19 2.3 -3.13 2.37 -3.07 2.45 -3.02 2.52 -2.95 2.59 -2.9 2.66 -2.83 2.73 -2.76 2.8 -2.69 2.86 -2.62 2.93 -2.55 2.99 -2.48 3.05 -2.41 3.11 -2.33 3.17 -2.25 3.22 -2.17 3.28 -2.09 3.33 -2.01 3.38 -1.93 3.43 -1.84 3.49 -1.75 3.53 -34.74 -16.72 2.19 -4.4 2.29 -4.33 2.4 -4.27 2.5 -4.21 2.6 -4.14 2.7 -4.07 2.79 -4 2.89 -3.92 2.98 -3.85 3.07 -3.78 3.16 -3.7 3.25 -3.62 3.33 -3.54 3.41 -3.46 3.49 -3.37 3.57 -3.29 3.65 -3.2 3.72 -3.11 3.8 -3.02 3.87 -2.93 3.94 -2.84 4.01 -2.74 4.08 -2.65 4.14 -2.55 4.2 -2.45 4.26 -2.35 4.33 -2.24 4.38 -2.14 4.44 -2.03 4.49 -1.92 4.54 -1.81 4.59 -1.7 0.02 -0.01zm-0.02 0.01c10.03,-3.57 21.05,1.67 24.62,11.7 3.57,10.03 -1.67,21.05 -11.7,24.62l-12.92 -36.32zm60.3 -11.32l1.38 38.53 -0.14 0.01 -1.55 0.05 -1.54 0.07 -1.55 0.08 -1.55 0.1 -1.55 0.11 -1.54 0.13 -1.54 0.14 -1.55 0.16 -1.54 0.17 -1.54 0.19 -1.53 0.2 -1.53 0.22 -1.54 0.23 -1.53 0.25 -1.52 0.26 -1.53 0.28 -1.53 0.29 -1.51 0.31 -1.51 0.32 -1.52 0.34 -1.51 0.35 -1.51 0.37 -1.5 0.38 -1.5 0.4 -1.5 0.41 -1.5 0.43 -1.49 0.44 -1.49 0.46 -1.49 0.47 -1.47 0.48 -1.48 0.5 -1.48 0.52 -12.89 -36.33 1.82 -0.64 1.83 -0.62 1.85 -0.61 1.84 -0.58 1.85 -0.56 1.85 -0.55 1.86 -0.53 1.86 -0.51 1.86 -0.49 1.88 -0.48 1.88 -0.46 1.88 -0.44 1.88 -0.42 1.89 -0.4 1.89 -0.38 1.89 -0.36 1.89 -0.34 1.9 -0.33 1.9 -0.31 1.9 -0.29 1.91 -0.27 1.91 -0.25 1.91 -0.23 1.91 -0.22 1.91 -0.2 1.92 -0.18 1.93 -0.16 1.92 -0.14 1.92 -0.12 1.93 -0.1 1.93 -0.08 1.93 -0.06 -0.14 0.01zm0.14 -0.01c10.64,-0.3 19.52,8.08 19.82,18.72 0.3,10.64 -8.08,19.52 -18.72,19.82l-1.1 -38.54zm6.06 -0.07l0 38.55 0 0 -0.35 0 -0.35 0 -0.31 0 -0.31 0 -0.35 0 -0.35 0 -0.31 0 -0.28 0 -0.31 0 -0.27 0 -0.27 0.01 -0.34 0.01 -0.27 0.01 -0.23 0.01 -0.26 0.01 -0.26 0.01 -1.38 -38.53 0.42 -0.01 0.41 -0.01 0.45 -0.01 0.41 -0.01 0.34 -0.01 0.42 -0.01 0.41 -0.01 0.38 -0 0.42 -0 0.38 -0 0.35 -0 0.35 -0 0.38 -0 0.38 0 0.35 0 0.35 0 0 0zm0 0c10.65,0 19.28,8.63 19.28,19.28 0,10.65 -8.63,19.28 -19.28,19.28l0 -38.55zm6.06 0.07l-1.1 38.54 -0.11 -0 -0.28 -0.01 -0.28 -0.01 -0.24 -0.01 -0.27 -0.01 -0.34 -0.01 -0.27 -0.01 -0.27 -0 -0.31 -0 -0.27 -0 -0.31 -0 -0.34 -0 -0.34 -0 -0.31 -0 -0.31 0 -0.35 0 -0.35 0 0 -38.55 0.35 0 0.35 0 0.38 0 0.38 0 0.34 0 0.34 0 0.38 0 0.41 0 0.38 0 0.41 0.01 0.41 0.01 0.34 0.01 0.41 0.01 0.45 0.01 0.42 0.01 0.42 0.01 -0.11 -0zm0.11 0c10.64,0.37 18.97,9.29 18.6,19.93 -0.37,10.64 -9.29,18.97 -19.93,18.6l1.33 -38.53zm60.27 11.3l-12.82 36.36 -0.03 -0.01 -1.47 -0.51 -1.48 -0.5 -1.49 -0.49 -1.48 -0.47 -1.48 -0.45 -1.49 -0.44 -1.49 -0.43 -1.5 -0.41 -1.51 -0.4 -1.5 -0.38 -1.51 -0.37 -1.52 -0.35 -1.52 -0.34 -1.51 -0.32 -1.52 -0.31 -1.53 -0.29 -1.52 -0.28 -1.53 -0.26 -1.53 -0.25 -1.52 -0.23 -1.54 -0.22 -1.54 -0.21 -1.53 -0.19 -1.54 -0.17 -1.55 -0.16 -1.54 -0.14 -1.54 -0.13 -1.55 -0.11 -1.56 -0.1 -1.55 -0.08 -1.54 -0.07 -1.55 -0.05 1.1 -38.54 1.93 0.06 1.93 0.08 1.93 0.1 1.92 0.12 1.92 0.14 1.93 0.16 1.92 0.18 1.91 0.2 1.92 0.22 1.92 0.24 1.9 0.25 1.9 0.27 1.91 0.29 1.9 0.31 1.89 0.33 1.91 0.35 1.89 0.36 1.89 0.38 1.89 0.4 1.88 0.42 1.87 0.44 1.88 0.46 1.87 0.48 1.86 0.49 1.86 0.51 1.86 0.53 1.85 0.55 1.85 0.57 1.84 0.58 1.83 0.6 1.83 0.62 1.83 0.64 -0.03 -0.01zm0.03 0.01c10.03,3.56 15.28,14.58 11.72,24.61 -3.56,10.03 -14.58,15.28 -24.61,11.72l12.89 -36.33zm36.5 17.37l-20.1 32.9 0.02 0.01 -0.87 -0.52 -0.87 -0.52 -0.87 -0.51 -0.88 -0.51 -0.87 -0.5 -0.89 -0.5 -0.9 -0.5 -0.89 -0.49 -0.89 -0.48 -0.9 -0.48 -0.91 -0.47 -0.9 -0.46 -0.91 -0.46 -0.93 -0.46 -0.91 -0.45 -0.91 -0.44 -0.92 -0.43 -0.93 -0.43 -0.93 -0.43 -0.92 -0.41 -0.93 -0.41 -0.94 -0.41 -0.94 -0.4 -0.94 -0.39 -0.94 -0.38 -0.93 -0.37 -0.94 -0.37 -0.95 -0.37 -0.95 -0.36 -0.95 -0.35 -0.95 -0.34 -0.95 -0.34 12.82 -36.36 1.2 0.43 1.2 0.44 1.19 0.44 1.18 0.45 1.18 0.46 1.19 0.47 1.19 0.48 1.18 0.48 1.17 0.49 1.17 0.5 1.16 0.5 1.16 0.51 1.17 0.52 1.15 0.52 1.14 0.53 1.15 0.54 1.15 0.55 1.14 0.56 1.12 0.56 1.13 0.57 1.13 0.58 1.12 0.58 1.12 0.59 1.12 0.6 1.11 0.61 1.09 0.61 1.1 0.62 1.11 0.63 1.08 0.63 1.09 0.64 1.08 0.64 1.08 0.65 0.02 0.01zm-0.02 -0.01c9.09,5.54 11.97,17.4 6.44,26.49 -5.54,9.09 -17.4,11.97 -26.49,6.44l20.05 -32.93zm7.79 4.96l-21.44 32.04 0.13 0.08 -0.41 -0.27 -0.4 -0.26 -0.41 -0.27 -0.42 -0.27 -0.4 -0.26 -0.42 -0.27 -0.42 -0.27 -0.41 -0.26 -0.42 -0.27 -0.4 -0.25 -0.39 -0.25 -0.41 -0.26 -0.43 -0.27 -0.41 -0.25 -0.4 -0.25 -0.41 -0.25 20.1 -32.9 0.48 0.3 0.5 0.31 0.49 0.31 0.46 0.29 0.48 0.3 0.5 0.31 0.49 0.31 0.47 0.3 0.48 0.31 0.47 0.3 0.47 0.3 0.48 0.31 0.46 0.3 0.47 0.31 0.47 0.31 0.46 0.3 0.13 0.08zm-0.13 -0.08c8.89,5.85 11.36,17.81 5.51,26.7 -5.85,8.89 -17.81,11.36 -26.7,5.51l21.19 -32.2zm26.6 21.41l-26.36 28.13 -0.19 -0.18 -0.61 -0.59 -0.63 -0.59 -0.62 -0.58 -0.63 -0.58 -0.64 -0.58 -0.63 -0.57 -0.64 -0.57 -0.63 -0.56 -0.65 -0.57 -0.65 -0.57 -0.64 -0.55 -0.66 -0.56 -0.66 -0.56 -0.65 -0.54 -0.67 -0.55 -0.67 -0.54 -0.67 -0.54 -0.68 -0.54 -0.67 -0.52 -0.68 -0.53 -0.68 -0.52 -0.68 -0.51 -0.69 -0.52 -0.7 -0.52 -0.69 -0.5 -0.69 -0.5 -0.7 -0.5 -0.71 -0.5 -0.72 -0.5 -0.7 -0.49 -0.71 -0.48 -0.72 -0.48 21.44 -32.04 0.89 0.6 0.9 0.61 0.89 0.62 0.88 0.61 0.88 0.62 0.88 0.63 0.88 0.64 0.87 0.64 0.86 0.64 0.86 0.64 0.86 0.66 0.85 0.65 0.85 0.66 0.85 0.67 0.83 0.66 0.84 0.67 0.83 0.68 0.82 0.67 0.84 0.7 0.81 0.68 0.81 0.69 0.83 0.71 0.8 0.7 0.8 0.7 0.81 0.72 0.79 0.71 0.79 0.72 0.78 0.72 0.78 0.72 0.78 0.73 0.77 0.73 0.77 0.74 -0.19 -0.18zm0.19 0.18c7.66,7.39 7.89,19.59 0.5,27.26 -7.39,7.66 -19.59,7.89 -27.26,0.5l26.75 -27.76zm6.51 6.51l-27.57 26.95 -0.49 -0.52 -0.13 -0.15 -0.14 -0.15 -0.12 -0.13 -0.14 -0.15 -0.14 -0.15 -0.12 -0.13 -0.14 -0.15 -0.16 -0.17 -0.14 -0.15 -0.14 -0.15 -0.14 -0.15 -0.12 -0.12 -0.19 -0.19 -0.14 -0.15 -0.12 -0.12 -0.19 -0.19 -0.15 -0.14 -0.17 -0.17 -0.17 -0.17 -0.12 -0.11 -0.36 -0.35 -0.33 -0.32 -0.35 -0.33 -0.36 -0.34 -0.35 -0.33 -0.37 -0.34 26.36 -28.13 0.43 0.4 0.44 0.42 0.43 0.41 0.44 0.42 0.45 0.43 0.42 0.4 0.27 0.26 0.22 0.21 0.22 0.21 0.24 0.24 0.19 0.19 0.26 0.26 0.23 0.24 0.19 0.19 0.26 0.26 0.23 0.24 0.23 0.24 0.23 0.24 0.21 0.22 0.23 0.24 0.25 0.26 0.23 0.24 0.23 0.24 0.25 0.27 0.22 0.24 0.23 0.25 -0.49 -0.52zm0.49 0.52c7.15,7.88 6.56,20.07 -1.32,27.23 -7.88,7.15 -20.07,6.56 -27.23,-1.32l28.55 -25.91zm9.1 10.24l-29.51 24.8 -0.27 -0.33 -0.22 -0.27 -0.2 -0.25 -0.22 -0.26 -0.24 -0.3 -0.21 -0.25 -0.21 -0.25 -0.23 -0.28 -0.22 -0.26 -0.23 -0.26 -0.21 -0.24 -0.24 -0.27 -0.23 -0.26 -0.23 -0.26 -0.24 -0.27 -0.23 -0.26 -0.23 -0.26 -0.23 -0.26 -0.23 -0.25 -0.23 -0.25 -0.26 -0.29 -0.23 -0.25 -0.22 -0.24 -0.25 -0.27 -0.23 -0.25 -0.25 -0.26 -0.25 -0.26 -0.23 -0.25 -0.24 -0.25 -0.23 -0.24 -0.25 -0.26 -0.25 -0.26 -0.24 -0.25 27.57 -26.95 0.32 0.33 0.31 0.32 0.31 0.32 0.32 0.34 0.32 0.34 0.32 0.34 0.3 0.32 0.31 0.32 0.32 0.34 0.3 0.32 0.33 0.36 0.32 0.35 0.29 0.31 0.32 0.35 0.31 0.35 0.31 0.35 0.31 0.35 0.31 0.35 0.3 0.34 0.31 0.35 0.31 0.35 0.3 0.34 0.32 0.37 0.3 0.36 0.3 0.36 0.29 0.34 0.32 0.38 0.31 0.38 0.27 0.33 0.3 0.36 0.31 0.38 0.3 0.37 -0.27 -0.33zm0.27 0.33c6.67,8.3 5.35,20.43 -2.95,27.1 -8.3,6.67 -20.43,5.35 -27.1,-2.95l30.05 -24.15zm8.6 11.13l-31.34 22.45 -0.01 -0.01 -0.21 -0.29 -0.21 -0.3 -0.21 -0.29 -0.23 -0.31 -0.2 -0.28 -0.22 -0.29 -0.22 -0.29 -0.21 -0.29 -0.23 -0.31 -0.2 -0.27 -0.21 -0.27 -0.23 -0.31 -0.23 -0.31 -0.19 -0.26 -0.21 -0.27 -0.23 -0.3 -0.22 -0.29 -0.23 -0.29 -0.22 -0.29 -0.23 -0.29 -0.21 -0.27 -0.22 -0.27 -0.23 -0.28 -0.23 -0.28 -0.23 -0.28 -0.22 -0.27 -0.23 -0.28 -0.23 -0.28 -0.22 -0.27 -0.22 -0.27 -0.25 -0.29 -0.22 -0.26 29.51 -24.8 0.3 0.36 0.28 0.33 0.3 0.36 0.3 0.36 0.29 0.35 0.28 0.35 0.3 0.36 0.28 0.35 0.29 0.35 0.28 0.35 0.29 0.36 0.29 0.37 0.28 0.35 0.28 0.35 0.28 0.35 0.27 0.35 0.26 0.34 0.29 0.37 0.3 0.39 0.26 0.34 0.26 0.34 0.28 0.38 0.28 0.38 0.25 0.34 0.27 0.36 0.26 0.36 0.27 0.36 0.28 0.38 0.25 0.35 0.26 0.36 0.26 0.36 0.26 0.37 -0.01 -0.01zm0.01 0.01c6.2,8.66 4.2,20.7 -4.46,26.89 -8.66,6.2 -20.7,4.2 -26.89,-4.46l31.35 -22.44zm5.82 70.56l0 -38.55 -18 26.17 -0.46 -1.19 -0.47 -1.19 -0.48 -1.19 -0.48 -1.17 -0.5 -1.17 -0.51 -1.17 -0.51 -1.16 -0.53 -1.16 -0.53 -1.16 -0.54 -1.14 -0.55 -1.15 -0.56 -1.14 -0.56 -1.13 -0.58 -1.14 -0.58 -1.12 -0.59 -1.12 -0.61 -1.12 -0.61 -1.11 -0.62 -1.11 -0.63 -1.1 -0.64 -1.1 -0.65 -1.09 -0.66 -1.09 -0.66 -1.07 -0.68 -1.08 -0.69 -1.08 -0.69 -1.06 -0.7 -1.05 -0.71 -1.05 -0.72 -1.05 -0.73 -1.04 -0.74 -1.04 31.34 -22.45 0.92 1.3 0.91 1.3 0.9 1.31 0.89 1.31 0.88 1.33 0.87 1.33 0.85 1.33 0.84 1.34 0.83 1.35 0.82 1.35 0.81 1.36 0.79 1.36 0.78 1.37 0.77 1.37 0.76 1.38 0.75 1.39 0.74 1.39 0.73 1.4 0.71 1.4 0.71 1.42 0.69 1.42 0.68 1.41 0.68 1.43 0.66 1.43 0.65 1.43 0.64 1.45 0.62 1.44 0.61 1.45 0.61 1.46 0.59 1.45 0.58 1.46 0.57 1.47 -18 26.17zm18 -26.17c3.81,9.94 -1.16,21.09 -11.1,24.9 -9.94,3.81 -21.09,-1.16 -24.9,-11.1l36 -13.79zm-125.33 -12.38l107.33 0 0 38.55 -107.33 0 0 0 0 -38.55zm0 38.55c-10.65,0 -19.28,-8.63 -19.28,-19.28 0,-10.65 8.63,-19.28 19.28,-19.28l0 38.55zm-105.63 105.63l-38.55 0 0 0 0.19 -7.39 0.56 -7.31 0.92 -7.21 1.27 -7.1 1.61 -6.97 1.95 -6.85 2.27 -6.7 2.59 -6.55 2.89 -6.39 3.19 -6.22 3.48 -6.04 3.75 -5.84 4.02 -5.65 4.28 -5.44 4.53 -5.23 4.77 -5.01 5.01 -4.77 5.23 -4.53 5.44 -4.28 5.65 -4.02 5.85 -3.75 6.04 -3.48 6.22 -3.19 6.39 -2.89 6.55 -2.59 6.7 -2.27 6.84 -1.95 6.98 -1.61 7.1 -1.27 7.21 -0.92 7.31 -0.56 7.39 -0.19 0 38.55 -5.44 0.14 -5.36 0.41 -5.28 0.67 -5.19 0.93 -5.1 1.18 -5 1.42 -4.9 1.66 -4.79 1.89 -4.67 2.12 -4.55 2.33 -4.43 2.55 -4.29 2.75 -4.15 2.95 -4 3.15 -3.84 3.33 -3.68 3.51 -3.51 3.68 -3.33 3.84 -3.14 3.99 -2.95 4.15 -2.75 4.29 -2.55 4.42 -2.33 4.55 -2.12 4.67 -1.89 4.79 -1.66 4.89 -1.42 5 -1.18 5.1 -0.93 5.19 -0.67 5.28 -0.41 5.36 -0.14 5.44 0 0zm0 0c0,10.65 -8.63,19.28 -19.28,19.28 -10.65,0 -19.28,-8.63 -19.28,-19.28l38.55 0zm-16.16 -16.16l0 38.55 0 0 -1.15 -0.03 -1.09 -0.08 -1.1 -0.14 -1.19 -0.21 -1.04 -0.24 -1.05 -0.3 -1.05 -0.35 -1.06 -0.42 -1.05 -0.48 -0.87 -0.45 -0.94 -0.54 -0.95 -0.61 -0.86 -0.61 -0.85 -0.66 -0.81 -0.7 -0.77 -0.74 -0.74 -0.77 -0.7 -0.81 -0.66 -0.85 -0.61 -0.86 -0.61 -0.95 -0.54 -0.94 -0.45 -0.87 -0.48 -1.05 -0.42 -1.06 -0.35 -1.05 -0.3 -1.05 -0.24 -1.04 -0.21 -1.19 -0.14 -1.1 -0.08 -1.09 -0.03 -1.15 38.55 0 -0.02 -0.82 -0.06 -0.77 -0.1 -0.79 -0.16 -0.88 -0.17 -0.73 -0.21 -0.76 -0.26 -0.76 -0.31 -0.78 -0.35 -0.77 -0.31 -0.6 -0.39 -0.68 -0.45 -0.7 -0.44 -0.61 -0.48 -0.61 -0.51 -0.58 -0.53 -0.56 -0.56 -0.53 -0.58 -0.51 -0.61 -0.48 -0.61 -0.44 -0.7 -0.45 -0.68 -0.39 -0.6 -0.31 -0.77 -0.35 -0.78 -0.31 -0.76 -0.26 -0.76 -0.21 -0.73 -0.17 -0.88 -0.16 -0.79 -0.1 -0.77 -0.06 -0.82 -0.02 0 0zm0 0c10.65,0 19.28,8.63 19.28,19.28 0,10.65 -8.63,19.28 -19.28,19.28l0 -38.55zm243.84 38.55l-243.84 0 0 -38.55 243.84 0 0 0 0 38.55zm0 -38.55c10.65,0 19.28,8.63 19.28,19.28 0,10.65 -8.63,19.28 -19.28,19.28l0 -38.55zm84.06 -41.62l30.47 23.61 0.05 -0.06 -2.62 3.31 -2.7 3.22 -2.78 3.13 -2.86 3.05 -2.94 2.95 -3.01 2.86 -3.09 2.77 -3.15 2.67 -3.22 2.57 -3.29 2.48 -3.35 2.38 -3.42 2.28 -3.48 2.18 -3.53 2.08 -3.59 1.97 -3.64 1.87 -3.7 1.76 -3.75 1.66 -3.8 1.55 -3.84 1.44 -3.88 1.33 -3.93 1.22 -3.96 1.11 -4 1 -4.04 0.88 -4.06 0.77 -4.1 0.65 -4.13 0.53 -4.15 0.42 -4.18 0.3 -4.19 0.18 -4.22 0.06 0 -38.55 3.12 -0.05 3.1 -0.13 3.07 -0.22 3.05 -0.31 3.03 -0.39 3.01 -0.48 2.98 -0.56 2.95 -0.64 2.92 -0.73 2.9 -0.81 2.86 -0.89 2.84 -0.97 2.81 -1.05 2.77 -1.13 2.73 -1.21 2.7 -1.29 2.66 -1.36 2.62 -1.44 2.58 -1.52 2.54 -1.59 2.49 -1.66 2.45 -1.74 2.41 -1.82 2.36 -1.89 2.32 -1.96 2.26 -2.03 2.22 -2.11 2.16 -2.17 2.11 -2.25 2.05 -2.32 2 -2.39 1.94 -2.46 0.05 -0.06zm-0.05 0.06c6.48,-8.44 18.59,-10.03 27.03,-3.54 8.44,6.48 10.03,18.59 3.54,27.03l-30.57 -23.48zm38.28 12.25l-34.3 -17.6 33.3 19.32 -0.39 0.59 -0.36 0.55 -0.23 0.34 -0.21 0.32 -0.18 0.27 -0.2 0.3 -0.19 0.29 -0.21 0.31 -0.21 0.31 -0.2 0.29 -0.22 0.32 -0.2 0.29 -0.19 0.28 -0.22 0.32 -0.2 0.28 -0.21 0.3 -0.23 0.33 -0.2 0.28 -0.22 0.3 -0.24 0.32 -0.2 0.27 -0.22 0.3 -0.22 0.3 -0.22 0.3 -0.25 0.34 -0.22 0.29 -0.22 0.3 -0.22 0.29 -0.22 0.29 -0.24 0.31 -30.47 -23.61 0.14 -0.19 0.16 -0.21 0.16 -0.21 0.16 -0.21 0.16 -0.21 0.12 -0.17 0.15 -0.21 0.16 -0.21 0.15 -0.21 0.17 -0.24 0.14 -0.19 0.15 -0.21 0.17 -0.24 0.13 -0.19 0.15 -0.22 0.16 -0.23 0.14 -0.2 0.17 -0.24 0.16 -0.23 0.14 -0.2 0.16 -0.24 0.15 -0.22 0.15 -0.22 0.16 -0.24 0.15 -0.23 0.18 -0.27 0.14 -0.21 0.12 -0.19 0.34 -0.52 0.31 -0.47 33.3 19.32zm-33.3 -19.32c5.81,-8.92 17.75,-11.44 26.67,-5.63 8.92,5.81 11.44,17.75 5.63,26.67l-32.3 -21.04zm17.3 44.14l-30.17 -24 0.05 -0.06 0.42 -0.53 0.42 -0.53 0.42 -0.54 0.41 -0.54 0.4 -0.53 0.4 -0.55 0.41 -0.55 0.39 -0.54 0.4 -0.56 0.39 -0.56 0.38 -0.55 0.39 -0.57 0.38 -0.56 0.38 -0.57 0.38 -0.58 0.36 -0.56 0.36 -0.57 0.37 -0.58 0.36 -0.58 0.36 -0.59 0.35 -0.58 0.35 -0.59 0.35 -0.6 0.34 -0.59 0.34 -0.59 0.34 -0.6 0.33 -0.6 0.33 -0.61 0.32 -0.6 0.32 -0.61 0.32 -0.61 0.32 -0.62 34.3 17.6 -0.42 0.81 -0.43 0.81 -0.43 0.81 -0.44 0.82 -0.44 0.8 -0.45 0.8 -0.45 0.8 -0.46 0.81 -0.47 0.8 -0.46 0.79 -0.47 0.8 -0.48 0.79 -0.48 0.78 -0.49 0.79 -0.49 0.78 -0.5 0.79 -0.51 0.79 -0.5 0.76 -0.51 0.77 -0.52 0.78 -0.52 0.76 -0.53 0.77 -0.53 0.76 -0.53 0.75 -0.55 0.77 -0.55 0.75 -0.55 0.75 -0.57 0.76 -0.57 0.74 -0.57 0.74 -0.58 0.73 -0.58 0.73 0.05 -0.06zm-0.05 0.06c-6.66,8.3 -18.79,9.64 -27.1,2.98 -8.3,-6.66 -9.64,-18.79 -2.98,-27.1l30.08 24.12zm-39.12 34.53l-20.02 -32.94 -0.02 0.01 1.04 -0.64 1.03 -0.65 1.03 -0.67 1.02 -0.67 1 -0.68 1 -0.7 0.99 -0.7 0.98 -0.71 0.97 -0.73 0.97 -0.74 0.95 -0.74 0.94 -0.75 0.95 -0.77 0.93 -0.77 0.92 -0.79 0.91 -0.8 0.9 -0.81 0.9 -0.82 0.89 -0.83 0.87 -0.83 0.87 -0.85 0.87 -0.86 0.85 -0.86 0.84 -0.88 0.84 -0.89 0.82 -0.9 0.82 -0.91 0.81 -0.92 0.79 -0.92 0.79 -0.94 0.78 -0.95 0.77 -0.95 30.17 24 -1.04 1.29 -1.05 1.27 -1.05 1.25 -1.07 1.25 -1.08 1.23 -1.1 1.22 -1.11 1.21 -1.12 1.19 -1.13 1.18 -1.15 1.17 -1.15 1.15 -1.17 1.14 -1.19 1.14 -1.2 1.12 -1.2 1.1 -1.22 1.09 -1.23 1.08 -1.24 1.06 -1.26 1.05 -1.26 1.03 -1.28 1.03 -1.3 1.01 -1.3 0.99 -1.31 0.98 -1.33 0.97 -1.34 0.95 -1.34 0.93 -1.37 0.93 -1.37 0.91 -1.37 0.89 -1.4 0.88 -1.4 0.86 -0.02 0.01zm0.02 -0.01c-9.09,5.54 -20.95,2.66 -26.49,-6.43 -5.54,-9.09 -2.66,-20.95 6.43,-26.49l20.06 32.92zm-65.66 20.99l-3.09 -38.43 0.15 -0.01 1.61 -0.13 1.6 -0.15 1.6 -0.18 1.59 -0.2 1.59 -0.23 1.6 -0.25 1.58 -0.27 1.58 -0.29 1.59 -0.32 1.57 -0.34 1.57 -0.37 1.56 -0.38 1.55 -0.41 1.55 -0.43 1.55 -0.46 1.54 -0.48 1.52 -0.5 1.52 -0.52 1.52 -0.55 1.51 -0.57 1.5 -0.59 1.49 -0.61 1.48 -0.63 1.46 -0.65 1.46 -0.68 1.45 -0.7 1.44 -0.72 1.42 -0.74 1.41 -0.76 1.41 -0.78 1.39 -0.8 1.37 -0.82 20.02 32.94 -1.87 1.12 -1.89 1.09 -1.9 1.06 -1.92 1.03 -1.94 1.01 -1.95 0.97 -1.96 0.94 -1.97 0.91 -1.99 0.89 -2 0.86 -2.01 0.83 -2.02 0.8 -2.03 0.77 -2.05 0.74 -2.06 0.71 -2.07 0.68 -2.08 0.65 -2.08 0.62 -2.09 0.58 -2.11 0.56 -2.11 0.52 -2.12 0.49 -2.13 0.46 -2.13 0.43 -2.14 0.4 -2.16 0.37 -2.15 0.33 -2.16 0.3 -2.17 0.27 -2.17 0.24 -2.18 0.21 -2.17 0.17 0.15 -0.01zm-0.15 0.01c-10.62,0.77 -19.85,-7.22 -20.62,-17.83 -0.77,-10.62 7.22,-19.85 17.83,-20.62l2.78 38.45zm14.96 -16.11l-38.55 0 0 0 0.03 -1.13 0.08 -1.06 0.13 -1.06 0.18 -1.07 0.22 -1.01 0.29 -1.08 0.33 -1 0.36 -0.95 0.43 -0.99 0.44 -0.91 0.49 -0.89 0.51 -0.84 0.56 -0.84 0.63 -0.85 0.62 -0.77 0.69 -0.78 0.72 -0.74 0.71 -0.67 0.74 -0.64 0.81 -0.64 0.88 -0.63 0.82 -0.53 0.86 -0.51 0.92 -0.48 1 -0.47 1.01 -0.41 0.92 -0.33 0.97 -0.3 1.07 -0.28 1.13 -0.23 1.05 -0.16 1.05 -0.11 3.09 38.43 0.74 -0.08 0.75 -0.11 0.83 -0.17 0.78 -0.2 0.69 -0.21 0.64 -0.23 0.74 -0.3 0.73 -0.34 0.66 -0.35 0.61 -0.36 0.57 -0.37 0.64 -0.46 0.59 -0.46 0.52 -0.45 0.5 -0.47 0.52 -0.54 0.5 -0.56 0.44 -0.54 0.46 -0.62 0.4 -0.6 0.36 -0.6 0.35 -0.64 0.32 -0.65 0.31 -0.73 0.26 -0.68 0.24 -0.72 0.22 -0.8 0.16 -0.72 0.13 -0.78 0.1 -0.77 0.06 -0.76 0.02 -0.83 0 0zm0 0c0,10.65 -8.63,19.28 -19.28,19.28 -10.65,0 -19.28,-8.63 -19.28,-19.28l38.55 0zm-38.55 164.11l0 -164.11 38.55 0 0 164.11 0 0 -38.55 0zm38.55 0c0,10.65 -8.63,19.28 -19.28,19.28 -10.65,0 -19.28,-8.63 -19.28,-19.28l38.55 0zm13.13 31.68l-27.26 27.26 0.04 0.04 -1.46 -1.48 -1.41 -1.51 -1.37 -1.54 -1.33 -1.57 -1.29 -1.61 -1.25 -1.63 -1.2 -1.66 -1.16 -1.69 -1.12 -1.71 -1.07 -1.74 -1.03 -1.76 -0.98 -1.79 -0.94 -1.81 -0.89 -1.83 -0.85 -1.85 -0.8 -1.87 -0.76 -1.89 -0.71 -1.91 -0.66 -1.92 -0.62 -1.95 -0.56 -1.95 -0.52 -1.97 -0.47 -2 -0.42 -1.99 -0.37 -2.01 -0.32 -2.03 -0.27 -2.02 -0.23 -2.04 -0.18 -2.06 -0.12 -2.05 -0.08 -2.06 -0.03 -2.07 38.55 0 0.01 1.13 0.04 1.13 0.07 1.13 0.09 1.1 0.12 1.11 0.15 1.1 0.17 1.08 0.2 1.08 0.23 1.08 0.25 1.05 0.28 1.06 0.3 1.05 0.32 1.02 0.35 1.03 0.38 1.02 0.4 1 0.43 1 0.45 0.98 0.48 0.98 0.5 0.95 0.52 0.95 0.55 0.94 0.57 0.92 0.59 0.91 0.62 0.9 0.65 0.89 0.67 0.87 0.69 0.86 0.72 0.85 0.74 0.83 0.76 0.82 0.79 0.8 0.04 0.04zm-0.04 -0.04c7.55,7.51 7.58,19.71 0.08,27.26 -7.51,7.55 -19.71,7.58 -27.26,0.08l27.18 -27.34zm31.65 13.1l0 38.55 0 0 -2.07 -0.03 -2.06 -0.08 -2.05 -0.12 -2.06 -0.17 -2.04 -0.23 -2.02 -0.27 -2.02 -0.32 -2.01 -0.37 -1.99 -0.42 -1.98 -0.47 -1.97 -0.52 -1.96 -0.56 -1.93 -0.61 -1.92 -0.66 -1.9 -0.71 -1.88 -0.75 -1.87 -0.8 -1.84 -0.84 -1.82 -0.89 -1.81 -0.94 -1.78 -0.98 -1.75 -1.02 -1.74 -1.07 -1.71 -1.11 -1.68 -1.15 -1.66 -1.2 -1.62 -1.24 -1.6 -1.28 -1.57 -1.32 -1.54 -1.36 -1.51 -1.41 -1.48 -1.44 27.26 -27.26 0.81 0.79 0.82 0.76 0.83 0.74 0.85 0.72 0.86 0.69 0.88 0.67 0.88 0.64 0.9 0.62 0.92 0.6 0.92 0.57 0.94 0.55 0.95 0.52 0.95 0.49 0.97 0.47 0.99 0.45 0.98 0.42 1.01 0.4 1.01 0.37 1.02 0.35 1.03 0.33 1.04 0.3 1.05 0.27 1.06 0.25 1.07 0.23 1.07 0.2 1.08 0.17 1.1 0.15 1.11 0.12 1.1 0.09 1.13 0.07 1.13 0.04 1.13 0.01 0 0zm0 0c10.65,0 19.28,8.63 19.28,19.28 0,10.65 -8.63,19.28 -19.28,19.28l0 -38.55zm0.53 38.55l-0.53 0 0 -38.55 0.53 0 0.15 38.55 -0.15 0zm0 -38.55c10.65,0 19.28,8.63 19.28,19.28 0,10.65 -8.63,19.28 -19.28,19.28l0 -38.55zm44.21 -46.39l38.55 0 0 0 -0.11 4.3 -0.32 4.25 -0.52 4.21 -0.72 4.14 -0.92 4.07 -1.11 3.99 -1.29 3.91 -1.47 3.83 -1.65 3.74 -1.81 3.64 -1.98 3.54 -2.14 3.43 -2.29 3.32 -2.43 3.19 -2.58 3.08 -2.72 2.95 -2.85 2.82 -2.99 2.68 -3.11 2.54 -3.23 2.39 -3.35 2.24 -3.46 2.07 -3.56 1.91 -3.67 1.74 -3.77 1.56 -3.86 1.38 -3.95 1.18 -4.02 0.99 -4.1 0.79 -4.16 0.58 -4.22 0.36 -4.26 0.14 -0.29 -38.55 2.25 -0.08 2.21 -0.19 2.18 -0.3 2.15 -0.41 2.11 -0.52 2.07 -0.62 2.03 -0.72 1.99 -0.83 1.95 -0.92 1.91 -1.02 1.86 -1.11 1.8 -1.2 1.75 -1.29 1.69 -1.38 1.63 -1.46 1.56 -1.54 1.49 -1.61 1.42 -1.69 1.34 -1.76 1.26 -1.82 1.17 -1.88 1.09 -1.95 1 -2 0.9 -2.05 0.81 -2.1 0.71 -2.15 0.61 -2.2 0.51 -2.24 0.4 -2.28 0.29 -2.31 0.17 -2.35 0.06 -2.39 0 0zm0 0c0,-10.65 8.63,-19.28 19.28,-19.28 10.65,0 19.28,8.63 19.28,19.28l-38.55 0zm38.55 -290.27l0 290.27 -38.55 0 0 -290.27 19.28 -19.28 19.28 19.28zm-38.55 0c0,-10.65 8.63,-19.28 19.28,-19.28 10.65,0 19.28,8.63 19.28,19.28l-38.55 0zm18.61 -19.28l0.66 0 0 38.55 -0.66 0 -19.2 -20.97 19.2 -17.58zm0 38.55c-10.65,0 -19.28,-8.63 -19.28,-19.28 0,-10.65 8.63,-19.28 19.28,-19.28l0 38.55zm0.53 -45.38l0 38.55 19.24 -18.18 -0.03 0.51 -0.03 0.49 -0.03 0.49 -0.04 0.52 -0.03 0.46 -0.03 0.46 -0.04 0.48 -0.04 0.49 -0.04 0.46 -0.04 0.43 -0.04 0.45 -0.04 0.45 -0.04 0.45 -0.04 0.42 -0.04 0.42 -0.04 0.43 -38.4 -3.38 0.04 -0.41 0.04 -0.42 0.04 -0.42 0.03 -0.39 0.03 -0.39 0.03 -0.39 0.04 -0.42 0.03 -0.39 0.03 -0.37 0.03 -0.37 0.03 -0.4 0.03 -0.4 0.02 -0.34 0.02 -0.37 0.03 -0.37 0.02 -0.36 19.24 -18.18zm-19.24 18.18c0.61,-10.63 9.71,-18.75 20.34,-18.15 10.63,0.61 18.75,9.71 18.15,20.34l-38.49 -2.19zm19.38 20.37l-0.13 0 0 -38.55 0.13 0 19.28 19.28 -19.28 19.28zm0 -38.55c10.65,0 19.28,8.63 19.28,19.28 0,10.65 -8.63,19.28 -19.28,19.28l0 -38.55zm19.28 -169.84l0 189.12 -38.55 0 0 -189.12 0 0 38.55 0zm-38.55 0c0,-10.65 8.63,-19.28 19.28,-19.28 10.65,0 19.28,8.63 19.28,19.28l-38.55 0zm-13.13 -31.61l27.26 -27.26 -0.04 -0.04 1.45 1.48 1.41 1.51 1.37 1.54 1.33 1.57 1.29 1.6 1.25 1.63 1.21 1.66 1.16 1.69 1.11 1.7 1.08 1.74 1.03 1.76 0.98 1.77 0.94 1.81 0.89 1.83 0.85 1.85 0.8 1.87 0.75 1.88 0.71 1.9 0.66 1.92 0.62 1.94 0.57 1.96 0.51 1.96 0.47 1.98 0.42 2.01 0.37 2 0.32 2.02 0.27 2.03 0.23 2.04 0.17 2.06 0.12 2.05 0.08 2.06 0.03 2.07 -38.55 0 -0.01 -1.13 -0.04 -1.13 -0.07 -1.12 -0.09 -1.1 -0.12 -1.11 -0.15 -1.09 -0.17 -1.08 -0.2 -1.09 -0.22 -1.06 -0.25 -1.06 -0.28 -1.06 -0.3 -1.03 -0.33 -1.03 -0.35 -1.02 -0.38 -1.01 -0.4 -1.01 -0.42 -0.99 -0.45 -0.98 -0.47 -0.97 -0.5 -0.95 -0.53 -0.95 -0.55 -0.93 -0.57 -0.92 -0.6 -0.92 -0.62 -0.9 -0.64 -0.88 -0.67 -0.88 -0.69 -0.86 -0.72 -0.85 -0.74 -0.83 -0.76 -0.82 -0.79 -0.81 -0.04 -0.04zm0.04 0.04c-7.55,-7.51 -7.58,-19.71 -0.07,-27.26 7.51,-7.55 19.71,-7.58 27.26,-0.07l-27.19 27.33zm-29.58 -13.07l2.37 -38.48 -0.22 -0.01 1.93 0.12 1.92 0.16 1.91 0.21 1.9 0.25 1.9 0.3 1.88 0.34 1.87 0.38 1.87 0.42 1.85 0.46 1.84 0.51 1.83 0.55 1.81 0.59 1.79 0.63 1.78 0.67 1.76 0.71 1.74 0.75 1.74 0.79 1.71 0.83 1.69 0.87 1.67 0.91 1.65 0.95 1.62 0.98 1.61 1.02 1.59 1.07 1.56 1.09 1.54 1.14 1.51 1.17 1.48 1.2 1.46 1.24 1.44 1.28 1.41 1.31 1.38 1.35 -27.26 27.26 -0.74 -0.73 -0.76 -0.71 -0.77 -0.69 -0.78 -0.67 -0.81 -0.65 -0.81 -0.63 -0.82 -0.61 -0.84 -0.59 -0.84 -0.56 -0.86 -0.55 -0.88 -0.53 -0.88 -0.5 -0.9 -0.49 -0.91 -0.47 -0.91 -0.45 -0.92 -0.42 -0.94 -0.4 -0.95 -0.38 -0.95 -0.36 -0.97 -0.34 -0.97 -0.32 -0.97 -0.29 -0.98 -0.27 -0.99 -0.25 -1 -0.23 -1 -0.2 -1.02 -0.18 -1.02 -0.16 -1.03 -0.13 -1.03 -0.11 -1.03 -0.09 -1.04 -0.06 -0.22 -0.01zm0.22 0.01c-10.63,-0.53 -18.82,-9.59 -18.28,-20.22 0.53,-10.63 9.59,-18.82 20.22,-18.28l-1.93 38.5zm-21.63 -19.32l38.55 0 -19.28 -19.28 0.21 0 0.21 0 0.27 0 0.27 0 0.21 0 0.21 0 0.33 0 0.27 0.01 0.27 0 0.33 0.01 0.27 0.01 0.33 0.01 0.33 0.01 0.33 0.01 0.33 0.02 0.36 0.02 -2.37 38.48 -0.04 -0 -0.08 -0 -0.08 -0 -0.08 -0 -0.08 -0 -0.15 -0 -0.09 -0 -0.15 -0 -0.15 -0 -0.09 0 -0.21 -0 -0.21 -0 -0.15 -0 -0.15 0 -0.21 0 -0.21 0 -19.28 -19.28zm19.28 19.28c-10.65,0 -19.28,-8.63 -19.28,-19.28 0,-10.65 8.63,-19.28 19.28,-19.28l0 38.55zm19.28 -19.54l0 0.27 -38.55 0 0 -0.27 19.28 -19.28 19.28 19.28zm-38.55 0c0,-10.65 8.63,-19.28 19.28,-19.28 10.65,0 19.28,8.63 19.28,19.28l-38.55 0z"/>
   </g>
  </g>
 </g>
</svg>
