<?xml version="1.0" encoding="UTF-8"?>
<!DOCTYPE svg PUBLIC "-//W3C//DTD SVG 1.1//EN" "http://www.w3.org/Graphics/SVG/1.1/DTD/svg11.dtd">
<!-- Creator: CorelDRAW (OEM Version) -->
<svg xmlns="http://www.w3.org/2000/svg" xml:space="preserve" width="86.6987mm" height="86.6987mm" version="1.1" style="shape-rendering:geometricPrecision; text-rendering:geometricPrecision; image-rendering:optimizeQuality; fill-rule:evenodd; clip-rule:evenodd"
viewBox="0 0 1614.03 1614.03"
 xmlns:xlink="http://www.w3.org/1999/xlink"
 xmlns:xodm="http://www.corel.com/coreldraw/odm/2003">
 <defs>
  <style type="text/css">
   <![CDATA[
    .fil2 {fill:#1095FF}
    .fil0 {fill:#181821}
    .fil1 {fill:white}
   ]]>
  </style>
 </defs>
 <g id="Layer_x0020_1">
  <metadata id="CorelCorpID_0Corel-Layer"/>
  <g id="_2192349926224">
   <circle class="fil0" cx="807.01" cy="807.01" r="807.01"/>
   <g>
    <path class="fil1" d="M1215.17 520.62c-1.65,-1.21 -23.77,-30.89 -30.18,-38.09l-38.95 -40.35c-1.05,-1.05 -1.68,-1.78 -2.75,-2.77 -1.49,-1.38 -1.98,-1.46 -3.45,-2.76l-37.96 -31c-13.21,-9.94 -27.12,-19.11 -41.39,-27.57l-14.49 -8.26c-5.23,-2.79 -9.73,-5.21 -14.94,-7.82 -46.29,-23.15 -86.67,-35.85 -137.05,-45.69l-61.65 -7.31c-6.02,-0.67 -35.23,-0.06 -44.73,-0.1 -7.54,-0.04 -14.04,1.31 -21.38,1.37 -14.78,0.12 -44.81,5.6 -60.27,8.69 -44.45,8.86 -86.14,24.54 -126.37,44.64l-76.92 49.27 -12.65 10.11c-2.09,1.64 -4.04,3.31 -5.99,5.05 -6.25,5.56 -12.73,10.59 -18.62,16.55 -8.41,8.51 -17.44,17.08 -25.17,25.86l-13.66 15.3c-1.8,2.29 -3.41,4.31 -5.3,6.42 -16.66,18.7 -34.44,46.36 -46.75,67.72 -1.29,2.23 -2.54,4.72 -3.97,7.06 -4.41,7.25 -8.07,15.06 -11.86,22.62 -7.78,15.55 -14.09,32.19 -20.49,48.47 -21.17,53.89 -33.77,133.08 -28.51,197.74 1.15,14.1 1.98,27.81 3.97,41.54 6.68,46.15 18.15,82.8 35.27,125.4 4.57,11.38 16.11,35.29 22.72,46.23l21.51 35.04c7.66,11.54 16.19,22.3 24.53,33.39 3.47,4.61 6.84,7.92 10.35,12.4 6.63,8.47 25.93,29.43 33.5,35.46l42.86 37.13 19.91 14.57c13.62,9.24 27.67,18.07 42.15,26.11l54.06 25.93c47.35,18.95 97.37,31.01 148.5,34.93 23.21,1.78 52.5,3.24 72.86,-4.98 8.25,-3.33 15.32,-6.47 22.17,-11.62 20.63,-15.52 35.88,-35.91 40.96,-62.48 3.42,-17.86 1.88,-113.47 1.88,-136.03 -3.7,0.31 -16.75,4.95 -21.29,6.29 -7.05,2.07 -15.58,3.76 -23.01,5.26 -62.29,12.6 -131.19,2.41 -187.62,-25.8 -12.17,-6.08 -24.26,-12.64 -35.23,-20.63 -2.92,-2.13 -5.32,-3.45 -8.19,-5.61l-23.14 -18.92c-7.7,-6.14 -14.38,-13.73 -21.32,-20.74 -1.6,-1.62 -1.74,-2.13 -3.12,-3.78 -17.14,-20.39 -30.51,-37.84 -42.79,-62.02l-8.96 -19.31c-12.12,-27.2 -20.48,-59.33 -22.54,-89.86 -0.87,-12.92 -3,-26.78 -0.96,-40.31 1.27,-8.44 1.09,-17.41 2.24,-25.35 1.27,-8.77 2.6,-16.12 4.19,-24.08 4.25,-21.16 11.58,-43.75 21.21,-62.92l14.57 -27.49 16.87 -25.19c3.92,-5.28 8.05,-10.33 12.39,-15.2 9.66,-10.85 16.54,-18.45 27.59,-28.27 5.22,-4.64 9.6,-8.68 15.31,-12.96l33.19 -22.66 27.19 -14.19c16.64,-8.07 33.37,-13.51 52.13,-18.21 32.35,-8.09 63.49,-10.12 102.28,-7.26 7.54,0.55 16.36,2.26 24,3.58 7.17,1.24 16.27,3.26 23.03,5.25 10.46,3.08 21.05,6.3 31.05,10.33 25.39,10.22 50.61,23.24 71.83,40.57 7.8,6.37 15.51,12.25 22.7,19.36l20.93 21.14 18.62 23.44c2.09,2.89 3.54,5.28 5.53,8.26 8.2,12.3 19.27,31.16 25.01,45.32 1.98,4.87 7.57,15.8 7.67,20.6l-191.71 -0.01c-18.67,-0.11 -37.26,4.73 -53.87,10.27 -8.54,2.84 -14.97,5.64 -22.66,9.06 -3.67,1.63 -6.85,3.69 -10.36,5.5 -6.58,3.4 -13.47,7.93 -19.41,12.31 -21.41,15.79 -40.38,35.43 -54.08,58.31 -2.13,3.55 -3.58,6.77 -5.67,10.19 -11.12,18.29 -20.93,52.77 -22.2,73.65 -0.3,4.88 -0.44,9.65 -0.71,15.23 -0.31,6.59 -0.64,4.77 9.67,4.77l368.23 -0c22.27,0 38.54,0.71 60.16,-3.97 13.06,-2.83 24.63,-6.37 36.48,-11.1 11.13,-4.44 21.14,-10.04 31.33,-16.25 54.19,-33.04 92.08,-98.51 92,-163.83l0 -304.1c0.03,-22.5 -7.47,-42.35 -20.39,-59.6 -31.22,-41.67 -91.75,-51.67 -134.91,-22.61 -12.94,8.71 -22.93,19.94 -30.92,33.21 -3.42,5.68 -7.9,15.46 -9.61,22.8 2.88,4.3 7.79,7.71 11.56,11.2l25.68 27.42c5.06,6.62 14.21,16.36 20.89,25.32 13.24,17.75 25.34,35.96 36.64,55.07 3.23,5.47 9.33,14.26 10.74,20.29z"/>
    <path class="fil2" d="M1106.22 937.13c0,77.92 0,155.84 0,233.76 0,40.75 -3.77,62.76 20.78,95.76 28.21,37.92 85.47,51.07 127.89,25.33 14.11,-8.57 22.53,-16.49 32.69,-30.75 5.42,-7.61 10.64,-18.69 13.65,-28.42 2.64,-8.54 3.81,-20.07 4.29,-32.29l0 -47.55 -0.69 -421.33c0,16.3 -2.93,31.04 -6.2,44.13 -6.36,25.42 -16.99,48.33 -31.44,69.24 -3.56,5.14 -7.18,9.57 -11.02,14.5 -5.13,6.59 -17.98,19.55 -24.92,25.42 -2.44,2.06 -4.09,3.64 -6.71,5.7 -2.7,2.12 -4.63,3.77 -7.42,5.68 -5.2,3.54 -9.38,6.59 -14.9,9.92 -27.91,16.83 -59.03,27.83 -95.98,30.9z"/>
   </g>
  </g>
 </g>
</svg>
